  0
SECTION
  2
HEADER
  9
$ACADVER
  1
AC1014
  9
$ACADMAINTVER
 70
     0
  9
$DWGCODEPAGE
  3
ANSI_1250
  9
$INSBASE
 10
0.0
 20
0.0
 30
0.0
  9
$EXTMIN
 10
0.0
 20
0.0
 30
0.0
  9
$EXTMAX
 10
420.0
 20
297.0
 30
0.0
  9
$LIMMIN
 10
0.0
 20
0.0
  9
$LIMMAX
 10
420.0
 20
297.0
  9
$ORTHOMODE
 70
     0
  9
$REGENMODE
 70
     1
  9
$FILLMODE
 70
     1
  9
$QTEXTMODE
 70
     0
  9
$MIRRTEXT
 70
     0
  9
$DRAGMODE
 70
     2
  9
$LTSCALE
 40
1.0
  9
$OSMODE
 70
     0
  9
$ATTMODE
 70
     1
  9
$TEXTSIZE
 40
2.5
  9
$TRACEWID
 40
1.0
  9
$TEXTSTYLE
  7
STANDARD
  9
$CLAYER
  8
0
  9
$CELTYPE
  6
BYLAYER
  9
$CECOLOR
 62
   256
  9
$CELTSCALE
 40
1.0
  9
$DELOBJ
 70
     1
  9
$DISPSILH
 70
     0
  9
$DIMSCALE
 40
1.0
  9
$DIMASZ
 40
2.5
  9
$DIMEXO
 40
0.625
  9
$DIMDLI
 40
3.75
  9
$DIMRND
 40
0.0
  9
$DIMDLE
 40
0.0
  9
$DIMEXE
 40
1.25
  9
$DIMTP
 40
0.0
  9
$DIMTM
 40
0.0
  9
$DIMTXT
 40
2.5
  9
$DIMCEN
 40
2.5
  9
$DIMTSZ
 40
0.0
  9
$DIMTOL
 70
     0
  9
$DIMLIM
 70
     0
  9
$DIMTIH
 70
     0
  9
$DIMTOH
 70
     0
  9
$DIMSE1
 70
     0
  9
$DIMSE2
 70
     0
  9
$DIMTAD
 70
     1
  9
$DIMZIN
 70
     8
  9
$DIMBLK
  1

  9
$DIMASO
 70
     1
  9
$DIMSHO
 70
     1
  9
$DIMPOST
  1

  9
$DIMAPOST
  1

  9
$DIMALT
 70
     0
  9
$DIMALTD
 70
     3
  9
$DIMALTF
 40
0.03937008
  9
$DIMLFAC
 40
1.0
  9
$DIMTOFL
 70
     1
  9
$DIMTVP
 40
0.0
  9
$DIMTIX
 70
     0
  9
$DIMSOXD
 70
     0
  9
$DIMSAH
 70
     0
  9
$DIMBLK1
  1

  9
$DIMBLK2
  1

  9
$DIMSTYLE
  2
STANDARD
  9
$DIMCLRD
 70
     0
  9
$DIMCLRE
 70
     0
  9
$DIMCLRT
 70
     0
  9
$DIMTFAC
 40
1.0
  9
$DIMGAP
 40
0.625
  9
$DIMJUST
 70
     0
  9
$DIMSD1
 70
     0
  9
$DIMSD2
 70
     0
  9
$DIMTOLJ
 70
     0
  9
$DIMTZIN
 70
     8
  9
$DIMALTZ
 70
     0
  9
$DIMALTTZ
 70
     0
  9
$DIMFIT
 70
     3
  9
$DIMUPT
 70
     0
  9
$DIMUNIT
 70
     2
  9
$DIMDEC
 70
     2
  9
$DIMTDEC
 70
     2
  9
$DIMALTU
 70
     2
  9
$DIMALTTD
 70
     3
  9
$DIMTXSTY
  7
STANDARD
  9
$DIMAUNIT
 70
     0
  9
$LUNITS
 70
     2
  9
$LUPREC
 70
     4
  9
$SKETCHINC
 40
1.0
  9
$FILLETRAD
 40
10.0
  9
$AUNITS
 70
     0
  9
$AUPREC
 70
     0
  9
$MENU
  1
.
  9
$ELEVATION
 40
0.0
  9
$PELEVATION
 40
0.0
  9
$THICKNESS
 40
0.0
  9
$LIMCHECK
 70
     0
  9
$CHAMFERA
 40
10.0
  9
$CHAMFERB
 40
10.0
  9
$CHAMFERC
 40
20.0
  9
$CHAMFERD
 40
0.0
  9
$SKPOLY
 70
     0
  9
$TDCREATE
 40
0.0
  9
$TDUPDATE
 40
0.0
  9
$TDINDWG
 40
0.0
  9
$TDUSRTIMER
 40
0.0
  9
$USRTIMER
 70
     0
  9
$ANGBASE
 50
0.0
  9
$ANGDIR
 70
     0
  9
$PDMODE
 70
     0
  9
$PDSIZE
 40
0.0
  9
$PLINEWID
 40
0.0
  9
$COORDS
 70
     1
  9
$SPLFRAME
 70
     0
  9
$SPLINETYPE
 70
     6
  9
$SPLINESEGS
 70
     8
  9
$ATTDIA
 70
     0
  9
$ATTREQ
 70
     1
  9
$HANDLING
 70
     1
  9
$HANDSEED
  5
335
  9
$SURFTAB1
 70
     6
  9
$SURFTAB2
 70
     6
  9
$SURFTYPE
 70
     6
  9
$SURFU
 70
     6
  9
$SURFV
 70
     6
  9
$UCSNAME
  2

  9
$UCSORG
 10
0.0
 20
0.0
 30
0.0
  9
$UCSXDIR
 10
1.0
 20
0.0
 30
0.0
  9
$UCSYDIR
 10
0.0
 20
1.0
 30
0.0
  9
$PUCSNAME
  2

  9
$PUCSORG
 10
0.0
 20
0.0
 30
0.0
  9
$PUCSXDIR
 10
1.0
 20
0.0
 30
0.0
  9
$PUCSYDIR
 10
0.0
 20
1.0
 30
0.0
  9
$USERI1
 70
     0
  9
$USERI2
 70
     0
  9
$USERI3
 70
     0
  9
$USERI4
 70
     0
  9
$USERI5
 70
     0
  9
$USERR1
 40
0.0
  9
$USERR2
 40
0.0
  9
$USERR3
 40
0.0
  9
$USERR4
 40
0.0
  9
$USERR5
 40
0.0
  9
$WORLDVIEW
 70
     1
  9
$SHADEDGE
 70
     3
  9
$SHADEDIF
 70
    70
  9
$TILEMODE
 70
     1
  9
$MAXACTVP
 70
    64
  9
$PINSBASE
 10
0.0
 20
0.0
 30
0.0
  9
$PLIMCHECK
 70
     0
  9
$PEXTMIN
 10
1000000.0
 20
1000000.0
 30
1000000.0
  9
$PEXTMAX
 10
-1000000.0
 20
-1000000.0
 30
-1000000.0
  9
$PLIMMIN
 10
0.0
 20
0.0
  9
$PLIMMAX
 10
420.0
 20
297.0
  9
$UNITMODE
 70
     0
  9
$VISRETAIN
 70
     1
  9
$PLINEGEN
 70
     0
  9
$PSLTSCALE
 70
     1
  9
$TREEDEPTH
 70
  3020
  9
$PICKSTYLE
 70
     1
  9
$CMLSTYLE
  2
STANDARD
  9
$CMLJUST
 70
     0
  9
$CMLSCALE
 40
20.0
  9
$PROXYGRAPHICS
 70
     1
  9
$MEASUREMENT
 70
     1
  0
ENDSEC
  0
SECTION
  2
CLASSES
  0
CLASS
  1
ACDBDICTIONARYWDFLT
  2
AcDbDictionaryWithDefault
  3
AutoCAD 2000
 90
     0
280
     0
281
     0
  0
CLASS
  1
ACDBPLACEHOLDER
  2
AcDbPlaceHolder
  3
AutoCAD 2000
 90
     0
280
     0
281
     0
  0
CLASS
  1
DICTIONARYVAR
  2
AcDbDictionaryVar
  3
AutoCAD 2000
 90
     0
280
     0
281
     0
  0
CLASS
  1
XRECORD
  2
AcDbXrecord
  3
AutoCAD 2000
 90
     0
280
     0
281
     0
  0
CLASS
  1
LAYOUT
  2
AcDbLayout
  3
AutoCAD 2000
 90
     0
280
     0
281
     0
  0
CLASS
  1
LWPOLYLINE
  2
AcDbPolyline
  3
AutoCAD 2000
 90
     0
280
     0
281
     1
  0
CLASS
  1
HATCH
  2
AcDbHatch
  3
AutoCAD 2000
 90
     0
280
     0
281
     1
  0
ENDSEC
  0
SECTION
  2
TABLES
  0
TABLE
  2
VPORT
  5
1
330
0
100
AcDbSymbolTable
 70
     1
  0
VPORT
  5
2
330
1
100
AcDbSymbolTableRecord
100
AcDbViewportTableRecord
  2
*ACTIVE
 70
     0
 10
0.0
 20
0.0
 11
1.0
 21
1.0
 12
210.0
 22
148.5
 13
0.0
 23
0.0
 14
10.0
 24
10.0
 15
10.0
 25
10.0
 16
0.0
 26
0.0
 36
1.0
 17
0.0
 27
0.0
 37
0.0
 40
297.0
 41
1.41414141
 42
50.0
 43
0.0
 44
0.0
 50
0.0
 51
0.0
 71
    16
 72
  1000
 73
     1
 74
     1
 75
     0
 76
     0
 77
     0
 78
     0
  0
ENDTAB
  0
TABLE
  2
LTYPE
  5
3
330
0
100
AcDbSymbolTable
 70
     7
  0
LTYPE
  5
4
330
3
100
AcDbSymbolTableRecord
100
AcDbLinetypeTableRecord
  2
BYBLOCK
 70
     0
  3

 72
    65
 73
     0
 40
0.0
  0
LTYPE
  5
5
330
3
100
AcDbSymbolTableRecord
100
AcDbLinetypeTableRecord
  2
BYLAYER
 70
     0
  3

 72
    65
 73
     0
 40
0.0
  0
LTYPE
  5
6
330
3
100
AcDbSymbolTableRecord
100
AcDbLinetypeTableRecord
  2
CONTINUOUS
 70
     0
  3
Solid line
 72
    65
 73
     0
 40
0.0
  0
LTYPE
  5
23
330
3
100
AcDbSymbolTableRecord
100
AcDbLinetypeTableRecord
  2
DASH
 70
     0
  3
Dash __ __ __ __ __ __ __ __ __ __ __ __ __ 
 72
    65
 73
     2
 40
5.0
 49
4.0
 74
     0
 49
-1.0
 74
     0
  0
LTYPE
  5
24
330
3
100
AcDbSymbolTableRecord
100
AcDbLinetypeTableRecord
  2
DOT
 70
     0
  3
Dot . . . . . . . . . . . . . . . . . . . . 
 72
    65
 73
     2
 40
1.25
 49
0.25
 74
     0
 49
-1.0
 74
     0
  0
LTYPE
  5
25
330
3
100
AcDbSymbolTableRecord
100
AcDbLinetypeTableRecord
  2
DASHDOT
 70
     0
  3
Dash, dot __ . __ . __ . __ . __ . __ . __ .
 72
    65
 73
     4
 40
6.25
 49
4.0
 74
     0
 49
-1.0
 74
     0
 49
0.25
 74
     0
 49
-1.0
 74
     0
  0
LTYPE
  5
26
330
3
100
AcDbSymbolTableRecord
100
AcDbLinetypeTableRecord
  2
DASHDOTDOT
 70
     0
  3
Dash, double dot __ . . __ . . __ . . __ . .
 72
    65
 73
     6
 40
7.5
 49
4.0
 74
     0
 49
-1.0
 74
     0
 49
0.25
 74
     0
 49
-1.0
 74
     0
 49
0.25
 74
     0
 49
-1.0
 74
     0
  0
ENDTAB
  0
TABLE
  2
LAYER
  5
7
330
0
100
AcDbSymbolTable
 70
     4
  0
LAYER
  5
8
330
7
100
AcDbSymbolTableRecord
100
AcDbLayerTableRecord
  2
0
 70
     0
 62
     7
  6
CONTINUOUS
  0
LAYER
  5
20
330
7
100
AcDbSymbolTableRecord
100
AcDbLayerTableRecord
  2
1-texts
 70
     0
 62
     2
  6
CONTINUOUS
  0
LAYER
  5
21
330
7
100
AcDbSymbolTableRecord
100
AcDbLayerTableRecord
  2
2-order-items
 70
     0
 62
     4
  6
CONTINUOUS
  0
LAYER
  5
22
330
7
100
AcDbSymbolTableRecord
100
AcDbLayerTableRecord
  2
3-links
 70
     0
 62
     7
  6
CONTINUOUS
  0
ENDTAB
  0
TABLE
  2
STYLE
  5
9
330
0
100
AcDbSymbolTable
 70
     1
  0
STYLE
  5
A
330
9
100
AcDbSymbolTableRecord
100
AcDbTextStyleTableRecord
  2
STANDARD
 70
     0
 40
0.0
 41
1.0
 50
0.0
 71
     0
 42
2.5
  3
txt
  4

  0
ENDTAB
  0
TABLE
  2
VIEW
  5
B
330
0
100
AcDbSymbolTable
 70
     0
  0
ENDTAB
  0
TABLE
  2
UCS
  5
C
330
0
100
AcDbSymbolTable
 70
     0
  0
ENDTAB
  0
TABLE
  2
APPID
  5
D
330
0
100
AcDbSymbolTable
 70
     1
  0
APPID
  5
E
330
D
100
AcDbSymbolTableRecord
100
AcDbRegAppTableRecord
  2
ACAD
 70
     0
  0
ENDTAB
  0
TABLE
  2
DIMSTYLE
  5
F
330
0
100
AcDbSymbolTable
 70
     1
  0
DIMSTYLE
105
10
330
F
100
AcDbSymbolTableRecord
100
AcDbDimStyleTableRecord
  2
STANDARD
 70
     0
  3

  4

  5

  6

  7

 40
1.0
 41
0.18
 42
0.0625
 43
0.38
 44
0.18
 45
0.0
 46
0.0
 47
0.0
 48
0.0
140
0.18
141
0.09
142
0.0
143
25.4
144
1.0
145
0.0
146
1.0
147
0.09
 71
     0
 72
     0
 73
     1
 74
     1
 75
     0
 76
     0
 77
     0
 78
     0
170
     0
171
     2
172
     0
173
     0
174
     0
175
     0
176
     0
177
     0
178
     0
270
     2
271
     4
272
     4
273
     2
274
     2
340
A
275
     0
280
     0
281
     0
282
     0
283
     1
284
     0
285
     0
286
     0
287
     3
288
     0
  0
ENDTAB
  0
TABLE
  2
BLOCK_RECORD
  5
11
330
0
100
AcDbSymbolTable
 70
     2
  0
BLOCK_RECORD
  5
12
330
11
100
AcDbSymbolTableRecord
100
AcDbBlockTableRecord
  2
*MODEL_SPACE
  0
BLOCK_RECORD
  5
13
330
11
100
AcDbSymbolTableRecord
100
AcDbBlockTableRecord
  2
*PAPER_SPACE
  0
ENDTAB
  0
ENDSEC
  0
SECTION
  2
BLOCKS
  0
BLOCK
  5
14
330
12
100
AcDbEntity
  8
0
100
AcDbBlockBegin
  2
*MODEL_SPACE
 70
     0
 10
0.0
 20
0.0
 30
0.0
  3
*MODEL_SPACE
  0
ENDBLK
  5
15
330
12
100
AcDbEntity
  8
0
100
AcDbBlockEnd
  0
BLOCK
  5
16
330
13
100
AcDbEntity
 67
     1
  8
0
100
AcDbBlockBegin
  2
*PAPER_SPACE
 70
     0
 10
0.0
 20
0.0
 30
0.0
  3
*PAPER_SPACE
  0
ENDBLK
  5
17
330
13
100
AcDbEntity
  8
0
100
AcDbBlockEnd
  0
ENDSEC
  0
SECTION
  2
ENTITIES
  0
LWPOLYLINE
  5
27
330
12
100
AcDbEntity
  8
0
100
AcDbPolyline
 90
     2
 10
15.0
 20
292.0
 10
415.0
 20
292.0
  0
LWPOLYLINE
  5
28
330
12
100
AcDbEntity
  8
0
100
AcDbPolyline
 90
     2
 10
15.0
 20
292.0
 10
15.0
 20
5.0
  0
LWPOLYLINE
  5
29
330
12
100
AcDbEntity
  8
0
100
AcDbPolyline
 90
     2
 10
20.0
 20
287.0
 10
20.0
 20
10.0
  0
LWPOLYLINE
  5
2A
330
12
100
AcDbEntity
  8
0
100
AcDbPolyline
 90
     2
 10
20.0
 20
287.0
 10
410.0
 20
287.0
  0
LWPOLYLINE
  5
2B
330
12
100
AcDbEntity
  8
0
100
AcDbPolyline
 90
     2
 10
15.0
 20
252.0
 10
20.0
 20
252.0
  0
LWPOLYLINE
  5
2C
330
12
100
AcDbEntity
  8
0
100
AcDbPolyline
 90
     2
 10
14.95
 20
201.93
 10
19.95
 20
201.93
  0
LWPOLYLINE
  5
2D
330
12
100
AcDbEntity
  8
0
100
AcDbPolyline
 90
     2
 10
15.0
 20
152.0
 10
25.0
 20
152.0
  0
LWPOLYLINE
  5
2E
330
12
100
AcDbEntity
  8
0
100
AcDbPolyline
 90
     2
 10
15.0
 20
102.0
 10
20.0
 20
102.0
  0
LWPOLYLINE
  5
2F
330
12
100
AcDbEntity
  8
0
100
AcDbPolyline
 90
     2
 10
15.0
 20
52.0
 10
20.0
 20
52.0
  0
LWPOLYLINE
  5
30
330
12
100
AcDbEntity
  8
0
100
AcDbPolyline
 90
     2
 10
410.0
 20
287.0
 10
410.0
 20
10.0
  0
LWPOLYLINE
  5
31
330
12
100
AcDbEntity
  8
0
100
AcDbPolyline
 90
     2
 10
410.0
 20
10.0
 10
20.0
 20
10.0
  0
LWPOLYLINE
  5
32
330
12
100
AcDbEntity
  8
0
100
AcDbPolyline
 90
     2
 10
415.0
 20
5.0
 10
15.0
 20
5.0
  0
LWPOLYLINE
  5
33
330
12
100
AcDbEntity
  8
0
100
AcDbPolyline
 90
     2
 10
415.0
 20
5.0
 10
415.0
 20
292.0
  0
LWPOLYLINE
  5
34
330
12
100
AcDbEntity
  8
0
100
AcDbPolyline
 90
     2
 10
364.99
 20
9.98
 10
364.99
 20
4.98
  0
LWPOLYLINE
  5
35
330
12
100
AcDbEntity
  8
0
100
AcDbPolyline
 90
     2
 10
315.04
 20
9.98
 10
315.04
 20
4.98
  0
LWPOLYLINE
  5
36
330
12
100
AcDbEntity
  8
0
100
AcDbPolyline
 90
     2
 10
264.95
 20
9.91
 10
264.95
 20
4.91
  0
LWPOLYLINE
  5
37
330
12
100
AcDbEntity
  8
0
100
AcDbPolyline
 90
     2
 10
215.0
 20
15.0
 10
215.0
 20
5.0
  0
LWPOLYLINE
  5
38
330
12
100
AcDbEntity
  8
0
100
AcDbPolyline
 90
     2
 10
165.0
 20
10.0
 10
165.0
 20
5.0
  0
LWPOLYLINE
  5
39
330
12
100
AcDbEntity
  8
0
100
AcDbPolyline
 90
     2
 10
114.93
 20
9.98
 10
114.93
 20
4.98
  0
LWPOLYLINE
  5
3A
330
12
100
AcDbEntity
  8
0
100
AcDbPolyline
 90
     2
 10
65.0
 20
9.98
 10
65.0
 20
4.98
  0
LWPOLYLINE
  5
3B
330
12
100
AcDbEntity
  8
0
100
AcDbPolyline
 90
     2
 10
65.0
 20
292.0
 10
65.0
 20
287.0
  0
LWPOLYLINE
  5
3C
330
12
100
AcDbEntity
  8
0
100
AcDbPolyline
 90
     2
 10
114.95
 20
292.06
 10
114.95
 20
287.06
  0
LWPOLYLINE
  5
3D
330
12
100
AcDbEntity
  8
0
100
AcDbPolyline
 90
     2
 10
164.98
 20
292.06
 10
164.98
 20
287.06
  0
LWPOLYLINE
  5
3E
330
12
100
AcDbEntity
  8
0
100
AcDbPolyline
 90
     2
 10
365.0
 20
292.0
 10
365.0
 20
287.0
  0
LWPOLYLINE
  5
3F
330
12
100
AcDbEntity
  8
0
100
AcDbPolyline
 90
     2
 10
410.0
 20
52.0
 10
415.0
 20
52.0
  0
LWPOLYLINE
  5
40
330
12
100
AcDbEntity
  8
0
100
AcDbPolyline
 90
     2
 10
410.02
 20
101.91
 10
415.02
 20
101.91
  0
LWPOLYLINE
  5
41
330
12
100
AcDbEntity
  8
0
100
AcDbPolyline
 90
     2
 10
405.0
 20
152.0
 10
415.0
 20
152.0
  0
LWPOLYLINE
  5
42
330
12
100
AcDbEntity
  8
0
100
AcDbPolyline
 90
     2
 10
409.94
 20
201.84
 10
414.94
 20
201.84
  0
LWPOLYLINE
  5
43
330
12
100
AcDbEntity
  8
0
100
AcDbPolyline
 90
     2
 10
410.02
 20
252.14
 10
415.02
 20
252.14
  0
LWPOLYLINE
  5
44
330
12
100
AcDbEntity
  8
0
100
AcDbPolyline
 90
     2
 10
340.0
 20
9.93
 10
410.0
 20
9.93
  0
LWPOLYLINE
  5
45
330
12
100
AcDbEntity
  8
0
100
AcDbPolyline
 90
     2
 10
340.0
 20
9.93
 10
340.0
 20
19.93
  0
LWPOLYLINE
  5
46
330
12
100
AcDbEntity
  8
0
100
AcDbPolyline
 90
     2
 10
410.0
 20
9.93
 10
410.0
 20
19.93
  0
LWPOLYLINE
  5
47
330
12
100
AcDbEntity
  8
0
100
AcDbPolyline
 90
     2
 10
410.0
 20
19.93
 10
340.0
 20
19.93
  0
LWPOLYLINE
  5
48
330
12
100
AcDbEntity
  8
0
100
AcDbPolyline
 90
     2
 10
340.0
 20
19.93
 10
280.0
 20
19.93
  0
LWPOLYLINE
  5
49
330
12
100
AcDbEntity
  8
0
100
AcDbPolyline
 90
     2
 10
280.0
 20
19.93
 10
280.0
 20
10.0
  0
LWPOLYLINE
  5
4A
330
12
100
AcDbEntity
  8
0
100
AcDbPolyline
 90
     2
 10
280.0
 20
19.93
 10
280.0
 20
29.93
  0
LWPOLYLINE
  5
4B
330
12
100
AcDbEntity
  8
0
100
AcDbPolyline
 90
     2
 10
280.0
 20
29.93
 10
280.0
 20
49.93
  0
LWPOLYLINE
  5
4C
330
12
100
AcDbEntity
  8
0
100
AcDbPolyline
 90
     2
 10
297.0
 20
49.93
 10
297.0
 20
29.93
  0
LWPOLYLINE
  5
4D
330
12
100
AcDbEntity
  8
0
100
AcDbPolyline
 90
     2
 10
320.0
 20
49.93
 10
320.0
 20
29.93
  0
LWPOLYLINE
  5
4E
330
12
100
AcDbEntity
  8
0
100
AcDbPolyline
 90
     2
 10
331.0
 20
49.93
 10
331.0
 20
29.93
  0
LWPOLYLINE
  5
4F
330
12
100
AcDbEntity
  8
0
100
AcDbPolyline
 90
     2
 10
340.03
 20
49.94
 10
340.03
 20
29.94
  0
LWPOLYLINE
  5
50
330
12
100
AcDbEntity
  8
0
100
AcDbPolyline
 90
     2
 10
379.84
 20
50.0
 10
379.84
 20
30.0
  0
LWPOLYLINE
  5
51
330
12
100
AcDbEntity
  8
0
100
AcDbPolyline
 90
     2
 10
410.0
 20
49.93
 10
410.0
 20
29.93
  0
LWPOLYLINE
  5
52
330
12
100
AcDbEntity
  8
0
100
AcDbPolyline
 90
     2
 10
395.0
 20
39.93
 10
395.0
 20
29.93
  0
LWPOLYLINE
  5
53
330
12
100
AcDbEntity
  8
0
100
AcDbPolyline
 90
     2
 10
340.0
 20
39.93
 10
410.0
 20
39.93
  0
LWPOLYLINE
  5
54
330
12
100
AcDbEntity
  8
0
100
AcDbPolyline
 90
     2
 10
280.0
 20
30.0
 10
410.0
 20
30.0
  0
LWPOLYLINE
  5
55
330
12
100
AcDbEntity
  8
0
100
AcDbPolyline
 90
     2
 10
280.0
 20
36.0
 10
340.0
 20
36.0
  0
LWPOLYLINE
  5
56
330
12
100
AcDbEntity
  8
0
100
AcDbPolyline
 90
     2
 10
340.0
 20
41.93
 10
280.0
 20
41.93
  0
LWPOLYLINE
  5
57
330
12
100
AcDbEntity
  8
0
100
AcDbPolyline
 90
     2
 10
280.0
 20
49.93
 10
410.0
 20
49.93
  0
LWPOLYLINE
  5
58
330
12
100
AcDbEntity
  8
0
100
AcDbPolyline
 90
     4
 70
     1
 10
51.0
 20
134.96
 10
61.0
 20
134.96
 10
61.0
 20
124.96
 10
51.0
 20
124.96
  0
MTEXT
  5
59
330
12
100
AcDbEntity
  8
1-texts
100
AcDbMText
 10
61.0
 20
137.0
 30
0.0
 40
1.59
 41
0.0
 71
     5
 72
     1
  1
4
 50
0.0
  0
LWPOLYLINE
  5
5A
330
12
100
AcDbEntity
  8
0
100
AcDbPolyline
 90
     4
 70
     1
 10
61.0
 20
134.96
 10
71.0
 20
134.96
 10
71.0
 20
124.96
 10
61.0
 20
124.96
  0
MTEXT
  5
5B
330
12
100
AcDbEntity
  8
1-texts
100
AcDbMText
 10
71.0
 20
137.0
 30
0.0
 40
1.59
 41
0.0
 71
     5
 72
     1
  1
2
 50
0.0
  0
MTEXT
  5
5C
330
12
100
AcDbEntity
  8
1-texts
100
AcDbMText
 10
71.0
 20
123.0
 30
0.0
 40
1.59
 41
0.0
 71
     5
 72
     1
  1
3
 50
0.0
  0
LWPOLYLINE
  5
5D
330
12
100
AcDbEntity
  8
0
100
AcDbPolyline
 90
     2
 10
54.0
 20
134.96
 10
56.0
 20
125.0
  0
LWPOLYLINE
  5
5E
330
12
100
AcDbEntity
  8
0
100
AcDbPolyline
 90
     3
 70
     1
 10
54.0
 20
134.96
 10
53.89
 20
132.49
 10
55.06
 20
132.73
  0
LWPOLYLINE
  5
5F
330
12
100
AcDbEntity
  8
0
100
AcDbPolyline
 90
     2
 10
59.0
 20
134.96
 10
59.0
 20
124.96
  0
LWPOLYLINE
  5
60
330
12
100
AcDbEntity
  8
0
100
AcDbPolyline
 90
     3
 70
     1
 10
59.0
 20
124.96
 10
59.6
 20
127.36
 10
58.4
 20
127.36
  0
LWPOLYLINE
  5
61
330
12
100
AcDbEntity
  8
0
100
AcDbPolyline
 90
     2
 10
63.0
 20
135.0
 10
63.0
 20
125.0
  0
LWPOLYLINE
  5
62
330
12
100
AcDbEntity
  8
0
100
AcDbPolyline
 90
     3
 70
     1
 10
63.0
 20
125.0
 10
63.6
 20
127.4
 10
62.4
 20
127.4
  0
LWPOLYLINE
  5
63
330
12
100
AcDbEntity
  8
0
100
AcDbPolyline
 90
     2
 10
52.0
 20
127.0
 10
54.0
 20
127.0
  0
LWPOLYLINE
  5
64
330
12
100
AcDbEntity
  8
0
100
AcDbPolyline
 90
     2
 10
53.0
 20
125.0
 10
53.0
 20
127.0
  0
LWPOLYLINE
  5
65
330
12
100
AcDbEntity
  8
0
100
AcDbPolyline
 90
     2
 10
68.0
 20
126.96
 10
70.0
 20
126.96
  0
LWPOLYLINE
  5
66
330
12
100
AcDbEntity
  8
0
100
AcDbPolyline
 90
     2
 10
69.0
 20
124.96
 10
69.0
 20
126.96
  0
LWPOLYLINE
  5
67
330
12
100
AcDbEntity
  8
0
100
AcDbPolyline
 90
     2
 10
66.0
 20
125.0
 10
69.0
 20
135.0
  0
LWPOLYLINE
  5
68
330
12
100
AcDbEntity
  8
0
100
AcDbPolyline
 90
     3
 70
     1
 10
69.0
 20
135.0
 10
67.74
 20
132.87
 10
68.89
 20
132.53
  0
MTEXT
  5
69
330
12
100
AcDbEntity
  8
1-texts
100
AcDbMText
 10
61.0
 20
123.0
 30
0.0
 40
1.59
 41
0.0
 71
     5
 72
     1
  1
5
 50
0.0
  0
MTEXT
  5
6A
330
12
100
AcDbEntity
  8
1-texts
100
AcDbMText
 10
67.0
 20
123.0
 30
0.0
 40
1.59
 41
0.0
 71
     5
 72
     1
  1
1
 50
0.0
  0
LWPOLYLINE
  5
6B
330
12
100
AcDbEntity
  8
0
100
AcDbPolyline
 90
     4
 70
     1
 10
71.0
 20
129.96
 10
75.0
 20
129.96
 10
75.0
 20
124.96
 10
71.0
 20
124.96
  0
LWPOLYLINE
  5
6C
330
12
100
AcDbEntity
  8
0
100
AcDbPolyline
 90
     3
 10
75.0
 20
129.96
 10
72.5
 20
127.46
 10
75.0
 20
124.96
  0
LWPOLYLINE
  5
6D
330
12
100
AcDbEntity
  8
0
100
AcDbPolyline
 90
     4
 70
     1
 10
43.0
 20
129.96
 10
47.0
 20
129.96
 10
47.0
 20
124.96
 10
43.0
 20
124.96
  0
LWPOLYLINE
  5
6E
330
12
100
AcDbEntity
  8
0
100
AcDbPolyline
 90
     4
 10
47.0
 20
129.96
 10
48.58
 20
128.38
 10
49.5
 20
127.46
 10
47.0
 20
124.96
  0
LWPOLYLINE
  5
6F
330
12
100
AcDbEntity
  8
0
100
AcDbPolyline
 90
     4
 70
     1
 10
47.0
 20
129.96
 10
51.0
 20
129.96
 10
51.0
 20
124.96
 10
47.0
 20
124.96
  0
LWPOLYLINE
  5
70
330
12
100
AcDbEntity
  8
0
100
AcDbPolyline
 90
     4
 10
47.0
 20
129.96
 10
48.58
 20
128.38
 10
49.5
 20
127.46
 10
47.0
 20
124.96
  0
LWPOLYLINE
  5
71
330
12
100
AcDbEntity
  8
0
100
AcDbPolyline
 90
     2
 10
44.0
 20
124.96
 10
46.0
 20
129.96
  0
MTEXT
  5
72
330
12
100
AcDbEntity
  8
2-order-items
100
AcDbMText
 10
50.16
 20
138.76
 30
0.0
 40
2.064
 41
0.0
 71
     5
 72
     1
  1
\L7, 8
 50
0.0
  0
MTEXT
  5
73
330
12
100
AcDbEntity
  8
2-order-items
100
AcDbMText
 10
20.0
 20
142.64
 30
0.0
 40
2.064
 41
0.0
 71
     4
 72
     1
  1
7: SY5120-5YO-01F-Q\P8: K43
 50
0.0
  0
LWPOLYLINE
  5
74
330
12
100
AcDbEntity
  8
3-links
100
AcDbPolyline
 90
     4
 10
44.0
 20
175.01
 10
44.0
 20
155.0
 10
63.0
 20
155.0
 10
63.0
 20
141.0
  0
MTEXT
  5
75
330
12
100
AcDbEntity
  8
2-order-items
100
AcDbMText
 10
44.61
 20
158.24
 30
0.0
 40
2.064
 41
0.0
 71
     5
 72
     1
  1
\L39
 50
0.0
  0
LWPOLYLINE
  5
76
330
12
100
AcDbEntity
  8
3-links
100
AcDbPolyline
 90
     4
 10
69.0
 20
141.0
 10
69.0
 20
156.01
 10
68.0
 20
156.01
 10
68.0
 20
171.01
  0
LWPOLYLINE
  5
77
330
12
100
AcDbEntity
  8
0
100
AcDbPolyline
 90
     4
 70
     1
 10
384.99
 20
102.84
 10
384.99
 20
96.68
 10
382.02
 20
96.68
 10
382.02
 20
102.84
  0
LWPOLYLINE
  5
78
330
12
100
AcDbEntity
  8
0
100
AcDbPolyline
 90
     3
 10
385.0
 20
96.68
 10
383.5
 20
95.0
 10
382.0
 20
96.68
  0
LWPOLYLINE
  5
79
330
12
100
AcDbEntity
  8
0
100
AcDbPolyline
 90
     2
 10
384.99
 20
99.76
 10
383.71
 20
99.76
  0
LWPOLYLINE
  5
7A
330
12
100
AcDbEntity
  8
0
100
AcDbPolyline
 90
     2
 10
383.29
 20
100.95
 10
382.02
 20
100.95
  0
LWPOLYLINE
  5
7B
330
12
100
AcDbEntity
  8
0
100
AcDbPolyline
 90
     2
 10
383.29
 20
98.58
 10
382.02
 20
98.58
  0
LWPOLYLINE
  5
7C
330
12
100
AcDbEntity
  8
0
100
AcDbPolyline
 90
     2
 10
383.5
 20
102.84
 10
383.5
 20
109.0
  0
LWPOLYLINE
  5
7D
330
12
100
AcDbEntity
  8
0
100
AcDbPolyline
 90
     4
 70
     1
 10
389.49
 20
98.84
 10
389.49
 20
92.68
 10
386.52
 20
92.68
 10
386.52
 20
98.84
  0
LWPOLYLINE
  5
7E
330
12
100
AcDbEntity
  8
0
100
AcDbPolyline
 90
     3
 10
389.5
 20
92.68
 10
388.0
 20
91.0
 10
386.5
 20
92.68
  0
LWPOLYLINE
  5
7F
330
12
100
AcDbEntity
  8
0
100
AcDbPolyline
 90
     2
 10
389.49
 20
95.76
 10
388.21
 20
95.76
  0
LWPOLYLINE
  5
80
330
12
100
AcDbEntity
  8
0
100
AcDbPolyline
 90
     2
 10
387.79
 20
96.95
 10
386.52
 20
96.95
  0
LWPOLYLINE
  5
81
330
12
100
AcDbEntity
  8
0
100
AcDbPolyline
 90
     2
 10
387.79
 20
94.58
 10
386.52
 20
94.58
  0
LWPOLYLINE
  5
82
330
12
100
AcDbEntity
  8
0
100
AcDbPolyline
 90
     2
 10
388.0
 20
98.84
 10
388.0
 20
105.0
  0
MTEXT
  5
83
330
12
100
AcDbEntity
  8
2-order-items
100
AcDbMText
 10
394.93
 20
100.76
 30
0.0
 40
2.064
 41
0.0
 71
     5
 72
     1
  1
\L4
 50
0.0
  0
MTEXT
  5
84
330
12
100
AcDbEntity
  8
2-order-items
100
AcDbMText
 10
356.0
 20
98.76
 30
0.0
 40
2.064
 41
0.0
 71
     4
 72
     1
  1
4: AN15-02
 50
0.0
  0
LWPOLYLINE
  5
85
330
12
100
AcDbEntity
  8
0
100
AcDbPolyline
 90
     2
 10
100.0
 20
117.0
 10
128.0
 20
117.0
  0
LWPOLYLINE
  5
86
330
12
100
AcDbEntity
  8
0
100
AcDbPolyline
 90
     2
 10
100.0
 20
113.0
 10
131.0
 20
113.0
  0
LWPOLYLINE
  5
87
330
12
100
AcDbEntity
  8
0
100
AcDbPolyline
 90
     3
 10
100.0
 20
109.0
 10
131.83
 20
109.0
 10
163.0
 20
109.0
  0
LWPOLYLINE
  5
88
330
12
100
AcDbEntity
  8
0
100
AcDbPolyline
 90
     2
 10
132.0
 20
125.0
 10
132.0
 20
109.0
  0
LWPOLYLINE
  5
89
330
12
100
AcDbEntity
  8
0
100
AcDbPolyline
 90
     2
 10
129.0
 20
125.0
 10
129.0
 20
113.0
  0
LWPOLYLINE
  5
8A
330
12
100
AcDbEntity
  8
0
100
AcDbPolyline
 90
     2
 10
126.0
 20
125.0
 10
126.0
 20
117.0
  0
CIRCLE
  5
8B
330
12
100
AcDbEntity
  8
0
100
AcDbCircle
 10
129.0
 20
113.0
 30
0.0
 40
0.49999999
  0
CIRCLE
  5
8C
330
12
100
AcDbEntity
  8
0
100
AcDbCircle
 10
132.0
 20
109.0
 30
0.0
 40
0.49999999
  0
CIRCLE
  5
8D
330
12
100
AcDbEntity
  8
0
100
AcDbCircle
 10
126.0
 20
117.0
 30
0.0
 40
0.49999999
  0
SPLINE
  5
8E
330
12
100
AcDbEntity
  8
0
100
AcDbSpline
210
0.0
220
0.0
230
1.0
 70
    12
 71
     3
 72
     8
 73
     4
 40
0.0
 40
0.0
 40
0.0
 40
0.0
 40
1.0
 40
1.0
 40
1.0
 40
1.0
 10
128.01
 20
116.99
 30
0.0
 41
1.0
 10
128.01
 20
117.56
 30
0.0
 41
1.0
 10
128.44
 20
117.99
 30
0.0
 41
1.0
 10
129.01
 20
117.99
 30
0.0
 41
1.0
  0
SPLINE
  5
8F
330
12
100
AcDbEntity
  8
0
100
AcDbSpline
210
0.0
220
0.0
230
1.0
 70
    12
 71
     3
 72
     8
 73
     4
 40
0.0
 40
0.0
 40
0.0
 40
0.0
 40
1.0
 40
1.0
 40
1.0
 40
1.0
 10
129.01
 20
117.99
 30
0.0
 41
1.0
 10
129.58
 20
117.99
 30
0.0
 41
1.0
 10
130.01
 20
117.56
 30
0.0
 41
1.0
 10
130.01
 20
116.99
 30
0.0
 41
1.0
  0
SPLINE
  5
90
330
12
100
AcDbEntity
  8
0
100
AcDbSpline
210
0.0
220
0.0
230
1.0
 70
    12
 71
     3
 72
     8
 73
     4
 40
0.0
 40
0.0
 40
0.0
 40
0.0
 40
1.0
 40
1.0
 40
1.0
 40
1.0
 10
131.01
 20
112.99
 30
0.0
 41
1.0
 10
131.01
 20
113.56
 30
0.0
 41
1.0
 10
131.44
 20
113.99
 30
0.0
 41
1.0
 10
132.01
 20
113.99
 30
0.0
 41
1.0
  0
SPLINE
  5
91
330
12
100
AcDbEntity
  8
0
100
AcDbSpline
210
0.0
220
0.0
230
1.0
 70
    12
 71
     3
 72
     8
 73
     4
 40
0.0
 40
0.0
 40
0.0
 40
0.0
 40
1.0
 40
1.0
 40
1.0
 40
1.0
 10
132.01
 20
113.99
 30
0.0
 41
1.0
 10
132.58
 20
113.99
 30
0.0
 41
1.0
 10
133.01
 20
113.56
 30
0.0
 41
1.0
 10
133.01
 20
112.99
 30
0.0
 41
1.0
  0
SPLINE
  5
92
330
12
100
AcDbEntity
  8
0
100
AcDbSpline
210
0.0
220
0.0
230
1.0
 70
    12
 71
     3
 72
     8
 73
     4
 40
0.0
 40
0.0
 40
0.0
 40
0.0
 40
1.0
 40
1.0
 40
1.0
 40
1.0
 10
131.01
 20
116.99
 30
0.0
 41
1.0
 10
131.01
 20
117.56
 30
0.0
 41
1.0
 10
131.44
 20
117.99
 30
0.0
 41
1.0
 10
132.01
 20
117.99
 30
0.0
 41
1.0
  0
SPLINE
  5
93
330
12
100
AcDbEntity
  8
0
100
AcDbSpline
210
0.0
220
0.0
230
1.0
 70
    12
 71
     3
 72
     8
 73
     4
 40
0.0
 40
0.0
 40
0.0
 40
0.0
 40
1.0
 40
1.0
 40
1.0
 40
1.0
 10
132.01
 20
117.99
 30
0.0
 41
1.0
 10
132.58
 20
117.99
 30
0.0
 41
1.0
 10
133.01
 20
117.56
 30
0.0
 41
1.0
 10
133.01
 20
116.99
 30
0.0
 41
1.0
  0
LWPOLYLINE
  5
94
330
12
100
AcDbEntity
  8
0
100
AcDbPolyline
 90
     2
 10
130.0
 20
117.0
 10
131.0
 20
117.0
  0
LWPOLYLINE
  5
95
330
12
100
AcDbEntity
  8
0
100
AcDbPolyline
 90
     2
 10
133.0
 20
117.0
 10
163.0
 20
117.0
  0
LWPOLYLINE
  5
96
330
12
100
AcDbEntity
  8
0
100
AcDbPolyline
 90
     2
 10
133.0
 20
113.0
 10
163.0
 20
113.0
  0
LWPOLYLINE
  5
97
330
12
100
AcDbEntity
  8
0
100
AcDbPolyline
 90
     2
 10
38.0
 20
113.0
 10
68.0
 20
113.0
  0
LWPOLYLINE
  5
98
330
12
100
AcDbEntity
  8
0
100
AcDbPolyline
 90
     2
 10
66.0
 20
125.0
 10
66.0
 20
113.0
  0
CIRCLE
  5
99
330
12
100
AcDbEntity
  8
0
100
AcDbCircle
 10
66.0
 20
113.0
 30
0.0
 40
0.49999999
  0
SPLINE
  5
9A
330
12
100
AcDbEntity
  8
0
100
AcDbSpline
210
0.0
220
0.0
230
1.0
 70
    12
 71
     3
 72
     8
 73
     4
 40
0.0
 40
0.0
 40
0.0
 40
0.0
 40
1.0
 40
1.0
 40
1.0
 40
1.0
 10
65.01
 20
116.99
 30
0.0
 41
1.0
 10
65.01
 20
117.56
 30
0.0
 41
1.0
 10
65.44
 20
117.99
 30
0.0
 41
1.0
 10
66.01
 20
117.99
 30
0.0
 41
1.0
  0
SPLINE
  5
9B
330
12
100
AcDbEntity
  8
0
100
AcDbSpline
210
0.0
220
0.0
230
1.0
 70
    12
 71
     3
 72
     8
 73
     4
 40
0.0
 40
0.0
 40
0.0
 40
0.0
 40
1.0
 40
1.0
 40
1.0
 40
1.0
 10
66.01
 20
117.99
 30
0.0
 41
1.0
 10
66.58
 20
117.99
 30
0.0
 41
1.0
 10
67.01
 20
117.56
 30
0.0
 41
1.0
 10
67.01
 20
116.99
 30
0.0
 41
1.0
  0
SPLINE
  5
9C
330
12
100
AcDbEntity
  8
0
100
AcDbSpline
210
0.0
220
0.0
230
1.0
 70
    12
 71
     3
 72
     8
 73
     4
 40
0.0
 40
0.0
 40
0.0
 40
0.0
 40
1.0
 40
1.0
 40
1.0
 40
1.0
 10
68.01
 20
113.01
 30
0.0
 41
1.0
 10
68.01
 20
113.58
 30
0.0
 41
1.0
 10
68.44
 20
114.01
 30
0.0
 41
1.0
 10
69.01
 20
114.01
 30
0.0
 41
1.0
  0
SPLINE
  5
9D
330
12
100
AcDbEntity
  8
0
100
AcDbSpline
210
0.0
220
0.0
230
1.0
 70
    12
 71
     3
 72
     8
 73
     4
 40
0.0
 40
0.0
 40
0.0
 40
0.0
 40
1.0
 40
1.0
 40
1.0
 40
1.0
 10
69.01
 20
114.01
 30
0.0
 41
1.0
 10
69.58
 20
114.01
 30
0.0
 41
1.0
 10
70.01
 20
113.58
 30
0.0
 41
1.0
 10
70.01
 20
113.01
 30
0.0
 41
1.0
  0
SPLINE
  5
9E
330
12
100
AcDbEntity
  8
0
100
AcDbSpline
210
0.0
220
0.0
230
1.0
 70
    12
 71
     3
 72
     8
 73
     4
 40
0.0
 40
0.0
 40
0.0
 40
0.0
 40
1.0
 40
1.0
 40
1.0
 40
1.0
 10
68.01
 20
116.99
 30
0.0
 41
1.0
 10
68.01
 20
117.56
 30
0.0
 41
1.0
 10
68.44
 20
117.99
 30
0.0
 41
1.0
 10
69.01
 20
117.99
 30
0.0
 41
1.0
  0
SPLINE
  5
9F
330
12
100
AcDbEntity
  8
0
100
AcDbSpline
210
0.0
220
0.0
230
1.0
 70
    12
 71
     3
 72
     8
 73
     4
 40
0.0
 40
0.0
 40
0.0
 40
0.0
 40
1.0
 40
1.0
 40
1.0
 40
1.0
 10
69.01
 20
117.99
 30
0.0
 41
1.0
 10
69.58
 20
117.99
 30
0.0
 41
1.0
 10
70.01
 20
117.56
 30
0.0
 41
1.0
 10
70.01
 20
116.99
 30
0.0
 41
1.0
  0
LWPOLYLINE
  5
A0
330
12
100
AcDbEntity
  8
0
100
AcDbPolyline
 90
     2
 10
67.0
 20
117.0
 10
68.0
 20
117.0
  0
LWPOLYLINE
  5
A1
330
12
100
AcDbEntity
  8
0
100
AcDbPolyline
 90
     2
 10
70.0
 20
117.0
 10
100.0
 20
117.0
  0
LWPOLYLINE
  5
A2
330
12
100
AcDbEntity
  8
0
100
AcDbPolyline
 90
     2
 10
70.0
 20
113.0
 10
100.0
 20
113.0
  0
LWPOLYLINE
  5
A3
330
12
100
AcDbEntity
  8
0
100
AcDbPolyline
 90
     3
 10
65.0
 20
117.0
 10
63.0
 20
117.0
 10
63.0
 20
125.0
  0
LWPOLYLINE
  5
A4
330
12
100
AcDbEntity
  8
0
100
AcDbPolyline
 90
     3
 10
69.0
 20
125.0
 10
69.0
 20
109.0
 10
100.0
 20
109.0
  0
LWPOLYLINE
  5
A5
330
12
100
AcDbEntity
  8
0
100
AcDbPolyline
 90
     2
 10
63.0
 20
122.0
 10
63.0
 20
122.0
  0
LWPOLYLINE
  5
A6
330
12
100
AcDbEntity
  8
0
100
AcDbPolyline
 90
     2
 10
352.0
 20
117.0
 10
380.0
 20
117.0
  0
LWPOLYLINE
  5
A7
330
12
100
AcDbEntity
  8
0
100
AcDbPolyline
 90
     3
 10
352.0
 20
109.0
 10
383.83
 20
109.0
 10
388.0
 20
109.0
  0
LWPOLYLINE
  5
A8
330
12
100
AcDbEntity
  8
0
100
AcDbPolyline
 90
     2
 10
384.0
 20
125.0
 10
384.0
 20
109.0
  0
LWPOLYLINE
  5
A9
330
12
100
AcDbEntity
  8
0
100
AcDbPolyline
 90
     2
 10
378.0
 20
125.0
 10
378.0
 20
117.0
  0
CIRCLE
  5
AA
330
12
100
AcDbEntity
  8
0
100
AcDbCircle
 10
384.0
 20
109.0
 30
0.0
 40
0.49999999
  0
CIRCLE
  5
AB
330
12
100
AcDbEntity
  8
0
100
AcDbCircle
 10
378.0
 20
117.0
 30
0.0
 40
0.49999999
  0
SPLINE
  5
AC
330
12
100
AcDbEntity
  8
0
100
AcDbSpline
210
0.0
220
0.0
230
1.0
 70
    12
 71
     3
 72
     8
 73
     4
 40
0.0
 40
0.0
 40
0.0
 40
0.0
 40
1.0
 40
1.0
 40
1.0
 40
1.0
 10
380.01
 20
116.99
 30
0.0
 41
1.0
 10
380.01
 20
117.56
 30
0.0
 41
1.0
 10
380.44
 20
117.99
 30
0.0
 41
1.0
 10
381.01
 20
117.99
 30
0.0
 41
1.0
  0
SPLINE
  5
AD
330
12
100
AcDbEntity
  8
0
100
AcDbSpline
210
0.0
220
0.0
230
1.0
 70
    12
 71
     3
 72
     8
 73
     4
 40
0.0
 40
0.0
 40
0.0
 40
0.0
 40
1.0
 40
1.0
 40
1.0
 40
1.0
 10
381.01
 20
117.99
 30
0.0
 41
1.0
 10
381.58
 20
117.99
 30
0.0
 41
1.0
 10
382.01
 20
117.56
 30
0.0
 41
1.0
 10
382.01
 20
116.99
 30
0.0
 41
1.0
  0
SPLINE
  5
AE
330
12
100
AcDbEntity
  8
0
100
AcDbSpline
210
0.0
220
0.0
230
1.0
 70
    12
 71
     3
 72
     8
 73
     4
 40
0.0
 40
0.0
 40
0.0
 40
0.0
 40
1.0
 40
1.0
 40
1.0
 40
1.0
 10
383.01
 20
116.99
 30
0.0
 41
1.0
 10
383.01
 20
117.56
 30
0.0
 41
1.0
 10
383.44
 20
117.99
 30
0.0
 41
1.0
 10
384.01
 20
117.99
 30
0.0
 41
1.0
  0
SPLINE
  5
AF
330
12
100
AcDbEntity
  8
0
100
AcDbSpline
210
0.0
220
0.0
230
1.0
 70
    12
 71
     3
 72
     8
 73
     4
 40
0.0
 40
0.0
 40
0.0
 40
0.0
 40
1.0
 40
1.0
 40
1.0
 40
1.0
 10
384.01
 20
117.99
 30
0.0
 41
1.0
 10
384.58
 20
117.99
 30
0.0
 41
1.0
 10
385.01
 20
117.56
 30
0.0
 41
1.0
 10
385.01
 20
116.99
 30
0.0
 41
1.0
  0
LWPOLYLINE
  5
B0
330
12
100
AcDbEntity
  8
0
100
AcDbPolyline
 90
     2
 10
382.0
 20
117.0
 10
383.0
 20
117.0
  0
LWPOLYLINE
  5
B1
330
12
100
AcDbEntity
  8
0
100
AcDbPolyline
 90
     3
 10
381.0
 20
125.0
 10
381.0
 20
113.0
 10
352.0
 20
113.0
  0
LWPOLYLINE
  5
B2
330
12
100
AcDbEntity
  8
0
100
AcDbPolyline
 90
     3
 10
385.0
 20
117.0
 10
388.0
 20
117.0
 10
388.0
 20
105.0
  0
CIRCLE
  5
B3
330
12
100
AcDbEntity
  8
0
100
AcDbCircle
 10
388.0
 20
109.0
 30
0.0
 40
0.49999999
  0
LWPOLYLINE
  5
B4
330
12
100
AcDbEntity
  8
0
100
AcDbPolyline
 90
     2
 10
226.0
 20
117.0
 10
254.0
 20
117.0
  0
LWPOLYLINE
  5
B5
330
12
100
AcDbEntity
  8
0
100
AcDbPolyline
 90
     2
 10
226.0
 20
113.0
 10
257.0
 20
113.0
  0
LWPOLYLINE
  5
B6
330
12
100
AcDbEntity
  8
0
100
AcDbPolyline
 90
     3
 10
226.0
 20
109.0
 10
257.83
 20
109.0
 10
289.0
 20
109.0
  0
LWPOLYLINE
  5
B7
330
12
100
AcDbEntity
  8
0
100
AcDbPolyline
 90
     2
 10
258.0
 20
125.0
 10
258.0
 20
109.0
  0
LWPOLYLINE
  5
B8
330
12
100
AcDbEntity
  8
0
100
AcDbPolyline
 90
     2
 10
255.0
 20
125.0
 10
255.0
 20
113.0
  0
LWPOLYLINE
  5
B9
330
12
100
AcDbEntity
  8
0
100
AcDbPolyline
 90
     2
 10
252.0
 20
125.0
 10
252.0
 20
117.0
  0
CIRCLE
  5
BA
330
12
100
AcDbEntity
  8
0
100
AcDbCircle
 10
255.0
 20
113.0
 30
0.0
 40
0.49999999
  0
CIRCLE
  5
BB
330
12
100
AcDbEntity
  8
0
100
AcDbCircle
 10
258.0
 20
109.0
 30
0.0
 40
0.49999999
  0
CIRCLE
  5
BC
330
12
100
AcDbEntity
  8
0
100
AcDbCircle
 10
252.0
 20
117.0
 30
0.0
 40
0.49999999
  0
SPLINE
  5
BD
330
12
100
AcDbEntity
  8
0
100
AcDbSpline
210
0.0
220
0.0
230
1.0
 70
    12
 71
     3
 72
     8
 73
     4
 40
0.0
 40
0.0
 40
0.0
 40
0.0
 40
1.0
 40
1.0
 40
1.0
 40
1.0
 10
254.01
 20
116.99
 30
0.0
 41
1.0
 10
254.01
 20
117.56
 30
0.0
 41
1.0
 10
254.44
 20
117.99
 30
0.0
 41
1.0
 10
255.01
 20
117.99
 30
0.0
 41
1.0
  0
SPLINE
  5
BE
330
12
100
AcDbEntity
  8
0
100
AcDbSpline
210
0.0
220
0.0
230
1.0
 70
    12
 71
     3
 72
     8
 73
     4
 40
0.0
 40
0.0
 40
0.0
 40
0.0
 40
1.0
 40
1.0
 40
1.0
 40
1.0
 10
255.01
 20
117.99
 30
0.0
 41
1.0
 10
255.58
 20
117.99
 30
0.0
 41
1.0
 10
256.01
 20
117.56
 30
0.0
 41
1.0
 10
256.01
 20
116.99
 30
0.0
 41
1.0
  0
SPLINE
  5
BF
330
12
100
AcDbEntity
  8
0
100
AcDbSpline
210
0.0
220
0.0
230
1.0
 70
    12
 71
     3
 72
     8
 73
     4
 40
0.0
 40
0.0
 40
0.0
 40
0.0
 40
1.0
 40
1.0
 40
1.0
 40
1.0
 10
257.01
 20
112.99
 30
0.0
 41
1.0
 10
257.01
 20
113.56
 30
0.0
 41
1.0
 10
257.44
 20
113.99
 30
0.0
 41
1.0
 10
258.01
 20
113.99
 30
0.0
 41
1.0
  0
SPLINE
  5
C0
330
12
100
AcDbEntity
  8
0
100
AcDbSpline
210
0.0
220
0.0
230
1.0
 70
    12
 71
     3
 72
     8
 73
     4
 40
0.0
 40
0.0
 40
0.0
 40
0.0
 40
1.0
 40
1.0
 40
1.0
 40
1.0
 10
258.01
 20
113.99
 30
0.0
 41
1.0
 10
258.58
 20
113.99
 30
0.0
 41
1.0
 10
259.01
 20
113.56
 30
0.0
 41
1.0
 10
259.01
 20
112.99
 30
0.0
 41
1.0
  0
SPLINE
  5
C1
330
12
100
AcDbEntity
  8
0
100
AcDbSpline
210
0.0
220
0.0
230
1.0
 70
    12
 71
     3
 72
     8
 73
     4
 40
0.0
 40
0.0
 40
0.0
 40
0.0
 40
1.0
 40
1.0
 40
1.0
 40
1.0
 10
257.01
 20
116.99
 30
0.0
 41
1.0
 10
257.01
 20
117.56
 30
0.0
 41
1.0
 10
257.44
 20
117.99
 30
0.0
 41
1.0
 10
258.01
 20
117.99
 30
0.0
 41
1.0
  0
SPLINE
  5
C2
330
12
100
AcDbEntity
  8
0
100
AcDbSpline
210
0.0
220
0.0
230
1.0
 70
    12
 71
     3
 72
     8
 73
     4
 40
0.0
 40
0.0
 40
0.0
 40
0.0
 40
1.0
 40
1.0
 40
1.0
 40
1.0
 10
258.01
 20
117.99
 30
0.0
 41
1.0
 10
258.58
 20
117.99
 30
0.0
 41
1.0
 10
259.01
 20
117.56
 30
0.0
 41
1.0
 10
259.01
 20
116.99
 30
0.0
 41
1.0
  0
LWPOLYLINE
  5
C3
330
12
100
AcDbEntity
  8
0
100
AcDbPolyline
 90
     2
 10
256.0
 20
117.0
 10
257.0
 20
117.0
  0
LWPOLYLINE
  5
C4
330
12
100
AcDbEntity
  8
0
100
AcDbPolyline
 90
     2
 10
259.0
 20
117.0
 10
289.0
 20
117.0
  0
LWPOLYLINE
  5
C5
330
12
100
AcDbEntity
  8
0
100
AcDbPolyline
 90
     2
 10
259.0
 20
113.0
 10
289.0
 20
113.0
  0
LWPOLYLINE
  5
C6
330
12
100
AcDbEntity
  8
0
100
AcDbPolyline
 90
     2
 10
358.0
 20
112.0
 10
360.0
 20
110.0
  0
LWPOLYLINE
  5
C7
330
12
100
AcDbEntity
  8
0
100
AcDbPolyline
 90
     2
 10
358.0
 20
110.0
 10
360.0
 20
112.0
  0
LWPOLYLINE
  5
C8
330
12
100
AcDbEntity
  8
0
100
AcDbPolyline
 90
     2
 10
382.0
 20
113.0
 10
392.0
 20
113.0
  0
MTEXT
  5
C9
330
12
100
AcDbEntity
  8
2-order-items
100
AcDbMText
 10
104.8
 20
128.25
 30
0.0
 40
2.064
 41
0.0
 71
     5
 72
     1
  1
\L5
 50
0.0
  0
LWPOLYLINE
  5
CA
330
12
100
AcDbEntity
  8
0
100
AcDbPolyline
 90
     5
 70
     1
 10
54.07
 20
53.86
 10
54.07
 20
60.86
 10
51.07
 20
59.86
 10
51.07
 20
53.86
 10
51.07
 20
53.86
  0
LWPOLYLINE
  5
CB
330
12
100
AcDbEntity
  8
0
100
AcDbPolyline
 90
     4
 70
     1
 10
60.0
 20
44.0
 10
60.0
 20
34.0
 10
50.0
 20
34.0
 10
50.0
 20
44.0
  0
LWPOLYLINE
  5
CC
330
12
100
AcDbEntity
  8
0
100
AcDbPolyline
 90
     4
 70
     1
 10
60.0
 20
54.0
 10
60.0
 20
44.0
 10
50.0
 20
44.0
 10
50.0
 20
54.0
  0
LWPOLYLINE
  5
CD
330
12
100
AcDbEntity
  8
0
100
AcDbPolyline
 90
     2
 10
50.0
 20
51.0
 10
60.0
 20
51.0
  0
LWPOLYLINE
  5
CE
330
12
100
AcDbEntity
  8
0
100
AcDbPolyline
 90
     3
 70
     1
 10
60.0
 20
51.0
 10
57.6
 20
51.6
 10
57.6
 20
50.4
  0
LWPOLYLINE
  5
CF
330
12
100
AcDbEntity
  8
0
100
AcDbPolyline
 90
     2
 10
52.0
 20
48.0
 10
52.0
 20
46.0
  0
LWPOLYLINE
  5
D0
330
12
100
AcDbEntity
  8
0
100
AcDbPolyline
 90
     2
 10
50.0
 20
47.0
 10
52.0
 20
47.0
  0
LWPOLYLINE
  5
D1
330
12
100
AcDbEntity
  8
0
100
AcDbPolyline
 90
     2
 10
52.0
 20
42.0
 10
52.0
 20
40.0
  0
LWPOLYLINE
  5
D2
330
12
100
AcDbEntity
  8
0
100
AcDbPolyline
 90
     2
 10
50.0
 20
41.0
 10
52.0
 20
41.0
  0
LWPOLYLINE
  5
D3
330
12
100
AcDbEntity
  8
0
100
AcDbPolyline
 90
     2
 10
60.0
 20
41.0
 10
50.0
 20
37.0
  0
LWPOLYLINE
  5
D4
330
12
100
AcDbEntity
  8
0
100
AcDbPolyline
 90
     3
 70
     1
 10
50.0
 20
37.0
 10
52.45
 20
37.33
 10
52.01
 20
38.45
  0
MTEXT
  5
D5
330
12
100
AcDbEntity
  8
1-texts
100
AcDbMText
 10
62.0
 20
43.0
 30
0.0
 40
1.59
 41
0.0
 71
     5
 72
     1
  1
2
 50
-90.0
  0
MTEXT
  5
D6
330
12
100
AcDbEntity
  8
1-texts
100
AcDbMText
 10
48.0
 20
43.0
 30
0.0
 40
1.59
 41
0.0
 71
     5
 72
     1
  1
1
 50
-90.0
  0
LWPOLYLINE
  5
D7
330
12
100
AcDbEntity
  8
0
100
AcDbPolyline
 90
    11
 70
     1
 10
54.0
 20
34.0
 10
54.0
 20
32.0
 10
53.0
 20
31.0
 10
54.0
 20
30.0
 10
54.0
 20
29.0
 10
53.0
 20
28.0
 10
54.0
 20
27.0
 10
54.0
 20
26.0
 10
51.0
 20
26.0
 10
51.0
 20
34.0
 10
51.0
 20
34.0
  0
LWPOLYLINE
  5
D8
330
12
100
AcDbEntity
  8
0
100
AcDbPolyline
 90
     2
 10
55.0
 20
28.0
 10
57.0
 20
28.0
  0
MTEXT
  5
D9
330
12
100
AcDbEntity
  8
1-texts
100
AcDbMText
 10
48.0
 20
35.0
 30
0.0
 40
1.59
 41
0.0
 71
     5
 72
     1
  1
3
 50
-90.0
  0
LWPOLYLINE
  5
DA
330
12
100
AcDbEntity
  8
0
100
AcDbPolyline
 90
    64
 70
     1
 10
57.25670898
 20
61.03352539
 10
57.16080078
 20
61.01273438
 10
57.0633252
 20
61.00147949
 10
56.96521484
 20
60.99986816
 10
56.86742676
 20
61.00791504
 10
56.77088867
 20
61.02554688
 10
56.67654297
 20
61.05259277
 10
56.58528809
 20
61.08878418
 10
56.49800781
 20
61.13378418
 10
56.41554199
 20
61.18715332
 10
56.33868652
 20
61.24837891
 10
56.26817871
 20
61.31687012
 10
56.20470215
 20
61.39196777
 10
56.14885742
 20
61.47294922
 10
56.10119629
 20
61.55903809
 10
56.06216797
 20
61.64939941
 10
56.03215332
 20
61.74316406
 10
56.01144043
 20
61.83942871
 10
56.00022461
 20
61.93727051
 10
55.99861816
 20
62.03574219
 10
56.00664063
 20
62.13390137
 10
56.0242041
 20
62.2307959
 10
56.05114746
 20
62.32549316
 10
56.08720703
 20
62.41708984
 10
56.13204102
 20
62.50469238
 10
56.18520996
 20
62.58746582
 10
56.24620605
 20
62.66460938
 10
56.31444336
 20
62.73538086
 10
56.3892627
 20
62.79909668
 10
56.46994629
 20
62.85514648
 10
56.55571289
 20
62.90298828
 10
56.64573242
 20
62.9421582
 10
56.73915039
 20
62.97228516
 10
56.83505859
 20
62.99307617
 10
56.93253906
 20
63.00433105
 10
57.03064453
 20
63.00594238
 10
57.1284375
 20
62.99789551
 10
57.2249707
 20
62.98026367
 10
57.31932129
 20
62.95322266
 10
57.41057129
 20
62.91702637
 10
57.49785156
 20
62.87202637
 10
57.58031738
 20
62.81865723
 10
57.65717285
 20
62.75743164
 10
57.72768066
 20
62.68894043
 10
57.79116211
 20
62.61384277
 10
57.84700195
 20
62.53286133
 10
57.89466309
 20
62.44677734
 10
57.93369141
 20
62.35641602
 10
57.96370605
 20
62.26265137
 10
57.98441895
 20
62.16638184
 10
57.99563477
 20
62.06854492
 10
57.99724121
 20
61.97006836
 10
57.98921875
 20
61.87191406
 10
57.97165527
 20
61.77501953
 10
57.94471191
 20
61.68031738
 10
57.90865234
 20
61.58872559
 10
57.86382324
 20
61.50111816
 10
57.81064941
 20
61.41834473
 10
57.74965332
 20
61.34120117
 10
57.68141602
 20
61.27043457
 10
57.60659668
 20
61.20671387
 10
57.52591797
 20
61.15066895
 10
57.44015137
 20
61.10282715
 10
57.35012695
 20
61.06365234
  0
LWPOLYLINE
  5
DB
330
12
100
AcDbEntity
  8
0
100
AcDbPolyline
 90
     2
 10
56.04
 20
61.47
 10
50.28
 20
59.57
  0
LWPOLYLINE
  5
DC
330
12
100
AcDbEntity
  8
0
100
AcDbPolyline
 90
     4
 70
     1
 10
43.84
 20
35.51
 10
37.68
 20
35.51
 10
37.68
 20
38.48
 10
43.84
 20
38.48
  0
LWPOLYLINE
  5
DD
330
12
100
AcDbEntity
  8
0
100
AcDbPolyline
 90
     3
 10
37.68
 20
35.5
 10
36.0
 20
37.0
 10
37.68
 20
38.5
  0
LWPOLYLINE
  5
DE
330
12
100
AcDbEntity
  8
0
100
AcDbPolyline
 90
     2
 10
40.76
 20
35.51
 10
40.76
 20
36.79
  0
LWPOLYLINE
  5
DF
330
12
100
AcDbEntity
  8
0
100
AcDbPolyline
 90
     2
 10
41.95
 20
37.21
 10
41.95
 20
38.48
  0
LWPOLYLINE
  5
E0
330
12
100
AcDbEntity
  8
0
100
AcDbPolyline
 90
     2
 10
39.58
 20
37.21
 10
39.58
 20
38.48
  0
LWPOLYLINE
  5
E1
330
12
100
AcDbEntity
  8
0
100
AcDbPolyline
 90
     2
 10
43.84
 20
37.0
 10
50.0
 20
37.0
  0
CIRCLE
  5
E2
330
12
100
AcDbEntity
  8
0
100
AcDbCircle
 10
106.0
 20
48.5
 30
0.0
 40
3.49999986
  0
LWPOLYLINE
  5
E3
330
12
100
AcDbEntity
  8
0
100
AcDbPolyline
 90
     2
 10
108.72
 20
46.55
 10
103.28
 20
50.44
  0
LWPOLYLINE
  5
E4
330
12
100
AcDbEntity
  8
0
100
AcDbPolyline
 90
     3
 70
     1
 10
103.28
 20
50.44
 10
104.88
 20
48.56
 10
105.58
 20
49.53
  0
LWPOLYLINE
  5
E5
330
12
100
AcDbEntity
  8
0
100
AcDbPolyline
 90
     2
 10
106.0
 20
45.0
 10
106.0
 20
41.0
  0
LWPOLYLINE
  5
E6
330
12
100
AcDbEntity
  8
0
  6
DASHDOT
100
AcDbPolyline
 90
     4
 70
     1
 10
64.0
 20
60.0
 10
112.0
 20
60.0
 10
112.0
 20
26.0
 10
64.0
 20
26.0
  0
LWPOLYLINE
  5
E7
330
12
100
AcDbEntity
  8
0
100
AcDbPolyline
 90
     4
 70
     1
 10
87.27
 20
48.0
 10
97.27
 20
48.0
 10
97.27
 20
38.0
 10
87.27
 20
38.0
  0
LWPOLYLINE
  5
E8
330
12
100
AcDbEntity
  8
0
100
AcDbPolyline
 90
     2
 10
87.27
 20
41.0
 10
95.27
 20
41.0
  0
LWPOLYLINE
  5
E9
330
12
100
AcDbEntity
  8
0
100
AcDbPolyline
 90
     3
 70
     1
 10
87.27
 20
41.0
 10
89.67
 20
40.4
 10
89.67
 20
41.6
  0
LWPOLYLINE
  5
EA
330
12
100
AcDbEntity
  8
0
100
AcDbPolyline
 90
     3
 70
     1
 10
95.27
 20
41.0
 10
92.87
 20
41.6
 10
92.87
 20
40.4
  0
LWPOLYLINE
  5
EB
330
12
100
AcDbEntity
  8
0
100
AcDbPolyline
 90
     2
 10
95.27
 20
42.0
 10
95.27
 20
40.0
  0
LWPOLYLINE
  5
EC
330
12
100
AcDbEntity
  8
0
100
AcDbPolyline
 90
     2
 10
97.27
 20
41.0
 10
116.0
 20
41.0
  0
LWPOLYLINE
  5
ED
330
12
100
AcDbEntity
  8
0
100
AcDbPolyline
 90
     2
 10
92.27
 20
48.57
 10
93.77
 20
48.0
  0
LWPOLYLINE
  5
EE
330
12
100
AcDbEntity
  8
0
100
AcDbPolyline
 90
     2
 10
92.27
 20
48.57
 10
95.27
 20
49.14
  0
LWPOLYLINE
  5
EF
330
12
100
AcDbEntity
  8
0
100
AcDbPolyline
 90
     2
 10
95.27
 20
49.14
 10
92.27
 20
49.71
  0
LWPOLYLINE
  5
F0
330
12
100
AcDbEntity
  8
0
100
AcDbPolyline
 90
     2
 10
92.27
 20
49.71
 10
95.27
 20
50.29
  0
LWPOLYLINE
  5
F1
330
12
100
AcDbEntity
  8
0
100
AcDbPolyline
 90
     2
 10
95.27
 20
50.29
 10
92.27
 20
50.86
  0
LWPOLYLINE
  5
F2
330
12
100
AcDbEntity
  8
0
100
AcDbPolyline
 90
     2
 10
92.27
 20
50.86
 10
95.27
 20
51.43
  0
LWPOLYLINE
  5
F3
330
12
100
AcDbEntity
  8
0
100
AcDbPolyline
 90
     2
 10
95.27
 20
51.43
 10
93.77
 20
52.0
  0
LWPOLYLINE
  5
F4
330
12
100
AcDbEntity
  8
0
100
AcDbPolyline
 90
     2
 10
90.27
 20
48.0
 10
98.27
 20
53.0
  0
LWPOLYLINE
  5
F5
330
12
100
AcDbEntity
  8
0
100
AcDbPolyline
 90
     3
 70
     1
 10
98.27
 20
53.0
 10
95.92
 20
52.24
 10
96.55
 20
51.22
  0
LWPOLYLINE
  5
F6
330
12
100
AcDbEntity
  8
0
100
AcDbPolyline
 90
     3
 70
     1
 10
87.27
 20
44.2
 10
87.27
 20
47.4
 10
85.27
 20
45.8
  0
LWPOLYLINE
  5
F7
330
12
100
AcDbEntity
  8
0
100
AcDbPolyline
 90
     4
 70
     1
 10
73.02
 20
48.13
 10
80.09
 20
41.06
 10
73.02
 20
33.99
 10
65.95
 20
41.06
  0
LWPOLYLINE
  5
F8
330
12
100
AcDbEntity
  8
0
100
AcDbPolyline
 90
     2
 10
60.0
 20
41.0
 10
65.95
 20
41.06
  0
LWPOLYLINE
  5
F9
330
12
100
AcDbEntity
  8
0
  6
DOT
100
AcDbPolyline
 90
     2
 10
73.05
 20
48.13
 10
72.99
 20
37.13
  0
LWPOLYLINE
  5
FA
330
12
100
AcDbEntity
  8
0
100
AcDbPolyline
 90
     2
 10
69.95
 20
37.13
 10
75.95
 20
37.13
  0
LWPOLYLINE
  5
FB
330
12
100
AcDbEntity
  8
0
100
AcDbPolyline
 90
     2
 10
73.02
 20
34.13
 10
73.02
 20
30.13
  0
LWPOLYLINE
  5
FC
330
12
100
AcDbEntity
  8
0
  6
DOT
100
AcDbPolyline
 90
     8
 10
92.38
 20
38.0
 10
92.38
 20
34.0
 10
106.0
 20
34.0
 10
106.0
 20
41.0
 10
101.38
 20
41.0
 10
101.38
 20
41.0
 10
101.38
 20
41.0
 10
101.38
 20
41.0
  0
LWPOLYLINE
  5
FD
330
12
100
AcDbEntity
  8
0
100
AcDbPolyline
 90
     2
 10
87.0
 20
41.0
 10
80.0
 20
41.0
  0
MTEXT
  5
FE
330
12
100
AcDbEntity
  8
2-order-items
100
AcDbMText
 10
44.93
 20
62.76
 30
0.0
 40
2.064
 41
0.0
 71
     5
 72
     1
  1
\L1
 50
0.0
  0
MTEXT
  5
FF
330
12
100
AcDbEntity
  8
2-order-items
100
AcDbMText
 10
68.0
 20
64.76
 30
0.0
 40
2.064
 41
0.0
 71
     4
 72
     1
  1
1: AC30-A-4864OFT
 50
0.0
  0
CIRCLE
  5
100
330
12
100
AcDbEntity
  8
0
100
AcDbCircle
 10
27.12
 20
43.88
 30
0.0
 40
3.12499963
  0
CIRCLE
  5
101
330
12
100
AcDbEntity
  8
0
100
AcDbCircle
 10
27.12
 20
43.88
 30
0.0
 40
0.49999999
  0
CIRCLE
  5
102
330
12
100
AcDbEntity
  8
0
100
AcDbCircle
 10
47.0
 20
41.0
 30
0.0
 40
0.99999998
  0
LWPOLYLINE
  5
103
330
12
100
AcDbEntity
  8
0
100
AcDbPolyline
 90
     2
 10
44.0
 20
41.0
 10
50.0
 20
41.0
  0
LWPOLYLINE
  5
104
330
12
100
AcDbEntity
  8
3-links
100
AcDbPolyline
 90
     4
 10
44.0
 20
41.0
 10
35.56
 20
41.0
 10
35.56
 20
43.88
 10
27.12
 20
43.88
  0
LWPOLYLINE
  5
105
330
12
100
AcDbEntity
  8
0
100
AcDbPolyline
 90
     2
 10
116.0
 20
41.0
 10
124.0
 20
41.0
  0
LWPOLYLINE
  5
106
330
12
100
AcDbEntity
  8
0
100
AcDbPolyline
 90
     2
 10
120.0
 20
41.0
 10
120.0
 20
45.0
  0
CIRCLE
  5
107
330
12
100
AcDbEntity
  8
0
100
AcDbCircle
 10
120.0
 20
41.0
 30
0.0
 40
0.5
  0
MTEXT
  5
108
330
12
100
AcDbEntity
  8
2-order-items
100
AcDbMText
 10
120.93
 20
36.76
 30
0.0
 40
2.064
 41
0.0
 71
     5
 72
     1
  1
\L2
 50
0.0
  0
MTEXT
  5
109
330
12
100
AcDbEntity
  8
2-order-items
100
AcDbMText
 10
122.0
 20
34.76
 30
0.0
 40
2.064
 41
0.0
 71
     4
 72
     1
  1
2: KQ2VD08-03AS
 50
0.0
  0
CIRCLE
  5
10A
330
12
100
AcDbEntity
  8
0
100
AcDbCircle
 10
35.0
 20
113.0
 30
0.0
 40
0.99999998
  0
LWPOLYLINE
  5
10B
330
12
100
AcDbEntity
  8
0
100
AcDbPolyline
 90
     2
 10
32.0
 20
113.0
 10
38.0
 20
113.0
  0
MTEXT
  5
10C
330
12
100
AcDbEntity
  8
2-order-items
100
AcDbMText
 10
34.93
 20
118.76
 30
0.0
 40
2.064
 41
0.0
 71
     5
 72
     1
  1
\L3
 50
0.0
  0
MTEXT
  5
10D
330
12
100
AcDbEntity
  8
2-order-items
100
AcDbMText
 10
32.0
 20
108.76
 30
0.0
 40
2.064
 41
0.0
 71
     4
 72
     1
  1
3: KQ2H08-02AS
 50
0.0
  0
LWPOLYLINE
  5
10E
330
12
100
AcDbEntity
  8
3-links
100
AcDbPolyline
 90
     4
 10
32.0
 20
113.0
 10
32.0
 20
87.0
 10
120.0
 20
87.0
 10
120.0
 20
45.0
  0
LWPOLYLINE
  5
10F
330
12
100
AcDbEntity
  8
0
100
AcDbPolyline
 90
     2
 10
391.72
 20
119.05
 10
391.72
 20
113.05
  0
LWPOLYLINE
  5
110
330
12
100
AcDbEntity
  8
0
100
AcDbPolyline
 90
     2
 10
390.22
 20
118.05
 10
393.22
 20
120.05
  0
LWPOLYLINE
  5
111
330
12
100
AcDbEntity
  8
0
100
AcDbPolyline
 90
     2
 10
390.22
 20
120.05
 10
393.22
 20
118.05
  0
MTEXT
  5
112
330
12
100
AcDbEntity
  8
2-order-items
100
AcDbMText
 10
399.15
 20
121.3
 30
0.0
 40
2.064
 41
0.0
 71
     5
 72
     1
  1
\L5
 50
0.0
  0
CIRCLE
  5
113
330
12
100
AcDbEntity
  8
0
100
AcDbCircle
 10
394.72
 20
113.05
 30
0.0
 40
0.99999998
  0
LWPOLYLINE
  5
114
330
12
100
AcDbEntity
  8
0
100
AcDbPolyline
 90
     2
 10
391.72
 20
113.05
 10
397.72
 20
113.05
  0
MTEXT
  5
115
330
12
100
AcDbEntity
  8
2-order-items
100
AcDbMText
 10
394.65
 20
118.81
 30
0.0
 40
2.064
 41
0.0
 71
     5
 72
     1
  1
\L6
 50
0.0
  0
MTEXT
  5
116
330
12
100
AcDbEntity
  8
2-order-items
100
AcDbMText
 10
348.0
 20
90.76
 30
0.0
 40
2.064
 41
0.0
 71
     4
 72
     1
  1
6: KQ2H08-02AS
 50
0.0
  0
LWPOLYLINE
  5
117
330
12
100
AcDbEntity
  8
3-links
100
AcDbPolyline
 90
     6
 10
124.0
 20
41.0
 10
171.0
 20
41.0
 10
171.0
 20
85.0
 10
404.0
 20
85.0
 10
404.0
 20
113.05
 10
397.72
 20
113.05
  0
MTEXT
  5
118
330
12
100
AcDbEntity
  8
2-order-items
100
AcDbMText
 10
167.8
 20
128.25
 30
0.0
 40
2.064
 41
0.0
 71
     5
 72
     1
  1
\L5
 50
0.0
  0
LWPOLYLINE
  5
119
330
12
100
AcDbEntity
  8
0
100
AcDbPolyline
 90
     4
 70
     1
 10
114.0
 20
134.96
 10
124.0
 20
134.96
 10
124.0
 20
124.96
 10
114.0
 20
124.96
  0
MTEXT
  5
11A
330
12
100
AcDbEntity
  8
1-texts
100
AcDbMText
 10
124.0
 20
137.0
 30
0.0
 40
1.59
 41
0.0
 71
     5
 72
     1
  1
4
 50
0.0
  0
LWPOLYLINE
  5
11B
330
12
100
AcDbEntity
  8
0
100
AcDbPolyline
 90
     4
 70
     1
 10
124.0
 20
134.96
 10
134.0
 20
134.96
 10
134.0
 20
124.96
 10
124.0
 20
124.96
  0
MTEXT
  5
11C
330
12
100
AcDbEntity
  8
1-texts
100
AcDbMText
 10
134.0
 20
137.0
 30
0.0
 40
1.59
 41
0.0
 71
     5
 72
     1
  1
2
 50
0.0
  0
MTEXT
  5
11D
330
12
100
AcDbEntity
  8
1-texts
100
AcDbMText
 10
134.0
 20
123.0
 30
0.0
 40
1.59
 41
0.0
 71
     5
 72
     1
  1
3
 50
0.0
  0
LWPOLYLINE
  5
11E
330
12
100
AcDbEntity
  8
0
100
AcDbPolyline
 90
     2
 10
117.0
 20
134.96
 10
119.0
 20
125.0
  0
LWPOLYLINE
  5
11F
330
12
100
AcDbEntity
  8
0
100
AcDbPolyline
 90
     3
 70
     1
 10
117.0
 20
134.96
 10
116.89
 20
132.49
 10
118.06
 20
132.73
  0
LWPOLYLINE
  5
120
330
12
100
AcDbEntity
  8
0
100
AcDbPolyline
 90
     2
 10
122.0
 20
134.96
 10
122.0
 20
124.96
  0
LWPOLYLINE
  5
121
330
12
100
AcDbEntity
  8
0
100
AcDbPolyline
 90
     3
 70
     1
 10
122.0
 20
124.96
 10
122.6
 20
127.36
 10
121.4
 20
127.36
  0
LWPOLYLINE
  5
122
330
12
100
AcDbEntity
  8
0
100
AcDbPolyline
 90
     2
 10
126.0
 20
135.0
 10
126.0
 20
125.0
  0
LWPOLYLINE
  5
123
330
12
100
AcDbEntity
  8
0
100
AcDbPolyline
 90
     3
 70
     1
 10
126.0
 20
125.0
 10
126.6
 20
127.4
 10
125.4
 20
127.4
  0
LWPOLYLINE
  5
124
330
12
100
AcDbEntity
  8
0
100
AcDbPolyline
 90
     2
 10
115.0
 20
127.0
 10
117.0
 20
127.0
  0
LWPOLYLINE
  5
125
330
12
100
AcDbEntity
  8
0
100
AcDbPolyline
 90
     2
 10
116.0
 20
125.0
 10
116.0
 20
127.0
  0
LWPOLYLINE
  5
126
330
12
100
AcDbEntity
  8
0
100
AcDbPolyline
 90
     2
 10
131.0
 20
126.96
 10
133.0
 20
126.96
  0
LWPOLYLINE
  5
127
330
12
100
AcDbEntity
  8
0
100
AcDbPolyline
 90
     2
 10
132.0
 20
124.96
 10
132.0
 20
126.96
  0
LWPOLYLINE
  5
128
330
12
100
AcDbEntity
  8
0
100
AcDbPolyline
 90
     2
 10
129.0
 20
125.0
 10
132.0
 20
135.0
  0
LWPOLYLINE
  5
129
330
12
100
AcDbEntity
  8
0
100
AcDbPolyline
 90
     3
 70
     1
 10
132.0
 20
135.0
 10
130.74
 20
132.87
 10
131.89
 20
132.53
  0
MTEXT
  5
12A
330
12
100
AcDbEntity
  8
1-texts
100
AcDbMText
 10
124.0
 20
123.0
 30
0.0
 40
1.59
 41
0.0
 71
     5
 72
     1
  1
5
 50
0.0
  0
MTEXT
  5
12B
330
12
100
AcDbEntity
  8
1-texts
100
AcDbMText
 10
130.0
 20
123.0
 30
0.0
 40
1.59
 41
0.0
 71
     5
 72
     1
  1
1
 50
0.0
  0
LWPOLYLINE
  5
12C
330
12
100
AcDbEntity
  8
0
100
AcDbPolyline
 90
     4
 70
     1
 10
134.0
 20
129.96
 10
138.0
 20
129.96
 10
138.0
 20
124.96
 10
134.0
 20
124.96
  0
LWPOLYLINE
  5
12D
330
12
100
AcDbEntity
  8
0
100
AcDbPolyline
 90
     3
 10
138.0
 20
129.96
 10
135.5
 20
127.46
 10
138.0
 20
124.96
  0
LWPOLYLINE
  5
12E
330
12
100
AcDbEntity
  8
0
100
AcDbPolyline
 90
     4
 70
     1
 10
106.0
 20
129.96
 10
110.0
 20
129.96
 10
110.0
 20
124.96
 10
106.0
 20
124.96
  0
LWPOLYLINE
  5
12F
330
12
100
AcDbEntity
  8
0
100
AcDbPolyline
 90
     4
 10
110.0
 20
129.96
 10
111.58
 20
128.38
 10
112.5
 20
127.46
 10
110.0
 20
124.96
  0
LWPOLYLINE
  5
130
330
12
100
AcDbEntity
  8
0
100
AcDbPolyline
 90
     4
 70
     1
 10
110.0
 20
129.96
 10
114.0
 20
129.96
 10
114.0
 20
124.96
 10
110.0
 20
124.96
  0
LWPOLYLINE
  5
131
330
12
100
AcDbEntity
  8
0
100
AcDbPolyline
 90
     4
 10
110.0
 20
129.96
 10
111.58
 20
128.38
 10
112.5
 20
127.46
 10
110.0
 20
124.96
  0
LWPOLYLINE
  5
132
330
12
100
AcDbEntity
  8
0
100
AcDbPolyline
 90
     2
 10
107.0
 20
124.96
 10
109.0
 20
129.96
  0
MTEXT
  5
133
330
12
100
AcDbEntity
  8
2-order-items
100
AcDbMText
 10
114.16
 20
136.76
 30
0.0
 40
2.064
 41
0.0
 71
     5
 72
     1
  1
\L9, 10
 50
0.0
  0
MTEXT
  5
134
330
12
100
AcDbEntity
  8
2-order-items
100
AcDbMText
 10
76.0
 20
138.64
 30
0.0
 40
2.064
 41
0.0
 71
     4
 72
     1
  1
9: SY5120-5YO-01F-Q\P10: K43
 50
0.0
  0
LWPOLYLINE
  5
135
330
12
100
AcDbEntity
  8
0
100
AcDbPolyline
 90
     4
 70
     1
 10
177.0
 20
134.96
 10
187.0
 20
134.96
 10
187.0
 20
124.96
 10
177.0
 20
124.96
  0
MTEXT
  5
136
330
12
100
AcDbEntity
  8
1-texts
100
AcDbMText
 10
187.0
 20
137.0
 30
0.0
 40
1.59
 41
0.0
 71
     5
 72
     1
  1
4
 50
0.0
  0
LWPOLYLINE
  5
137
330
12
100
AcDbEntity
  8
0
100
AcDbPolyline
 90
     4
 70
     1
 10
187.0
 20
134.96
 10
197.0
 20
134.96
 10
197.0
 20
124.96
 10
187.0
 20
124.96
  0
MTEXT
  5
138
330
12
100
AcDbEntity
  8
1-texts
100
AcDbMText
 10
197.0
 20
137.0
 30
0.0
 40
1.59
 41
0.0
 71
     5
 72
     1
  1
2
 50
0.0
  0
MTEXT
  5
139
330
12
100
AcDbEntity
  8
1-texts
100
AcDbMText
 10
197.0
 20
123.0
 30
0.0
 40
1.59
 41
0.0
 71
     5
 72
     1
  1
3
 50
0.0
  0
LWPOLYLINE
  5
13A
330
12
100
AcDbEntity
  8
0
100
AcDbPolyline
 90
     2
 10
180.0
 20
134.96
 10
182.0
 20
125.0
  0
LWPOLYLINE
  5
13B
330
12
100
AcDbEntity
  8
0
100
AcDbPolyline
 90
     3
 70
     1
 10
180.0
 20
134.96
 10
179.89
 20
132.49
 10
181.06
 20
132.73
  0
LWPOLYLINE
  5
13C
330
12
100
AcDbEntity
  8
0
100
AcDbPolyline
 90
     2
 10
185.0
 20
134.96
 10
185.0
 20
124.96
  0
LWPOLYLINE
  5
13D
330
12
100
AcDbEntity
  8
0
100
AcDbPolyline
 90
     3
 70
     1
 10
185.0
 20
124.96
 10
185.6
 20
127.36
 10
184.4
 20
127.36
  0
LWPOLYLINE
  5
13E
330
12
100
AcDbEntity
  8
0
100
AcDbPolyline
 90
     2
 10
189.0
 20
135.0
 10
189.0
 20
125.0
  0
LWPOLYLINE
  5
13F
330
12
100
AcDbEntity
  8
0
100
AcDbPolyline
 90
     3
 70
     1
 10
189.0
 20
125.0
 10
189.6
 20
127.4
 10
188.4
 20
127.4
  0
LWPOLYLINE
  5
140
330
12
100
AcDbEntity
  8
0
100
AcDbPolyline
 90
     2
 10
178.0
 20
127.0
 10
180.0
 20
127.0
  0
LWPOLYLINE
  5
141
330
12
100
AcDbEntity
  8
0
100
AcDbPolyline
 90
     2
 10
179.0
 20
125.0
 10
179.0
 20
127.0
  0
LWPOLYLINE
  5
142
330
12
100
AcDbEntity
  8
0
100
AcDbPolyline
 90
     2
 10
194.0
 20
126.96
 10
196.0
 20
126.96
  0
LWPOLYLINE
  5
143
330
12
100
AcDbEntity
  8
0
100
AcDbPolyline
 90
     2
 10
195.0
 20
124.96
 10
195.0
 20
126.96
  0
LWPOLYLINE
  5
144
330
12
100
AcDbEntity
  8
0
100
AcDbPolyline
 90
     2
 10
192.0
 20
125.0
 10
195.0
 20
135.0
  0
LWPOLYLINE
  5
145
330
12
100
AcDbEntity
  8
0
100
AcDbPolyline
 90
     3
 70
     1
 10
195.0
 20
135.0
 10
193.74
 20
132.87
 10
194.89
 20
132.53
  0
MTEXT
  5
146
330
12
100
AcDbEntity
  8
1-texts
100
AcDbMText
 10
187.0
 20
123.0
 30
0.0
 40
1.59
 41
0.0
 71
     5
 72
     1
  1
5
 50
0.0
  0
MTEXT
  5
147
330
12
100
AcDbEntity
  8
1-texts
100
AcDbMText
 10
193.0
 20
123.0
 30
0.0
 40
1.59
 41
0.0
 71
     5
 72
     1
  1
1
 50
0.0
  0
LWPOLYLINE
  5
148
330
12
100
AcDbEntity
  8
0
100
AcDbPolyline
 90
     4
 70
     1
 10
197.0
 20
129.96
 10
201.0
 20
129.96
 10
201.0
 20
124.96
 10
197.0
 20
124.96
  0
LWPOLYLINE
  5
149
330
12
100
AcDbEntity
  8
0
100
AcDbPolyline
 90
     3
 10
201.0
 20
129.96
 10
198.5
 20
127.46
 10
201.0
 20
124.96
  0
LWPOLYLINE
  5
14A
330
12
100
AcDbEntity
  8
0
100
AcDbPolyline
 90
     4
 70
     1
 10
169.0
 20
129.96
 10
173.0
 20
129.96
 10
173.0
 20
124.96
 10
169.0
 20
124.96
  0
LWPOLYLINE
  5
14B
330
12
100
AcDbEntity
  8
0
100
AcDbPolyline
 90
     4
 10
173.0
 20
129.96
 10
174.58
 20
128.38
 10
175.5
 20
127.46
 10
173.0
 20
124.96
  0
LWPOLYLINE
  5
14C
330
12
100
AcDbEntity
  8
0
100
AcDbPolyline
 90
     4
 70
     1
 10
173.0
 20
129.96
 10
177.0
 20
129.96
 10
177.0
 20
124.96
 10
173.0
 20
124.96
  0
LWPOLYLINE
  5
14D
330
12
100
AcDbEntity
  8
0
100
AcDbPolyline
 90
     4
 10
173.0
 20
129.96
 10
174.58
 20
128.38
 10
175.5
 20
127.46
 10
173.0
 20
124.96
  0
LWPOLYLINE
  5
14E
330
12
100
AcDbEntity
  8
0
100
AcDbPolyline
 90
     2
 10
170.0
 20
124.96
 10
172.0
 20
129.96
  0
MTEXT
  5
14F
330
12
100
AcDbEntity
  8
2-order-items
100
AcDbMText
 10
176.16
 20
138.76
 30
0.0
 40
2.064
 41
0.0
 71
     5
 72
     1
  1
\L11, 12
 50
0.0
  0
MTEXT
  5
150
330
12
100
AcDbEntity
  8
2-order-items
100
AcDbMText
 10
138.0
 20
132.64
 30
0.0
 40
2.064
 41
0.0
 71
     4
 72
     1
  1
11: SY5120-5YO-01F-Q\P12: K43
 50
0.0
  0
LWPOLYLINE
  5
151
330
12
100
AcDbEntity
  8
0
100
AcDbPolyline
 90
     2
 10
378.0
 20
125.0
 10
384.0
 20
125.0
  0
MTEXT
  5
152
330
12
100
AcDbEntity
  8
2-order-items
100
AcDbMText
 10
382.85
 20
128.25
 30
0.0
 40
2.064
 41
0.0
 71
     5
 72
     1
  1
\L13
 50
0.0
  0
MTEXT
  5
153
330
12
100
AcDbEntity
  8
2-order-items
100
AcDbMText
 10
364.0
 20
132.76
 30
0.0
 40
2.064
 41
0.0
 71
     4
 72
     1
  1
13: SY5000-26-1A-Q
 50
0.0
  0
LWPOLYLINE
  5
154
330
12
100
AcDbEntity
  8
0
100
AcDbPolyline
 90
     4
 70
     1
 10
25.0
 20
229.51
 10
55.0
 20
229.51
 10
55.0
 20
219.51
 10
25.0
 20
219.51
  0
LWPOLYLINE
  5
155
330
12
100
AcDbEntity
  8
0
100
AcDbPolyline
 90
     4
 70
     1
 10
27.0
 20
227.51
 10
28.0
 20
227.51
 10
28.0
 20
221.51
 10
27.0
 20
221.51
  0
LWPOLYLINE
  5
156
330
12
100
AcDbEntity
  8
0
100
AcDbPolyline
 90
     4
 70
     1
 10
28.0
 20
229.01
 10
30.0
 20
229.01
 10
30.0
 20
220.01
 10
28.0
 20
220.01
  0
LWPOLYLINE
  5
157
330
12
100
AcDbEntity
  8
0
100
AcDbPolyline
 90
     4
 70
     1
 10
30.0
 20
227.51
 10
31.0
 20
227.51
 10
31.0
 20
221.51
 10
30.0
 20
221.51
  0
LWPOLYLINE
  5
158
330
12
100
AcDbEntity
  8
0
100
AcDbPolyline
 90
     4
 70
     1
 10
31.0
 20
229.01
 10
33.0
 20
229.01
 10
33.0
 20
220.01
 10
31.0
 20
220.01
  0
LWPOLYLINE
  5
159
330
12
100
AcDbEntity
  8
0
100
AcDbPolyline
 90
     4
 70
     1
 10
33.0
 20
227.51
 10
34.0
 20
227.51
 10
34.0
 20
221.51
 10
33.0
 20
221.51
  0
LWPOLYLINE
  5
15A
330
12
100
AcDbEntity
  8
0
100
AcDbPolyline
 90
     4
 70
     1
 10
34.0
 20
225.51
 10
59.0
 20
225.51
 10
59.0
 20
223.51
 10
34.0
 20
223.51
  0
LWPOLYLINE
  5
15B
330
12
100
AcDbEntity
  8
0
100
AcDbPolyline
 90
     3
 10
27.0
 20
219.51
 10
27.0
 20
217.64
 10
27.0
 20
215.51
  0
LWPOLYLINE
  5
15C
330
12
100
AcDbEntity
  8
0
100
AcDbPolyline
 90
     3
 10
53.0
 20
219.51
 10
53.0
 20
217.64
 10
53.0
 20
215.51
  0
LWPOLYLINE
  5
15D
330
12
100
AcDbEntity
  8
0
100
AcDbPolyline
 90
     2
 10
26.0
 20
220.01
 10
35.0
 20
229.01
  0
LWPOLYLINE
  5
15E
330
12
100
AcDbEntity
  8
0
100
AcDbPolyline
 90
     3
 70
     1
 10
35.0
 20
229.01
 10
32.88
 20
227.74
 10
33.73
 20
226.89
  0
MTEXT
  5
15F
330
12
100
AcDbEntity
  8
2-order-items
100
AcDbMText
 10
36.2
 20
232.76
 30
0.0
 40
2.064
 41
0.0
 71
     5
 72
     1
  1
\L14, 15, 16
 50
0.0
  0
MTEXT
  5
160
330
12
100
AcDbEntity
  8
2-order-items
100
AcDbMText
 10
26.0
 20
260.53
 30
0.0
 40
2.064
 41
0.0
 71
     4
 72
     1
  1
14: CD85N16-25C-B\P15: KJ6D\P16: C85C16
 50
0.0
  0
LWPOLYLINE
  5
161
330
12
100
AcDbEntity
  8
0
100
AcDbPolyline
 90
    64
 70
     1
 10
28.22222168
 20
231.01
 10
28.20911377
 20
230.86296875
 10
28.16991455
 20
230.71736328
 10
28.10500488
 20
230.57457031
 10
28.01500488
 20
230.43597656
 10
27.90078613
 20
230.30291016
 10
27.76344482
 20
230.17664063
 10
27.60430664
 20
230.05841797
 10
27.42490234
 20
229.94933594
 10
27.22696045
 20
229.85048828
 10
27.01238525
 20
229.76279297
 10
26.78324707
 20
229.68710938
 10
26.54174805
 20
229.62417969
 10
26.29021973
 20
229.57458984
 10
26.0310791
 20
229.53882813
 10
25.76682373
 20
229.51722656
 10
25.5
 20
229.51
 10
25.23317383
 20
229.51722656
 10
24.9689209
 20
229.53882813
 10
24.70978027
 20
229.57458984
 10
24.45824951
 20
229.62417969
 10
24.21675293
 20
229.68710938
 10
23.98761475
 20
229.76279297
 10
23.77303955
 20
229.85048828
 10
23.57509766
 20
229.94933594
 10
23.39569336
 20
230.05841797
 10
23.23655518
 20
230.17664063
 10
23.09921387
 20
230.30291016
 10
22.98499268
 20
230.43597656
 10
22.89499512
 20
230.57457031
 10
22.83008301
 20
230.71736328
 10
22.79088623
 20
230.86296875
 10
22.77777832
 20
231.01
 10
22.79088623
 20
231.15703125
 10
22.83008545
 20
231.30263672
 10
22.89499512
 20
231.44542969
 10
22.98499512
 20
231.58402344
 10
23.09921387
 20
231.71708984
 10
23.23655518
 20
231.84335938
 10
23.39569336
 20
231.96158203
 10
23.57509766
 20
232.07066406
 10
23.77303955
 20
232.16951172
 10
23.98761475
 20
232.25720703
 10
24.21675293
 20
232.33289063
 10
24.45824951
 20
232.39582031
 10
24.70978027
 20
232.44541016
 10
24.9689209
 20
232.48117188
 10
25.23317627
 20
232.50277344
 10
25.5
 20
232.51
 10
25.76682373
 20
232.50277344
 10
26.0310791
 20
232.48117188
 10
26.29021973
 20
232.44541016
 10
26.54175049
 20
232.39582031
 10
26.78324707
 20
232.33289063
 10
27.01238525
 20
232.25720703
 10
27.22696045
 20
232.16951172
 10
27.42490234
 20
232.07066406
 10
27.60430664
 20
231.96158203
 10
27.76344482
 20
231.84335938
 10
27.90078613
 20
231.71708984
 10
28.01500488
 20
231.58402344
 10
28.10500488
 20
231.44542969
 10
28.16991455
 20
231.30263672
 10
28.20911377
 20
231.15703125
  0
LWPOLYLINE
  5
162
330
12
100
AcDbEntity
  8
0
100
AcDbPolyline
 90
     3
 10
22.0
 20
231.01
 10
24.33
 20
231.01
 10
25.89
 20
231.76
  0
LWPOLYLINE
  5
163
330
12
100
AcDbEntity
  8
0
100
AcDbPolyline
 90
     3
 10
25.11
 20
230.26
 10
26.67
 20
231.01
 10
29.0
 20
231.01
  0
LWPOLYLINE
  5
164
330
12
100
AcDbEntity
  8
0
100
AcDbPolyline
 90
    64
 70
     1
 10
58.22222168
 20
231.01
 10
58.20911133
 20
230.86296875
 10
58.16991699
 20
230.71736328
 10
58.10500488
 20
230.57457031
 10
58.01500488
 20
230.43597656
 10
57.90078613
 20
230.30291016
 10
57.76344727
 20
230.17664063
 10
57.60430664
 20
230.05841797
 10
57.42490234
 20
229.94933594
 10
57.22695801
 20
229.85048828
 10
57.01238281
 20
229.76279297
 10
56.78324707
 20
229.68710938
 10
56.54174805
 20
229.62417969
 10
56.29021973
 20
229.57458984
 10
56.0310791
 20
229.53882813
 10
55.76682617
 20
229.51722656
 10
55.5
 20
229.51
 10
55.23317383
 20
229.51722656
 10
54.9689209
 20
229.53882813
 10
54.70978027
 20
229.57458984
 10
54.45825195
 20
229.62417969
 10
54.21675293
 20
229.68710938
 10
53.9876123
 20
229.76279297
 10
53.77304199
 20
229.85048828
 10
53.57509766
 20
229.94933594
 10
53.39569336
 20
230.05841797
 10
53.23655273
 20
230.17664063
 10
53.09921387
 20
230.30291016
 10
52.98499512
 20
230.43597656
 10
52.89499512
 20
230.57457031
 10
52.83008301
 20
230.71736328
 10
52.79088379
 20
230.86296875
 10
52.77777832
 20
231.01
 10
52.79088379
 20
231.15703125
 10
52.83008301
 20
231.30263672
 10
52.89499512
 20
231.44542969
 10
52.98499512
 20
231.58402344
 10
53.09921387
 20
231.71708984
 10
53.23655762
 20
231.84335938
 10
53.39569336
 20
231.96158203
 10
53.57509766
 20
232.07066406
 10
53.77304199
 20
232.16951172
 10
53.9876123
 20
232.25720703
 10
54.21675293
 20
232.33289063
 10
54.45825195
 20
232.39582031
 10
54.70978027
 20
232.44541016
 10
54.9689209
 20
232.48117188
 10
55.23317383
 20
232.50277344
 10
55.5
 20
232.51
 10
55.76682617
 20
232.50277344
 10
56.0310791
 20
232.48117188
 10
56.29021973
 20
232.44541016
 10
56.54174805
 20
232.39582031
 10
56.78324707
 20
232.33289063
 10
57.0123877
 20
232.25720703
 10
57.22695801
 20
232.16951172
 10
57.42490234
 20
232.07066406
 10
57.60430664
 20
231.96158203
 10
57.76344727
 20
231.84335938
 10
57.90078613
 20
231.71708984
 10
58.01500488
 20
231.58402344
 10
58.10500488
 20
231.44542969
 10
58.16991699
 20
231.30263672
 10
58.20911133
 20
231.15703125
  0
LWPOLYLINE
  5
165
330
12
100
AcDbEntity
  8
0
100
AcDbPolyline
 90
     3
 10
52.0
 20
231.01
 10
54.33
 20
231.01
 10
55.89
 20
231.76
  0
LWPOLYLINE
  5
166
330
12
100
AcDbEntity
  8
0
100
AcDbPolyline
 90
     3
 10
55.11
 20
230.26
 10
56.67
 20
231.01
 10
59.0
 20
231.01
  0
LWPOLYLINE
  5
167
330
12
100
AcDbEntity
  8
0
100
AcDbPolyline
 90
     4
 70
     1
 10
25.0
 20
213.51
 10
34.0
 20
213.51
 10
34.0
 20
203.51
 10
25.0
 20
203.51
  0
LWPOLYLINE
  5
168
330
12
100
AcDbEntity
  8
0
100
AcDbPolyline
 90
     2
 10
27.0
 20
215.51
 10
27.0
 20
201.51
  0
LWPOLYLINE
  5
169
330
12
100
AcDbEntity
  8
0
100
AcDbPolyline
 90
     3
 10
27.0
 20
204.51
 10
31.0
 20
204.51
 10
31.0
 20
206.89
  0
LWPOLYLINE
  5
16A
330
12
100
AcDbEntity
  8
0
100
AcDbPolyline
 90
     3
 10
27.0
 20
212.51
 10
31.0
 20
212.51
 10
31.0
 20
210.51
  0
LWPOLYLINE
  5
16B
330
12
100
AcDbEntity
  8
0
100
AcDbPolyline
 90
     2
 10
29.0
 20
206.01
 10
25.0
 20
211.01
  0
LWPOLYLINE
  5
16C
330
12
100
AcDbEntity
  8
0
100
AcDbPolyline
 90
     3
 70
     1
 10
25.0
 20
211.01
 10
26.03
 20
208.76
 10
26.97
 20
209.51
  0
SPLINE
  5
16D
330
12
100
AcDbEntity
  8
0
100
AcDbSpline
210
0.0
220
0.0
230
1.0
 70
    12
 71
     3
 72
     8
 73
     4
 40
0.0
 40
0.0
 40
0.0
 40
0.0
 40
1.0
 40
1.0
 40
1.0
 40
1.0
 10
25.88
 20
211.64
 30
0.0
 41
1.0
 10
27.0
 20
210.39
 30
0.0
 41
1.0
 10
27.0
 20
206.64
 30
0.0
 41
1.0
 10
25.88
 20
205.39
 30
0.0
 41
1.0
  0
SPLINE
  5
16E
330
12
100
AcDbEntity
  8
0
100
AcDbSpline
210
0.0
220
0.0
230
1.0
 70
    12
 71
     3
 72
     8
 73
     4
 40
0.0
 40
0.0
 40
0.0
 40
0.0
 40
1.0
 40
1.0
 40
1.0
 40
1.0
 10
28.13
 20
211.63
 30
0.0
 41
1.0
 10
27.0
 20
210.39
 30
0.0
 41
1.0
 10
27.01
 20
206.63
 30
0.0
 41
1.0
 10
28.13
 20
205.38
 30
0.0
 41
1.0
  0
CIRCLE
  5
16F
330
12
100
AcDbEntity
  8
0
100
AcDbCircle
 10
27.0
 20
204.51
 30
0.0
 40
0.49999999
  0
CIRCLE
  5
170
330
12
100
AcDbEntity
  8
0
100
AcDbCircle
 10
27.0
 20
212.51
 30
0.0
 40
0.49999999
  0
CIRCLE
  5
171
330
12
100
AcDbEntity
  8
0
100
AcDbCircle
 10
31.0
 20
209.01
 30
0.0
 40
1.49999997
  0
LWPOLYLINE
  5
172
330
12
100
AcDbEntity
  8
0
100
AcDbPolyline
 90
     4
 10
28.88
 20
209.01
 10
31.0
 20
206.89
 10
33.12
 20
209.01
 10
33.12
 20
209.01
  0
MTEXT
  5
173
330
12
100
AcDbEntity
  8
2-order-items
100
AcDbMText
 10
29.85
 20
216.76
 30
0.0
 40
2.064
 41
0.0
 71
     5
 72
     1
  1
\L17
 50
0.0
  0
MTEXT
  5
174
330
12
100
AcDbEntity
  8
2-order-items
100
AcDbMText
 10
26.0
 20
250.76
 30
0.0
 40
2.064
 41
0.0
 71
     4
 72
     1
  1
17: AS1201F-M5-06A
 50
0.0
  0
LWPOLYLINE
  5
175
330
12
100
AcDbEntity
  8
0
100
AcDbPolyline
 90
     4
 70
     1
 10
51.0
 20
213.51
 10
60.0
 20
213.51
 10
60.0
 20
203.51
 10
51.0
 20
203.51
  0
LWPOLYLINE
  5
176
330
12
100
AcDbEntity
  8
0
100
AcDbPolyline
 90
     2
 10
53.0
 20
215.51
 10
53.0
 20
201.51
  0
LWPOLYLINE
  5
177
330
12
100
AcDbEntity
  8
0
100
AcDbPolyline
 90
     3
 10
53.0
 20
204.51
 10
57.0
 20
204.51
 10
57.0
 20
206.89
  0
LWPOLYLINE
  5
178
330
12
100
AcDbEntity
  8
0
100
AcDbPolyline
 90
     3
 10
53.0
 20
212.51
 10
57.0
 20
212.51
 10
57.0
 20
210.51
  0
LWPOLYLINE
  5
179
330
12
100
AcDbEntity
  8
0
100
AcDbPolyline
 90
     2
 10
55.0
 20
206.01
 10
51.0
 20
211.01
  0
LWPOLYLINE
  5
17A
330
12
100
AcDbEntity
  8
0
100
AcDbPolyline
 90
     3
 70
     1
 10
51.0
 20
211.01
 10
52.03
 20
208.76
 10
52.97
 20
209.51
  0
SPLINE
  5
17B
330
12
100
AcDbEntity
  8
0
100
AcDbSpline
210
0.0
220
0.0
230
1.0
 70
    12
 71
     3
 72
     8
 73
     4
 40
0.0
 40
0.0
 40
0.0
 40
0.0
 40
1.0
 40
1.0
 40
1.0
 40
1.0
 10
51.88
 20
211.64
 30
0.0
 41
1.0
 10
53.0
 20
210.39
 30
0.0
 41
1.0
 10
53.0
 20
206.64
 30
0.0
 41
1.0
 10
51.88
 20
205.39
 30
0.0
 41
1.0
  0
SPLINE
  5
17C
330
12
100
AcDbEntity
  8
0
100
AcDbSpline
210
0.0
220
0.0
230
1.0
 70
    12
 71
     3
 72
     8
 73
     4
 40
0.0
 40
0.0
 40
0.0
 40
0.0
 40
1.0
 40
1.0
 40
1.0
 40
1.0
 10
54.13
 20
211.63
 30
0.0
 41
1.0
 10
53.0
 20
210.39
 30
0.0
 41
1.0
 10
53.01
 20
206.63
 30
0.0
 41
1.0
 10
54.13
 20
205.38
 30
0.0
 41
1.0
  0
CIRCLE
  5
17D
330
12
100
AcDbEntity
  8
0
100
AcDbCircle
 10
53.0
 20
204.51
 30
0.0
 40
0.49999999
  0
CIRCLE
  5
17E
330
12
100
AcDbEntity
  8
0
100
AcDbCircle
 10
53.0
 20
212.51
 30
0.0
 40
0.49999999
  0
CIRCLE
  5
17F
330
12
100
AcDbEntity
  8
0
100
AcDbCircle
 10
57.0
 20
209.01
 30
0.0
 40
1.49999997
  0
LWPOLYLINE
  5
180
330
12
100
AcDbEntity
  8
0
100
AcDbPolyline
 90
     4
 10
54.88
 20
209.01
 10
57.0
 20
206.89
 10
59.12
 20
209.01
 10
59.12
 20
209.01
  0
MTEXT
  5
181
330
12
100
AcDbEntity
  8
2-order-items
100
AcDbMText
 10
55.85
 20
216.76
 30
0.0
 40
2.064
 41
0.0
 71
     5
 72
     1
  1
\L18
 50
0.0
  0
MTEXT
  5
182
330
12
100
AcDbEntity
  8
2-order-items
100
AcDbMText
 10
26.0
 20
246.76
 30
0.0
 40
2.064
 41
0.0
 71
     4
 72
     1
  1
18: AS1201F-M5-06A
 50
0.0
  0
MTEXT
  5
183
330
12
100
AcDbEntity
  8
2-order-items
100
AcDbMText
 10
87.2
 20
232.76
 30
0.0
 40
2.064
 41
0.0
 71
     5
 72
     1
  1
\L21, 22, 23
 50
0.0
  0
LWPOLYLINE
  5
184
330
12
100
AcDbEntity
  8
0
100
AcDbPolyline
 90
    64
 70
     1
 10
91.22222656
 20
231.01
 10
91.20911133
 20
230.86296875
 10
91.16991211
 20
230.71736328
 10
91.105
 20
230.57457031
 10
91.01500977
 20
230.43597656
 10
90.90078125
 20
230.30291016
 10
90.76344727
 20
230.17664063
 10
90.60430664
 20
230.05841797
 10
90.42490234
 20
229.94933594
 10
90.22696289
 20
229.85048828
 10
90.01238281
 20
229.76279297
 10
89.78324219
 20
229.68710938
 10
89.54174805
 20
229.62417969
 10
89.29021484
 20
229.57458984
 10
89.03107422
 20
229.53882813
 10
88.76682617
 20
229.51722656
 10
88.5
 20
229.51
 10
88.23317383
 20
229.51722656
 10
87.96891602
 20
229.53882813
 10
87.70977539
 20
229.57458984
 10
87.45825195
 20
229.62417969
 10
87.21675781
 20
229.68710938
 10
86.98761719
 20
229.76279297
 10
86.77303711
 20
229.85048828
 10
86.57509766
 20
229.94933594
 10
86.39569336
 20
230.05841797
 10
86.23655273
 20
230.17664063
 10
86.09920898
 20
230.30291016
 10
85.98499023
 20
230.43597656
 10
85.895
 20
230.57457031
 10
85.83008789
 20
230.71736328
 10
85.79088867
 20
230.86296875
 10
85.77777344
 20
231.01
 10
85.79088867
 20
231.15703125
 10
85.83008789
 20
231.30263672
 10
85.895
 20
231.44542969
 10
85.98499023
 20
231.58402344
 10
86.09921875
 20
231.71708984
 10
86.23655273
 20
231.84335938
 10
86.39569336
 20
231.96158203
 10
86.57509766
 20
232.07066406
 10
86.77303711
 20
232.16951172
 10
86.98761719
 20
232.25720703
 10
87.21675781
 20
232.33289063
 10
87.45825195
 20
232.39582031
 10
87.70978516
 20
232.44541016
 10
87.96891602
 20
232.48117188
 10
88.23317383
 20
232.50277344
 10
88.5
 20
232.51
 10
88.76682617
 20
232.50277344
 10
89.03107422
 20
232.48117188
 10
89.29021484
 20
232.44541016
 10
89.54174805
 20
232.39582031
 10
89.78324219
 20
232.33289063
 10
90.01238281
 20
232.25720703
 10
90.22696289
 20
232.16951172
 10
90.42490234
 20
232.07066406
 10
90.60430664
 20
231.96158203
 10
90.76344727
 20
231.84335938
 10
90.90078125
 20
231.71708984
 10
91.01500977
 20
231.58402344
 10
91.105
 20
231.44542969
 10
91.16991211
 20
231.30263672
 10
91.20911133
 20
231.15703125
  0
LWPOLYLINE
  5
185
330
12
100
AcDbEntity
  8
0
100
AcDbPolyline
 90
     3
 10
85.0
 20
231.01
 10
87.33
 20
231.01
 10
88.89
 20
231.76
  0
LWPOLYLINE
  5
186
330
12
100
AcDbEntity
  8
0
100
AcDbPolyline
 90
     3
 10
88.11
 20
230.26
 10
89.67
 20
231.01
 10
92.0
 20
231.01
  0
LWPOLYLINE
  5
187
330
12
100
AcDbEntity
  8
0
100
AcDbPolyline
 90
    64
 70
     1
 10
109.22222656
 20
231.01
 10
109.20912109
 20
230.86296875
 10
109.16992188
 20
230.71736328
 10
109.10500977
 20
230.57457031
 10
109.01500977
 20
230.43597656
 10
108.90079102
 20
230.30291016
 10
108.76344727
 20
230.17664063
 10
108.60430664
 20
230.05841797
 10
108.42490234
 20
229.94933594
 10
108.22696289
 20
229.85048828
 10
108.01239258
 20
229.76279297
 10
107.78325195
 20
229.68710938
 10
107.54175781
 20
229.62417969
 10
107.29022461
 20
229.57458984
 10
107.03108398
 20
229.53882813
 10
106.76682617
 20
229.51722656
 10
106.5
 20
229.51
 10
106.23318359
 20
229.51722656
 10
105.96892578
 20
229.53882813
 10
105.70978516
 20
229.57458984
 10
105.45825195
 20
229.62417969
 10
105.21675781
 20
229.68710938
 10
104.98761719
 20
229.76279297
 10
104.77304688
 20
229.85048828
 10
104.57509766
 20
229.94933594
 10
104.39569336
 20
230.05841797
 10
104.2365625
 20
230.17664063
 10
104.09921875
 20
230.30291016
 10
103.985
 20
230.43597656
 10
103.895
 20
230.57457031
 10
103.83008789
 20
230.71736328
 10
103.79088867
 20
230.86296875
 10
103.7777832
 20
231.01
 10
103.79088867
 20
231.15703125
 10
103.83008789
 20
231.30263672
 10
103.895
 20
231.44542969
 10
103.985
 20
231.58402344
 10
104.09921875
 20
231.71708984
 10
104.2365625
 20
231.84335938
 10
104.39570313
 20
231.96158203
 10
104.57510742
 20
232.07066406
 10
104.77304688
 20
232.16951172
 10
104.98761719
 20
232.25720703
 10
105.21675781
 20
232.33289063
 10
105.45825195
 20
232.39582031
 10
105.70978516
 20
232.44541016
 10
105.96892578
 20
232.48117188
 10
106.23318359
 20
232.50277344
 10
106.5
 20
232.51
 10
106.76682617
 20
232.50277344
 10
107.03108398
 20
232.48117188
 10
107.29022461
 20
232.44541016
 10
107.54175781
 20
232.39582031
 10
107.78325195
 20
232.33289063
 10
108.01239258
 20
232.25720703
 10
108.22696289
 20
232.16951172
 10
108.42490234
 20
232.07066406
 10
108.60430664
 20
231.96158203
 10
108.76344727
 20
231.84335938
 10
108.90079102
 20
231.71708984
 10
109.01500977
 20
231.58402344
 10
109.10500977
 20
231.44542969
 10
109.16992188
 20
231.30263672
 10
109.20912109
 20
231.15703125
  0
LWPOLYLINE
  5
188
330
12
100
AcDbEntity
  8
0
100
AcDbPolyline
 90
     3
 10
103.0
 20
231.01
 10
105.33
 20
231.01
 10
106.89
 20
231.76
  0
LWPOLYLINE
  5
189
330
12
100
AcDbEntity
  8
0
100
AcDbPolyline
 90
     3
 10
106.11
 20
230.26
 10
107.67
 20
231.01
 10
110.0
 20
231.01
  0
MTEXT
  5
18A
330
12
100
AcDbEntity
  8
2-order-items
100
AcDbMText
 10
80.85
 20
216.76
 30
0.0
 40
2.064
 41
0.0
 71
     5
 72
     1
  1
\L19
 50
0.0
  0
MTEXT
  5
18B
330
12
100
AcDbEntity
  8
2-order-items
100
AcDbMText
 10
106.85
 20
216.76
 30
0.0
 40
2.064
 41
0.0
 71
     5
 72
     1
  1
\L20
 50
0.0
  0
LWPOLYLINE
  5
18C
330
12
100
AcDbEntity
  8
0
100
AcDbPolyline
 90
     4
 70
     1
 10
76.0
 20
213.51
 10
85.0
 20
213.51
 10
85.0
 20
203.51
 10
76.0
 20
203.51
  0
LWPOLYLINE
  5
18D
330
12
100
AcDbEntity
  8
0
100
AcDbPolyline
 90
     2
 10
78.0
 20
215.51
 10
78.0
 20
201.51
  0
LWPOLYLINE
  5
18E
330
12
100
AcDbEntity
  8
0
100
AcDbPolyline
 90
     3
 10
78.0
 20
204.51
 10
82.0
 20
204.51
 10
82.0
 20
206.89
  0
LWPOLYLINE
  5
18F
330
12
100
AcDbEntity
  8
0
100
AcDbPolyline
 90
     3
 10
78.0
 20
212.51
 10
82.0
 20
212.51
 10
82.0
 20
210.51
  0
LWPOLYLINE
  5
190
330
12
100
AcDbEntity
  8
0
100
AcDbPolyline
 90
     2
 10
80.0
 20
206.01
 10
76.0
 20
211.01
  0
LWPOLYLINE
  5
191
330
12
100
AcDbEntity
  8
0
100
AcDbPolyline
 90
     3
 70
     1
 10
76.0
 20
211.01
 10
77.03
 20
208.76
 10
77.97
 20
209.51
  0
SPLINE
  5
192
330
12
100
AcDbEntity
  8
0
100
AcDbSpline
210
0.0
220
0.0
230
1.0
 70
    12
 71
     3
 72
     8
 73
     4
 40
0.0
 40
0.0
 40
0.0
 40
0.0
 40
1.0
 40
1.0
 40
1.0
 40
1.0
 10
76.88
 20
211.64
 30
0.0
 41
1.0
 10
78.0
 20
210.39
 30
0.0
 41
1.0
 10
78.0
 20
206.64
 30
0.0
 41
1.0
 10
76.88
 20
205.39
 30
0.0
 41
1.0
  0
SPLINE
  5
193
330
12
100
AcDbEntity
  8
0
100
AcDbSpline
210
0.0
220
0.0
230
1.0
 70
    12
 71
     3
 72
     8
 73
     4
 40
0.0
 40
0.0
 40
0.0
 40
0.0
 40
1.0
 40
1.0
 40
1.0
 40
1.0
 10
79.13
 20
211.63
 30
0.0
 41
1.0
 10
78.0
 20
210.39
 30
0.0
 41
1.0
 10
78.01
 20
206.63
 30
0.0
 41
1.0
 10
79.13
 20
205.38
 30
0.0
 41
1.0
  0
CIRCLE
  5
194
330
12
100
AcDbEntity
  8
0
100
AcDbCircle
 10
78.0
 20
204.51
 30
0.0
 40
0.49999999
  0
CIRCLE
  5
195
330
12
100
AcDbEntity
  8
0
100
AcDbCircle
 10
78.0
 20
212.51
 30
0.0
 40
0.49999999
  0
CIRCLE
  5
196
330
12
100
AcDbEntity
  8
0
100
AcDbCircle
 10
82.0
 20
209.01
 30
0.0
 40
1.49999997
  0
LWPOLYLINE
  5
197
330
12
100
AcDbEntity
  8
0
100
AcDbPolyline
 90
     4
 10
79.88
 20
209.01
 10
82.0
 20
206.89
 10
84.12
 20
209.01
 10
84.12
 20
209.01
  0
LWPOLYLINE
  5
198
330
12
100
AcDbEntity
  8
0
100
AcDbPolyline
 90
     4
 70
     1
 10
102.0
 20
213.51
 10
111.0
 20
213.51
 10
111.0
 20
203.51
 10
102.0
 20
203.51
  0
LWPOLYLINE
  5
199
330
12
100
AcDbEntity
  8
0
100
AcDbPolyline
 90
     2
 10
104.0
 20
215.51
 10
104.0
 20
201.51
  0
LWPOLYLINE
  5
19A
330
12
100
AcDbEntity
  8
0
100
AcDbPolyline
 90
     3
 10
104.0
 20
204.51
 10
108.0
 20
204.51
 10
108.0
 20
206.89
  0
LWPOLYLINE
  5
19B
330
12
100
AcDbEntity
  8
0
100
AcDbPolyline
 90
     3
 10
104.0
 20
212.51
 10
108.0
 20
212.51
 10
108.0
 20
210.51
  0
LWPOLYLINE
  5
19C
330
12
100
AcDbEntity
  8
0
100
AcDbPolyline
 90
     2
 10
106.0
 20
206.01
 10
102.0
 20
211.01
  0
LWPOLYLINE
  5
19D
330
12
100
AcDbEntity
  8
0
100
AcDbPolyline
 90
     3
 70
     1
 10
102.0
 20
211.01
 10
103.03
 20
208.76
 10
103.97
 20
209.51
  0
SPLINE
  5
19E
330
12
100
AcDbEntity
  8
0
100
AcDbSpline
210
0.0
220
0.0
230
1.0
 70
    12
 71
     3
 72
     8
 73
     4
 40
0.0
 40
0.0
 40
0.0
 40
0.0
 40
1.0
 40
1.0
 40
1.0
 40
1.0
 10
102.88
 20
211.64
 30
0.0
 41
1.0
 10
104.0
 20
210.39
 30
0.0
 41
1.0
 10
104.0
 20
206.64
 30
0.0
 41
1.0
 10
102.88
 20
205.39
 30
0.0
 41
1.0
  0
SPLINE
  5
19F
330
12
100
AcDbEntity
  8
0
100
AcDbSpline
210
0.0
220
0.0
230
1.0
 70
    12
 71
     3
 72
     8
 73
     4
 40
0.0
 40
0.0
 40
0.0
 40
0.0
 40
1.0
 40
1.0
 40
1.0
 40
1.0
 10
105.13
 20
211.63
 30
0.0
 41
1.0
 10
104.0
 20
210.39
 30
0.0
 41
1.0
 10
104.01
 20
206.63
 30
0.0
 41
1.0
 10
105.13
 20
205.38
 30
0.0
 41
1.0
  0
CIRCLE
  5
1A0
330
12
100
AcDbEntity
  8
0
100
AcDbCircle
 10
104.0
 20
204.51
 30
0.0
 40
0.49999999
  0
CIRCLE
  5
1A1
330
12
100
AcDbEntity
  8
0
100
AcDbCircle
 10
104.0
 20
212.51
 30
0.0
 40
0.49999999
  0
CIRCLE
  5
1A2
330
12
100
AcDbEntity
  8
0
100
AcDbCircle
 10
108.0
 20
209.01
 30
0.0
 40
1.49999997
  0
LWPOLYLINE
  5
1A3
330
12
100
AcDbEntity
  8
0
100
AcDbPolyline
 90
     4
 10
105.88
 20
209.01
 10
108.0
 20
206.89
 10
110.12
 20
209.01
 10
110.12
 20
209.01
  0
LWPOLYLINE
  5
1A4
330
12
100
AcDbEntity
  8
3-links
100
AcDbPolyline
 90
     3
 10
72.0
 20
175.01
 10
104.0
 20
175.01
 10
104.0
 20
201.51
  0
LWPOLYLINE
  5
1A5
330
12
100
AcDbEntity
  8
3-links
100
AcDbPolyline
 90
     4
 10
78.0
 20
201.51
 10
78.0
 20
183.0
 10
48.0
 20
183.0
 10
48.0
 20
179.01
  0
LWPOLYLINE
  5
1A6
330
12
100
AcDbEntity
  8
0
100
AcDbPolyline
 90
     4
 70
     1
 10
76.0
 20
229.51
 10
106.0
 20
229.51
 10
106.0
 20
219.51
 10
76.0
 20
219.51
  0
LWPOLYLINE
  5
1A7
330
12
100
AcDbEntity
  8
0
100
AcDbPolyline
 90
     4
 70
     1
 10
78.0
 20
227.51
 10
79.0
 20
227.51
 10
79.0
 20
221.51
 10
78.0
 20
221.51
  0
LWPOLYLINE
  5
1A8
330
12
100
AcDbEntity
  8
0
100
AcDbPolyline
 90
     4
 70
     1
 10
79.0
 20
229.01
 10
81.0
 20
229.01
 10
81.0
 20
220.01
 10
79.0
 20
220.01
  0
LWPOLYLINE
  5
1A9
330
12
100
AcDbEntity
  8
0
100
AcDbPolyline
 90
     4
 70
     1
 10
81.0
 20
227.51
 10
82.0
 20
227.51
 10
82.0
 20
221.51
 10
81.0
 20
221.51
  0
LWPOLYLINE
  5
1AA
330
12
100
AcDbEntity
  8
0
100
AcDbPolyline
 90
     4
 70
     1
 10
82.0
 20
229.01
 10
84.0
 20
229.01
 10
84.0
 20
220.01
 10
82.0
 20
220.01
  0
LWPOLYLINE
  5
1AB
330
12
100
AcDbEntity
  8
0
100
AcDbPolyline
 90
     4
 70
     1
 10
84.0
 20
227.51
 10
85.0
 20
227.51
 10
85.0
 20
221.51
 10
84.0
 20
221.51
  0
LWPOLYLINE
  5
1AC
330
12
100
AcDbEntity
  8
0
100
AcDbPolyline
 90
     4
 70
     1
 10
85.0
 20
225.51
 10
110.0
 20
225.51
 10
110.0
 20
223.51
 10
85.0
 20
223.51
  0
LWPOLYLINE
  5
1AD
330
12
100
AcDbEntity
  8
0
100
AcDbPolyline
 90
     3
 10
78.0
 20
219.51
 10
78.0
 20
217.64
 10
78.0
 20
215.51
  0
LWPOLYLINE
  5
1AE
330
12
100
AcDbEntity
  8
0
100
AcDbPolyline
 90
     3
 10
104.0
 20
219.51
 10
104.0
 20
217.64
 10
104.0
 20
215.51
  0
LWPOLYLINE
  5
1AF
330
12
100
AcDbEntity
  8
0
100
AcDbPolyline
 90
     2
 10
77.0
 20
220.01
 10
86.0
 20
229.01
  0
LWPOLYLINE
  5
1B0
330
12
100
AcDbEntity
  8
0
100
AcDbPolyline
 90
     3
 70
     1
 10
86.0
 20
229.01
 10
83.88
 20
227.74
 10
84.73
 20
226.89
  0
MTEXT
  5
1B1
330
12
100
AcDbEntity
  8
2-order-items
100
AcDbMText
 10
132.2
 20
232.76
 30
0.0
 40
2.064
 41
0.0
 71
     5
 72
     1
  1
\L26, 27, 28
 50
0.0
  0
LWPOLYLINE
  5
1B2
330
12
100
AcDbEntity
  8
0
100
AcDbPolyline
 90
    64
 70
     1
 10
124.22222656
 20
231.01
 10
124.20912109
 20
230.86296875
 10
124.16992188
 20
230.71736328
 10
124.10500977
 20
230.57457031
 10
124.01500977
 20
230.43597656
 10
123.90079102
 20
230.30291016
 10
123.76344727
 20
230.17664063
 10
123.60430664
 20
230.05841797
 10
123.42490234
 20
229.94933594
 10
123.22696289
 20
229.85048828
 10
123.01239258
 20
229.76279297
 10
122.78325195
 20
229.68710938
 10
122.54175781
 20
229.62417969
 10
122.29022461
 20
229.57458984
 10
122.03108398
 20
229.53882813
 10
121.76682617
 20
229.51722656
 10
121.5
 20
229.51
 10
121.23318359
 20
229.51722656
 10
120.96892578
 20
229.53882813
 10
120.70978516
 20
229.57458984
 10
120.45825195
 20
229.62417969
 10
120.21675781
 20
229.68710938
 10
119.98761719
 20
229.76279297
 10
119.77304688
 20
229.85048828
 10
119.57509766
 20
229.94933594
 10
119.39569336
 20
230.05841797
 10
119.2365625
 20
230.17664063
 10
119.09921875
 20
230.30291016
 10
118.985
 20
230.43597656
 10
118.895
 20
230.57457031
 10
118.83008789
 20
230.71736328
 10
118.79088867
 20
230.86296875
 10
118.7777832
 20
231.01
 10
118.79088867
 20
231.15703125
 10
118.83008789
 20
231.30263672
 10
118.895
 20
231.44542969
 10
118.985
 20
231.58402344
 10
119.09921875
 20
231.71708984
 10
119.2365625
 20
231.84335938
 10
119.39570313
 20
231.96158203
 10
119.57510742
 20
232.07066406
 10
119.77304688
 20
232.16951172
 10
119.98761719
 20
232.25720703
 10
120.21675781
 20
232.33289063
 10
120.45825195
 20
232.39582031
 10
120.70978516
 20
232.44541016
 10
120.96892578
 20
232.48117188
 10
121.23318359
 20
232.50277344
 10
121.5
 20
232.51
 10
121.76682617
 20
232.50277344
 10
122.03108398
 20
232.48117188
 10
122.29022461
 20
232.44541016
 10
122.54175781
 20
232.39582031
 10
122.78325195
 20
232.33289063
 10
123.01239258
 20
232.25720703
 10
123.22696289
 20
232.16951172
 10
123.42490234
 20
232.07066406
 10
123.60430664
 20
231.96158203
 10
123.76344727
 20
231.84335938
 10
123.90079102
 20
231.71708984
 10
124.01500977
 20
231.58402344
 10
124.10500977
 20
231.44542969
 10
124.16992188
 20
231.30263672
 10
124.20912109
 20
231.15703125
  0
LWPOLYLINE
  5
1B3
330
12
100
AcDbEntity
  8
0
100
AcDbPolyline
 90
     3
 10
118.0
 20
231.01
 10
120.33
 20
231.01
 10
121.89
 20
231.76
  0
LWPOLYLINE
  5
1B4
330
12
100
AcDbEntity
  8
0
100
AcDbPolyline
 90
     3
 10
121.11
 20
230.26
 10
122.67
 20
231.01
 10
125.0
 20
231.01
  0
LWPOLYLINE
  5
1B5
330
12
100
AcDbEntity
  8
0
100
AcDbPolyline
 90
    64
 70
     1
 10
154.22222656
 20
231.01
 10
154.20912109
 20
230.86296875
 10
154.16992188
 20
230.71736328
 10
154.10500977
 20
230.57457031
 10
154.01500977
 20
230.43597656
 10
153.90079102
 20
230.30291016
 10
153.76344727
 20
230.17664063
 10
153.60430664
 20
230.05841797
 10
153.42490234
 20
229.94933594
 10
153.22696289
 20
229.85048828
 10
153.01239258
 20
229.76279297
 10
152.78325195
 20
229.68710938
 10
152.54175781
 20
229.62417969
 10
152.29022461
 20
229.57458984
 10
152.03108398
 20
229.53882813
 10
151.76682617
 20
229.51722656
 10
151.5
 20
229.51
 10
151.23318359
 20
229.51722656
 10
150.96892578
 20
229.53882813
 10
150.70978516
 20
229.57458984
 10
150.45825195
 20
229.62417969
 10
150.21675781
 20
229.68710938
 10
149.98761719
 20
229.76279297
 10
149.77304688
 20
229.85048828
 10
149.57509766
 20
229.94933594
 10
149.39569336
 20
230.05841797
 10
149.2365625
 20
230.17664063
 10
149.09921875
 20
230.30291016
 10
148.985
 20
230.43597656
 10
148.895
 20
230.57457031
 10
148.83008789
 20
230.71736328
 10
148.79088867
 20
230.86296875
 10
148.7777832
 20
231.01
 10
148.79088867
 20
231.15703125
 10
148.83008789
 20
231.30263672
 10
148.895
 20
231.44542969
 10
148.985
 20
231.58402344
 10
149.09921875
 20
231.71708984
 10
149.2365625
 20
231.84335938
 10
149.39570313
 20
231.96158203
 10
149.57510742
 20
232.07066406
 10
149.77304688
 20
232.16951172
 10
149.98761719
 20
232.25720703
 10
150.21675781
 20
232.33289063
 10
150.45825195
 20
232.39582031
 10
150.70978516
 20
232.44541016
 10
150.96892578
 20
232.48117188
 10
151.23318359
 20
232.50277344
 10
151.5
 20
232.51
 10
151.76682617
 20
232.50277344
 10
152.03108398
 20
232.48117188
 10
152.29022461
 20
232.44541016
 10
152.54175781
 20
232.39582031
 10
152.78325195
 20
232.33289063
 10
153.01239258
 20
232.25720703
 10
153.22696289
 20
232.16951172
 10
153.42490234
 20
232.07066406
 10
153.60430664
 20
231.96158203
 10
153.76344727
 20
231.84335938
 10
153.90079102
 20
231.71708984
 10
154.01500977
 20
231.58402344
 10
154.10500977
 20
231.44542969
 10
154.16992188
 20
231.30263672
 10
154.20912109
 20
231.15703125
  0
LWPOLYLINE
  5
1B6
330
12
100
AcDbEntity
  8
0
100
AcDbPolyline
 90
     3
 10
148.0
 20
231.01
 10
150.33
 20
231.01
 10
151.89
 20
231.76
  0
LWPOLYLINE
  5
1B7
330
12
100
AcDbEntity
  8
0
100
AcDbPolyline
 90
     3
 10
151.11
 20
230.26
 10
152.67
 20
231.01
 10
155.0
 20
231.01
  0
MTEXT
  5
1B8
330
12
100
AcDbEntity
  8
2-order-items
100
AcDbMText
 10
125.85
 20
216.76
 30
0.0
 40
2.064
 41
0.0
 71
     5
 72
     1
  1
\L24
 50
0.0
  0
MTEXT
  5
1B9
330
12
100
AcDbEntity
  8
2-order-items
100
AcDbMText
 10
151.85
 20
216.76
 30
0.0
 40
2.064
 41
0.0
 71
     5
 72
     1
  1
\L25
 50
0.0
  0
LWPOLYLINE
  5
1BA
330
12
100
AcDbEntity
  8
0
100
AcDbPolyline
 90
     4
 70
     1
 10
121.0
 20
213.51
 10
130.0
 20
213.51
 10
130.0
 20
203.51
 10
121.0
 20
203.51
  0
LWPOLYLINE
  5
1BB
330
12
100
AcDbEntity
  8
0
100
AcDbPolyline
 90
     2
 10
123.0
 20
215.51
 10
123.0
 20
201.51
  0
LWPOLYLINE
  5
1BC
330
12
100
AcDbEntity
  8
0
100
AcDbPolyline
 90
     3
 10
123.0
 20
204.51
 10
127.0
 20
204.51
 10
127.0
 20
206.89
  0
LWPOLYLINE
  5
1BD
330
12
100
AcDbEntity
  8
0
100
AcDbPolyline
 90
     3
 10
123.0
 20
212.51
 10
127.0
 20
212.51
 10
127.0
 20
210.51
  0
LWPOLYLINE
  5
1BE
330
12
100
AcDbEntity
  8
0
100
AcDbPolyline
 90
     2
 10
125.0
 20
206.01
 10
121.0
 20
211.01
  0
LWPOLYLINE
  5
1BF
330
12
100
AcDbEntity
  8
0
100
AcDbPolyline
 90
     3
 70
     1
 10
121.0
 20
211.01
 10
122.03
 20
208.76
 10
122.97
 20
209.51
  0
SPLINE
  5
1C0
330
12
100
AcDbEntity
  8
0
100
AcDbSpline
210
0.0
220
0.0
230
1.0
 70
    12
 71
     3
 72
     8
 73
     4
 40
0.0
 40
0.0
 40
0.0
 40
0.0
 40
1.0
 40
1.0
 40
1.0
 40
1.0
 10
121.88
 20
211.64
 30
0.0
 41
1.0
 10
123.0
 20
210.39
 30
0.0
 41
1.0
 10
123.0
 20
206.64
 30
0.0
 41
1.0
 10
121.88
 20
205.39
 30
0.0
 41
1.0
  0
SPLINE
  5
1C1
330
12
100
AcDbEntity
  8
0
100
AcDbSpline
210
0.0
220
0.0
230
1.0
 70
    12
 71
     3
 72
     8
 73
     4
 40
0.0
 40
0.0
 40
0.0
 40
0.0
 40
1.0
 40
1.0
 40
1.0
 40
1.0
 10
124.13
 20
211.63
 30
0.0
 41
1.0
 10
123.0
 20
210.39
 30
0.0
 41
1.0
 10
123.01
 20
206.63
 30
0.0
 41
1.0
 10
124.13
 20
205.38
 30
0.0
 41
1.0
  0
CIRCLE
  5
1C2
330
12
100
AcDbEntity
  8
0
100
AcDbCircle
 10
123.0
 20
204.51
 30
0.0
 40
0.49999999
  0
CIRCLE
  5
1C3
330
12
100
AcDbEntity
  8
0
100
AcDbCircle
 10
123.0
 20
212.51
 30
0.0
 40
0.49999999
  0
CIRCLE
  5
1C4
330
12
100
AcDbEntity
  8
0
100
AcDbCircle
 10
127.0
 20
209.01
 30
0.0
 40
1.49999997
  0
LWPOLYLINE
  5
1C5
330
12
100
AcDbEntity
  8
0
100
AcDbPolyline
 90
     4
 10
124.88
 20
209.01
 10
127.0
 20
206.89
 10
129.12
 20
209.01
 10
129.12
 20
209.01
  0
LWPOLYLINE
  5
1C6
330
12
100
AcDbEntity
  8
0
100
AcDbPolyline
 90
     4
 70
     1
 10
147.0
 20
213.51
 10
156.0
 20
213.51
 10
156.0
 20
203.51
 10
147.0
 20
203.51
  0
LWPOLYLINE
  5
1C7
330
12
100
AcDbEntity
  8
0
100
AcDbPolyline
 90
     2
 10
149.0
 20
215.51
 10
149.0
 20
201.51
  0
LWPOLYLINE
  5
1C8
330
12
100
AcDbEntity
  8
0
100
AcDbPolyline
 90
     3
 10
149.0
 20
204.51
 10
153.0
 20
204.51
 10
153.0
 20
206.89
  0
LWPOLYLINE
  5
1C9
330
12
100
AcDbEntity
  8
0
100
AcDbPolyline
 90
     3
 10
149.0
 20
212.51
 10
153.0
 20
212.51
 10
153.0
 20
210.51
  0
LWPOLYLINE
  5
1CA
330
12
100
AcDbEntity
  8
0
100
AcDbPolyline
 90
     2
 10
151.0
 20
206.01
 10
147.0
 20
211.01
  0
LWPOLYLINE
  5
1CB
330
12
100
AcDbEntity
  8
0
100
AcDbPolyline
 90
     3
 70
     1
 10
147.0
 20
211.01
 10
148.03
 20
208.76
 10
148.97
 20
209.51
  0
SPLINE
  5
1CC
330
12
100
AcDbEntity
  8
0
100
AcDbSpline
210
0.0
220
0.0
230
1.0
 70
    12
 71
     3
 72
     8
 73
     4
 40
0.0
 40
0.0
 40
0.0
 40
0.0
 40
1.0
 40
1.0
 40
1.0
 40
1.0
 10
147.88
 20
211.64
 30
0.0
 41
1.0
 10
149.0
 20
210.39
 30
0.0
 41
1.0
 10
149.0
 20
206.64
 30
0.0
 41
1.0
 10
147.88
 20
205.39
 30
0.0
 41
1.0
  0
SPLINE
  5
1CD
330
12
100
AcDbEntity
  8
0
100
AcDbSpline
210
0.0
220
0.0
230
1.0
 70
    12
 71
     3
 72
     8
 73
     4
 40
0.0
 40
0.0
 40
0.0
 40
0.0
 40
1.0
 40
1.0
 40
1.0
 40
1.0
 10
150.13
 20
211.63
 30
0.0
 41
1.0
 10
149.0
 20
210.39
 30
0.0
 41
1.0
 10
149.01
 20
206.63
 30
0.0
 41
1.0
 10
150.13
 20
205.38
 30
0.0
 41
1.0
  0
CIRCLE
  5
1CE
330
12
100
AcDbEntity
  8
0
100
AcDbCircle
 10
149.0
 20
204.51
 30
0.0
 40
0.49999999
  0
CIRCLE
  5
1CF
330
12
100
AcDbEntity
  8
0
100
AcDbCircle
 10
149.0
 20
212.51
 30
0.0
 40
0.49999999
  0
CIRCLE
  5
1D0
330
12
100
AcDbEntity
  8
0
100
AcDbCircle
 10
153.0
 20
209.01
 30
0.0
 40
1.49999997
  0
LWPOLYLINE
  5
1D1
330
12
100
AcDbEntity
  8
0
100
AcDbPolyline
 90
     4
 10
150.88
 20
209.01
 10
153.0
 20
206.89
 10
155.12
 20
209.01
 10
155.12
 20
209.01
  0
LWPOLYLINE
  5
1D2
330
12
100
AcDbEntity
  8
0
100
AcDbPolyline
 90
     4
 70
     1
 10
121.0
 20
229.51
 10
151.0
 20
229.51
 10
151.0
 20
219.51
 10
121.0
 20
219.51
  0
LWPOLYLINE
  5
1D3
330
12
100
AcDbEntity
  8
0
100
AcDbPolyline
 90
     4
 70
     1
 10
123.0
 20
227.51
 10
124.0
 20
227.51
 10
124.0
 20
221.51
 10
123.0
 20
221.51
  0
LWPOLYLINE
  5
1D4
330
12
100
AcDbEntity
  8
0
100
AcDbPolyline
 90
     4
 70
     1
 10
124.0
 20
229.01
 10
126.0
 20
229.01
 10
126.0
 20
220.01
 10
124.0
 20
220.01
  0
LWPOLYLINE
  5
1D5
330
12
100
AcDbEntity
  8
0
100
AcDbPolyline
 90
     4
 70
     1
 10
126.0
 20
227.51
 10
127.0
 20
227.51
 10
127.0
 20
221.51
 10
126.0
 20
221.51
  0
LWPOLYLINE
  5
1D6
330
12
100
AcDbEntity
  8
0
100
AcDbPolyline
 90
     4
 70
     1
 10
127.0
 20
229.01
 10
129.0
 20
229.01
 10
129.0
 20
220.01
 10
127.0
 20
220.01
  0
LWPOLYLINE
  5
1D7
330
12
100
AcDbEntity
  8
0
100
AcDbPolyline
 90
     4
 70
     1
 10
129.0
 20
227.51
 10
130.0
 20
227.51
 10
130.0
 20
221.51
 10
129.0
 20
221.51
  0
LWPOLYLINE
  5
1D8
330
12
100
AcDbEntity
  8
0
100
AcDbPolyline
 90
     4
 70
     1
 10
130.0
 20
225.51
 10
155.0
 20
225.51
 10
155.0
 20
223.51
 10
130.0
 20
223.51
  0
LWPOLYLINE
  5
1D9
330
12
100
AcDbEntity
  8
0
100
AcDbPolyline
 90
     3
 10
123.0
 20
219.51
 10
123.0
 20
217.64
 10
123.0
 20
215.51
  0
LWPOLYLINE
  5
1DA
330
12
100
AcDbEntity
  8
0
100
AcDbPolyline
 90
     3
 10
149.0
 20
219.51
 10
149.0
 20
217.64
 10
149.0
 20
215.51
  0
LWPOLYLINE
  5
1DB
330
12
100
AcDbEntity
  8
0
100
AcDbPolyline
 90
     2
 10
122.0
 20
220.01
 10
131.0
 20
229.01
  0
LWPOLYLINE
  5
1DC
330
12
100
AcDbEntity
  8
0
100
AcDbPolyline
 90
     3
 70
     1
 10
131.0
 20
229.01
 10
128.88
 20
227.74
 10
129.73
 20
226.89
  0
MTEXT
  5
1DD
330
12
100
AcDbEntity
  8
2-order-items
100
AcDbMText
 10
120.0
 20
252.76
 30
0.0
 40
2.064
 41
0.0
 71
     4
 72
     1
  1
24: AS1201F-M5-06A
 50
0.0
  0
MTEXT
  5
1DE
330
12
100
AcDbEntity
  8
2-order-items
100
AcDbMText
 10
120.0
 20
262.53
 30
0.0
 40
2.064
 41
0.0
 71
     4
 72
     1
  1
26: CD85N16-25C-B\P27: KJ6D\P28: C85C16
 50
0.0
  0
MTEXT
  5
1DF
330
12
100
AcDbEntity
  8
2-order-items
100
AcDbMText
 10
120.0
 20
248.76
 30
0.0
 40
2.064
 41
0.0
 71
     4
 72
     1
  1
25: AS1201F-M5-06A
 50
0.0
  0
LWPOLYLINE
  5
1E0
330
12
100
AcDbEntity
  8
3-links
100
AcDbPolyline
 90
     4
 10
132.0
 20
141.0
 10
132.0
 20
145.0
 10
150.0
 20
145.0
 10
150.0
 20
167.01
  0
LWPOLYLINE
  5
1E1
330
12
100
AcDbEntity
  8
3-links
100
AcDbPolyline
 90
     3
 10
123.0
 20
201.51
 10
123.0
 20
171.01
 10
126.0
 20
171.01
  0
MTEXT
  5
1E2
330
12
100
AcDbEntity
  8
2-order-items
100
AcDbMText
 10
172.2
 20
232.76
 30
0.0
 40
2.064
 41
0.0
 71
     5
 72
     1
  1
\L31, 32, 33
 50
0.0
  0
LWPOLYLINE
  5
1E3
330
12
100
AcDbEntity
  8
0
100
AcDbPolyline
 90
    64
 70
     1
 10
164.22222656
 20
231.01
 10
164.20912109
 20
230.86296875
 10
164.16992188
 20
230.71736328
 10
164.105
 20
230.57457031
 10
164.01501953
 20
230.43597656
 10
163.90078125
 20
230.30291016
 10
163.76344727
 20
230.17664063
 10
163.60430664
 20
230.05841797
 10
163.42490234
 20
229.94933594
 10
163.22696289
 20
229.85048828
 10
163.01239258
 20
229.76279297
 10
162.78325195
 20
229.68710938
 10
162.54175781
 20
229.62417969
 10
162.29022461
 20
229.57458984
 10
162.03108398
 20
229.53882813
 10
161.76682617
 20
229.51722656
 10
161.5
 20
229.51
 10
161.23318359
 20
229.51722656
 10
160.96892578
 20
229.53882813
 10
160.70978516
 20
229.57458984
 10
160.45825195
 20
229.62417969
 10
160.21675781
 20
229.68710938
 10
159.98761719
 20
229.76279297
 10
159.77304688
 20
229.85048828
 10
159.57509766
 20
229.94933594
 10
159.39569336
 20
230.05841797
 10
159.2365625
 20
230.17664063
 10
159.09921875
 20
230.30291016
 10
158.985
 20
230.43597656
 10
158.895
 20
230.57457031
 10
158.83008789
 20
230.71736328
 10
158.79088867
 20
230.86296875
 10
158.7777832
 20
231.01
 10
158.79088867
 20
231.15703125
 10
158.83008789
 20
231.30263672
 10
158.895
 20
231.44542969
 10
158.985
 20
231.58402344
 10
159.09921875
 20
231.71708984
 10
159.2365625
 20
231.84335938
 10
159.39570313
 20
231.96158203
 10
159.57510742
 20
232.07066406
 10
159.77304688
 20
232.16951172
 10
159.98761719
 20
232.25720703
 10
160.21675781
 20
232.33289063
 10
160.45825195
 20
232.39582031
 10
160.70978516
 20
232.44541016
 10
160.96892578
 20
232.48117188
 10
161.23318359
 20
232.50277344
 10
161.5
 20
232.51
 10
161.76682617
 20
232.50277344
 10
162.03108398
 20
232.48117188
 10
162.29022461
 20
232.44541016
 10
162.54175781
 20
232.39582031
 10
162.78325195
 20
232.33289063
 10
163.01239258
 20
232.25720703
 10
163.22696289
 20
232.16951172
 10
163.42490234
 20
232.07066406
 10
163.60430664
 20
231.96158203
 10
163.76344727
 20
231.84335938
 10
163.90078125
 20
231.71708984
 10
164.01501953
 20
231.58402344
 10
164.105
 20
231.44542969
 10
164.16992188
 20
231.30263672
 10
164.20912109
 20
231.15703125
  0
LWPOLYLINE
  5
1E4
330
12
100
AcDbEntity
  8
0
100
AcDbPolyline
 90
     3
 10
158.0
 20
231.01
 10
160.33
 20
231.01
 10
161.89
 20
231.76
  0
LWPOLYLINE
  5
1E5
330
12
100
AcDbEntity
  8
0
100
AcDbPolyline
 90
     3
 10
161.11
 20
230.26
 10
162.67
 20
231.01
 10
165.0
 20
231.01
  0
LWPOLYLINE
  5
1E6
330
12
100
AcDbEntity
  8
0
100
AcDbPolyline
 90
    64
 70
     1
 10
194.22222656
 20
231.01
 10
194.20912109
 20
230.86296875
 10
194.16992188
 20
230.71736328
 10
194.105
 20
230.57457031
 10
194.01501953
 20
230.43597656
 10
193.90078125
 20
230.30291016
 10
193.76345703
 20
230.17664063
 10
193.60431641
 20
230.05841797
 10
193.42490234
 20
229.94933594
 10
193.22697266
 20
229.85048828
 10
193.01238281
 20
229.76279297
 10
192.78324219
 20
229.68710938
 10
192.54175781
 20
229.62417969
 10
192.29021484
 20
229.57458984
 10
192.03107422
 20
229.53882813
 10
191.76683594
 20
229.51722656
 10
191.5
 20
229.51
 10
191.23318359
 20
229.51722656
 10
190.96892578
 20
229.53882813
 10
190.70978516
 20
229.57458984
 10
190.45826172
 20
229.62417969
 10
190.21675781
 20
229.68710938
 10
189.98761719
 20
229.76279297
 10
189.77304688
 20
229.85048828
 10
189.57509766
 20
229.94933594
 10
189.39570313
 20
230.05841797
 10
189.2365625
 20
230.17664063
 10
189.09921875
 20
230.30291016
 10
188.985
 20
230.43597656
 10
188.895
 20
230.57457031
 10
188.83009766
 20
230.71736328
 10
188.79089844
 20
230.86296875
 10
188.77777344
 20
231.01
 10
188.79089844
 20
231.15703125
 10
188.83009766
 20
231.30263672
 10
188.895
 20
231.44542969
 10
188.985
 20
231.58402344
 10
189.09921875
 20
231.71708984
 10
189.2365625
 20
231.84335938
 10
189.39570313
 20
231.96158203
 10
189.57509766
 20
232.07066406
 10
189.77304688
 20
232.16951172
 10
189.98761719
 20
232.25720703
 10
190.21675781
 20
232.33289063
 10
190.45826172
 20
232.39582031
 10
190.70978516
 20
232.44541016
 10
190.96892578
 20
232.48117188
 10
191.23318359
 20
232.50277344
 10
191.5
 20
232.51
 10
191.76683594
 20
232.50277344
 10
192.03107422
 20
232.48117188
 10
192.29021484
 20
232.44541016
 10
192.54175781
 20
232.39582031
 10
192.78324219
 20
232.33289063
 10
193.01238281
 20
232.25720703
 10
193.22697266
 20
232.16951172
 10
193.42490234
 20
232.07066406
 10
193.60431641
 20
231.96158203
 10
193.76345703
 20
231.84335938
 10
193.90078125
 20
231.71708984
 10
194.01501953
 20
231.58402344
 10
194.105
 20
231.44542969
 10
194.16992188
 20
231.30263672
 10
194.20912109
 20
231.15703125
  0
LWPOLYLINE
  5
1E7
330
12
100
AcDbEntity
  8
0
100
AcDbPolyline
 90
     3
 10
188.0
 20
231.01
 10
190.33
 20
231.01
 10
191.89
 20
231.76
  0
LWPOLYLINE
  5
1E8
330
12
100
AcDbEntity
  8
0
100
AcDbPolyline
 90
     3
 10
191.11
 20
230.26
 10
192.67
 20
231.01
 10
195.0
 20
231.01
  0
MTEXT
  5
1E9
330
12
100
AcDbEntity
  8
2-order-items
100
AcDbMText
 10
165.85
 20
216.76
 30
0.0
 40
2.064
 41
0.0
 71
     5
 72
     1
  1
\L29
 50
0.0
  0
MTEXT
  5
1EA
330
12
100
AcDbEntity
  8
2-order-items
100
AcDbMText
 10
191.85
 20
216.76
 30
0.0
 40
2.064
 41
0.0
 71
     5
 72
     1
  1
\L30
 50
0.0
  0
LWPOLYLINE
  5
1EB
330
12
100
AcDbEntity
  8
0
100
AcDbPolyline
 90
     4
 70
     1
 10
161.0
 20
213.51
 10
170.0
 20
213.51
 10
170.0
 20
203.51
 10
161.0
 20
203.51
  0
LWPOLYLINE
  5
1EC
330
12
100
AcDbEntity
  8
0
100
AcDbPolyline
 90
     2
 10
163.0
 20
215.51
 10
163.0
 20
201.51
  0
LWPOLYLINE
  5
1ED
330
12
100
AcDbEntity
  8
0
100
AcDbPolyline
 90
     3
 10
163.0
 20
204.51
 10
167.0
 20
204.51
 10
167.0
 20
206.89
  0
LWPOLYLINE
  5
1EE
330
12
100
AcDbEntity
  8
0
100
AcDbPolyline
 90
     3
 10
163.0
 20
212.51
 10
167.0
 20
212.51
 10
167.0
 20
210.51
  0
LWPOLYLINE
  5
1EF
330
12
100
AcDbEntity
  8
0
100
AcDbPolyline
 90
     2
 10
165.0
 20
206.01
 10
161.0
 20
211.01
  0
LWPOLYLINE
  5
1F0
330
12
100
AcDbEntity
  8
0
100
AcDbPolyline
 90
     3
 70
     1
 10
161.0
 20
211.01
 10
162.03
 20
208.76
 10
162.97
 20
209.51
  0
SPLINE
  5
1F1
330
12
100
AcDbEntity
  8
0
100
AcDbSpline
210
0.0
220
0.0
230
1.0
 70
    12
 71
     3
 72
     8
 73
     4
 40
0.0
 40
0.0
 40
0.0
 40
0.0
 40
1.0
 40
1.0
 40
1.0
 40
1.0
 10
161.88
 20
211.64
 30
0.0
 41
1.0
 10
163.0
 20
210.39
 30
0.0
 41
1.0
 10
163.0
 20
206.64
 30
0.0
 41
1.0
 10
161.88
 20
205.39
 30
0.0
 41
1.0
  0
SPLINE
  5
1F2
330
12
100
AcDbEntity
  8
0
100
AcDbSpline
210
0.0
220
0.0
230
1.0
 70
    12
 71
     3
 72
     8
 73
     4
 40
0.0
 40
0.0
 40
0.0
 40
0.0
 40
1.0
 40
1.0
 40
1.0
 40
1.0
 10
164.13
 20
211.63
 30
0.0
 41
1.0
 10
163.0
 20
210.39
 30
0.0
 41
1.0
 10
163.01
 20
206.63
 30
0.0
 41
1.0
 10
164.13
 20
205.38
 30
0.0
 41
1.0
  0
CIRCLE
  5
1F3
330
12
100
AcDbEntity
  8
0
100
AcDbCircle
 10
163.0
 20
204.51
 30
0.0
 40
0.49999999
  0
CIRCLE
  5
1F4
330
12
100
AcDbEntity
  8
0
100
AcDbCircle
 10
163.0
 20
212.51
 30
0.0
 40
0.49999999
  0
CIRCLE
  5
1F5
330
12
100
AcDbEntity
  8
0
100
AcDbCircle
 10
167.0
 20
209.01
 30
0.0
 40
1.49999997
  0
LWPOLYLINE
  5
1F6
330
12
100
AcDbEntity
  8
0
100
AcDbPolyline
 90
     4
 10
164.88
 20
209.01
 10
167.0
 20
206.89
 10
169.12
 20
209.01
 10
169.12
 20
209.01
  0
LWPOLYLINE
  5
1F7
330
12
100
AcDbEntity
  8
0
100
AcDbPolyline
 90
     4
 70
     1
 10
187.0
 20
213.51
 10
196.0
 20
213.51
 10
196.0
 20
203.51
 10
187.0
 20
203.51
  0
LWPOLYLINE
  5
1F8
330
12
100
AcDbEntity
  8
0
100
AcDbPolyline
 90
     2
 10
189.0
 20
215.51
 10
189.0
 20
201.51
  0
LWPOLYLINE
  5
1F9
330
12
100
AcDbEntity
  8
0
100
AcDbPolyline
 90
     3
 10
189.0
 20
204.51
 10
193.0
 20
204.51
 10
193.0
 20
206.89
  0
LWPOLYLINE
  5
1FA
330
12
100
AcDbEntity
  8
0
100
AcDbPolyline
 90
     3
 10
189.0
 20
212.51
 10
193.0
 20
212.51
 10
193.0
 20
210.51
  0
LWPOLYLINE
  5
1FB
330
12
100
AcDbEntity
  8
0
100
AcDbPolyline
 90
     2
 10
191.0
 20
206.01
 10
187.0
 20
211.01
  0
LWPOLYLINE
  5
1FC
330
12
100
AcDbEntity
  8
0
100
AcDbPolyline
 90
     3
 70
     1
 10
187.0
 20
211.01
 10
188.03
 20
208.76
 10
188.97
 20
209.51
  0
SPLINE
  5
1FD
330
12
100
AcDbEntity
  8
0
100
AcDbSpline
210
0.0
220
0.0
230
1.0
 70
    12
 71
     3
 72
     8
 73
     4
 40
0.0
 40
0.0
 40
0.0
 40
0.0
 40
1.0
 40
1.0
 40
1.0
 40
1.0
 10
187.88
 20
211.64
 30
0.0
 41
1.0
 10
189.0
 20
210.39
 30
0.0
 41
1.0
 10
189.0
 20
206.64
 30
0.0
 41
1.0
 10
187.88
 20
205.39
 30
0.0
 41
1.0
  0
SPLINE
  5
1FE
330
12
100
AcDbEntity
  8
0
100
AcDbSpline
210
0.0
220
0.0
230
1.0
 70
    12
 71
     3
 72
     8
 73
     4
 40
0.0
 40
0.0
 40
0.0
 40
0.0
 40
1.0
 40
1.0
 40
1.0
 40
1.0
 10
190.13
 20
211.63
 30
0.0
 41
1.0
 10
189.0
 20
210.39
 30
0.0
 41
1.0
 10
189.01
 20
206.63
 30
0.0
 41
1.0
 10
190.13
 20
205.38
 30
0.0
 41
1.0
  0
CIRCLE
  5
1FF
330
12
100
AcDbEntity
  8
0
100
AcDbCircle
 10
189.0
 20
204.51
 30
0.0
 40
0.49999999
  0
CIRCLE
  5
200
330
12
100
AcDbEntity
  8
0
100
AcDbCircle
 10
189.0
 20
212.51
 30
0.0
 40
0.49999999
  0
CIRCLE
  5
201
330
12
100
AcDbEntity
  8
0
100
AcDbCircle
 10
193.0
 20
209.01
 30
0.0
 40
1.49999997
  0
LWPOLYLINE
  5
202
330
12
100
AcDbEntity
  8
0
100
AcDbPolyline
 90
     4
 10
190.88
 20
209.01
 10
193.0
 20
206.89
 10
195.12
 20
209.01
 10
195.12
 20
209.01
  0
LWPOLYLINE
  5
203
330
12
100
AcDbEntity
  8
0
100
AcDbPolyline
 90
     4
 70
     1
 10
161.0
 20
229.51
 10
191.0
 20
229.51
 10
191.0
 20
219.51
 10
161.0
 20
219.51
  0
LWPOLYLINE
  5
204
330
12
100
AcDbEntity
  8
0
100
AcDbPolyline
 90
     4
 70
     1
 10
163.0
 20
227.51
 10
164.0
 20
227.51
 10
164.0
 20
221.51
 10
163.0
 20
221.51
  0
LWPOLYLINE
  5
205
330
12
100
AcDbEntity
  8
0
100
AcDbPolyline
 90
     4
 70
     1
 10
164.0
 20
229.01
 10
166.0
 20
229.01
 10
166.0
 20
220.01
 10
164.0
 20
220.01
  0
LWPOLYLINE
  5
206
330
12
100
AcDbEntity
  8
0
100
AcDbPolyline
 90
     4
 70
     1
 10
166.0
 20
227.51
 10
167.0
 20
227.51
 10
167.0
 20
221.51
 10
166.0
 20
221.51
  0
LWPOLYLINE
  5
207
330
12
100
AcDbEntity
  8
0
100
AcDbPolyline
 90
     4
 70
     1
 10
167.0
 20
229.01
 10
169.0
 20
229.01
 10
169.0
 20
220.01
 10
167.0
 20
220.01
  0
LWPOLYLINE
  5
208
330
12
100
AcDbEntity
  8
0
100
AcDbPolyline
 90
     4
 70
     1
 10
169.0
 20
227.51
 10
170.0
 20
227.51
 10
170.0
 20
221.51
 10
169.0
 20
221.51
  0
LWPOLYLINE
  5
209
330
12
100
AcDbEntity
  8
0
100
AcDbPolyline
 90
     4
 70
     1
 10
170.0
 20
225.51
 10
195.0
 20
225.51
 10
195.0
 20
223.51
 10
170.0
 20
223.51
  0
LWPOLYLINE
  5
20A
330
12
100
AcDbEntity
  8
0
100
AcDbPolyline
 90
     3
 10
163.0
 20
219.51
 10
163.0
 20
217.64
 10
163.0
 20
215.51
  0
LWPOLYLINE
  5
20B
330
12
100
AcDbEntity
  8
0
100
AcDbPolyline
 90
     3
 10
189.0
 20
219.51
 10
189.0
 20
217.64
 10
189.0
 20
215.51
  0
LWPOLYLINE
  5
20C
330
12
100
AcDbEntity
  8
0
100
AcDbPolyline
 90
     2
 10
162.0
 20
220.01
 10
171.0
 20
229.01
  0
LWPOLYLINE
  5
20D
330
12
100
AcDbEntity
  8
0
100
AcDbPolyline
 90
     3
 70
     1
 10
171.0
 20
229.01
 10
168.88
 20
227.74
 10
169.73
 20
226.89
  0
MTEXT
  5
20E
330
12
100
AcDbEntity
  8
2-order-items
100
AcDbMText
 10
160.0
 20
252.76
 30
0.0
 40
2.064
 41
0.0
 71
     4
 72
     1
  1
29: AS1201F-M5-06A
 50
0.0
  0
MTEXT
  5
20F
330
12
100
AcDbEntity
  8
2-order-items
100
AcDbMText
 10
160.0
 20
262.53
 30
0.0
 40
2.064
 41
0.0
 71
     4
 72
     1
  1
31: CD85N16-25C-B\P32: KJ6D\P33: C85C16
 50
0.0
  0
MTEXT
  5
210
330
12
100
AcDbEntity
  8
2-order-items
100
AcDbMText
 10
160.0
 20
248.76
 30
0.0
 40
2.064
 41
0.0
 71
     4
 72
     1
  1
30: AS1201F-M5-06A
 50
0.0
  0
LWPOLYLINE
  5
211
330
12
100
AcDbEntity
  8
0
100
AcDbPolyline
 90
     2
 10
40.0
 20
179.01
 10
48.0
 20
179.01
  0
LWPOLYLINE
  5
212
330
12
100
AcDbEntity
  8
0
100
AcDbPolyline
 90
     2
 10
44.0
 20
179.01
 10
44.0
 20
175.01
  0
CIRCLE
  5
213
330
12
100
AcDbEntity
  8
0
100
AcDbCircle
 10
44.0
 20
179.01
 30
0.0
 40
0.5
  0
MTEXT
  5
214
330
12
100
AcDbEntity
  8
2-order-items
100
AcDbMText
 10
44.85
 20
182.76
 30
0.0
 40
2.064
 41
0.0
 71
     5
 72
     1
  1
\L34
 50
0.0
  0
MTEXT
  5
215
330
12
100
AcDbEntity
  8
2-order-items
100
AcDbMText
 10
16.0
 20
174.76
 30
0.0
 40
2.064
 41
0.0
 71
     4
 72
     1
  1
34: KQ2U06-08A
 50
0.0
  0
LWPOLYLINE
  5
216
330
12
100
AcDbEntity
  8
3-links
100
AcDbPolyline
 90
     4
 10
27.0
 20
201.51
 10
27.0
 20
190.01
 10
40.0
 20
190.01
 10
40.0
 20
179.01
  0
LWPOLYLINE
  5
217
330
12
100
AcDbEntity
  8
3-links
100
AcDbPolyline
 90
     4
 10
53.0
 20
201.51
 10
53.0
 20
188.26
 10
64.0
 20
188.26
 10
64.0
 20
175.01
  0
LWPOLYLINE
  5
218
330
12
100
AcDbEntity
  8
3-links
100
AcDbPolyline
 90
     4
 10
126.0
 20
141.0
 10
126.0
 20
151.01
 10
130.0
 20
151.01
 10
130.0
 20
167.01
  0
LWPOLYLINE
  5
219
330
12
100
AcDbEntity
  8
3-links
100
AcDbPolyline
 90
     4
 10
134.0
 20
171.01
 10
134.0
 20
183.0
 10
163.0
 20
183.0
 10
163.0
 20
201.51
  0
LWPOLYLINE
  5
21A
330
12
100
AcDbEntity
  8
3-links
100
AcDbPolyline
 90
     3
 10
149.0
 20
201.51
 10
146.0
 20
201.51
 10
146.0
 20
171.01
  0
LWPOLYLINE
  5
21B
330
12
100
AcDbEntity
  8
3-links
100
AcDbPolyline
 90
     3
 10
154.0
 20
171.01
 10
189.0
 20
171.01
 10
189.0
 20
201.51
  0
CIRCLE
  5
21C
330
12
100
AcDbEntity
  8
0
100
AcDbCircle
 10
63.0
 20
138.0
 30
0.0
 40
0.99999998
  0
LWPOLYLINE
  5
21D
330
12
100
AcDbEntity
  8
0
100
AcDbPolyline
 90
     2
 10
63.0
 20
141.0
 10
63.0
 20
135.0
  0
MTEXT
  5
21E
330
12
100
AcDbEntity
  8
2-order-items
100
AcDbMText
 10
66.85
 20
144.25
 30
0.0
 40
2.064
 41
0.0
 71
     5
 72
     1
  1
\L35
 50
0.0
  0
CIRCLE
  5
21F
330
12
100
AcDbEntity
  8
0
100
AcDbCircle
 10
69.0
 20
138.0
 30
0.0
 40
0.99999998
  0
LWPOLYLINE
  5
220
330
12
100
AcDbEntity
  8
0
100
AcDbPolyline
 90
     2
 10
69.0
 20
141.0
 10
69.0
 20
135.0
  0
MTEXT
  5
221
330
12
100
AcDbEntity
  8
2-order-items
100
AcDbMText
 10
72.85
 20
144.25
 30
0.0
 40
2.064
 41
0.0
 71
     5
 72
     1
  1
\L36
 50
0.0
  0
CIRCLE
  5
222
330
12
100
AcDbEntity
  8
0
100
AcDbCircle
 10
126.0
 20
138.0
 30
0.0
 40
0.99999998
  0
LWPOLYLINE
  5
223
330
12
100
AcDbEntity
  8
0
100
AcDbPolyline
 90
     2
 10
126.0
 20
141.0
 10
126.0
 20
135.0
  0
MTEXT
  5
224
330
12
100
AcDbEntity
  8
2-order-items
100
AcDbMText
 10
118.85
 20
142.76
 30
0.0
 40
2.064
 41
0.0
 71
     5
 72
     1
  1
\L37
 50
0.0
  0
CIRCLE
  5
225
330
12
100
AcDbEntity
  8
0
100
AcDbCircle
 10
132.0
 20
138.0
 30
0.0
 40
0.99999998
  0
LWPOLYLINE
  5
226
330
12
100
AcDbEntity
  8
0
100
AcDbPolyline
 90
     2
 10
132.0
 20
141.0
 10
132.0
 20
135.0
  0
MTEXT
  5
227
330
12
100
AcDbEntity
  8
2-order-items
100
AcDbMText
 10
135.85
 20
144.25
 30
0.0
 40
2.064
 41
0.0
 71
     5
 72
     1
  1
\L38
 50
0.0
  0
LWPOLYLINE
  5
228
330
12
100
AcDbEntity
  8
0
100
AcDbPolyline
 90
     2
 10
64.0
 20
175.01
 10
72.0
 20
175.01
  0
LWPOLYLINE
  5
229
330
12
100
AcDbEntity
  8
0
100
AcDbPolyline
 90
     2
 10
68.0
 20
175.01
 10
68.0
 20
171.01
  0
CIRCLE
  5
22A
330
12
100
AcDbEntity
  8
0
100
AcDbCircle
 10
68.0
 20
175.01
 30
0.0
 40
0.5
  0
MTEXT
  5
22B
330
12
100
AcDbEntity
  8
2-order-items
100
AcDbMText
 10
68.85
 20
178.76
 30
0.0
 40
2.064
 41
0.0
 71
     5
 72
     1
  1
\L40
 50
0.0
  0
MTEXT
  5
22C
330
12
100
AcDbEntity
  8
2-order-items
100
AcDbMText
 10
56.0
 20
170.76
 30
0.0
 40
2.064
 41
0.0
 71
     4
 72
     1
  1
40: KQ2U06-08A
 50
0.0
  0
LWPOLYLINE
  5
22D
330
12
100
AcDbEntity
  8
0
100
AcDbPolyline
 90
     2
 10
126.0
 20
171.01
 10
134.0
 20
171.01
  0
LWPOLYLINE
  5
22E
330
12
100
AcDbEntity
  8
0
100
AcDbPolyline
 90
     2
 10
130.0
 20
171.01
 10
130.0
 20
167.01
  0
CIRCLE
  5
22F
330
12
100
AcDbEntity
  8
0
100
AcDbCircle
 10
130.0
 20
171.01
 30
0.0
 40
0.5
  0
MTEXT
  5
230
330
12
100
AcDbEntity
  8
2-order-items
100
AcDbMText
 10
130.85
 20
174.76
 30
0.0
 40
2.064
 41
0.0
 71
     5
 72
     1
  1
\L41
 50
0.0
  0
MTEXT
  5
231
330
12
100
AcDbEntity
  8
2-order-items
100
AcDbMText
 10
98.0
 20
166.76
 30
0.0
 40
2.064
 41
0.0
 71
     4
 72
     1
  1
41: KQ2U06-08A
 50
0.0
  0
LWPOLYLINE
  5
232
330
12
100
AcDbEntity
  8
0
100
AcDbPolyline
 90
     2
 10
146.0
 20
171.01
 10
154.0
 20
171.01
  0
LWPOLYLINE
  5
233
330
12
100
AcDbEntity
  8
0
100
AcDbPolyline
 90
     2
 10
150.0
 20
171.01
 10
150.0
 20
167.01
  0
CIRCLE
  5
234
330
12
100
AcDbEntity
  8
0
100
AcDbCircle
 10
150.0
 20
171.01
 30
0.0
 40
0.5
  0
MTEXT
  5
235
330
12
100
AcDbEntity
  8
2-order-items
100
AcDbMText
 10
150.85
 20
174.76
 30
0.0
 40
2.064
 41
0.0
 71
     5
 72
     1
  1
\L42
 50
0.0
  0
MTEXT
  5
236
330
12
100
AcDbEntity
  8
2-order-items
100
AcDbMText
 10
152.0
 20
166.76
 30
0.0
 40
2.064
 41
0.0
 71
     4
 72
     1
  1
42: KQ2U06-08A
 50
0.0
  0
LWPOLYLINE
  5
237
330
12
100
AcDbEntity
  8
0
100
AcDbPolyline
 90
     4
 70
     1
 10
204.0
 20
247.51
 10
234.0
 20
247.51
 10
234.0
 20
242.51
 10
204.0
 20
242.51
  0
LWPOLYLINE
  5
238
330
12
100
AcDbEntity
  8
0
100
AcDbPolyline
 90
     4
 70
     1
 10
204.0
 20
242.51
 10
234.0
 20
242.51
 10
234.0
 20
237.51
 10
204.0
 20
237.51
  0
LWPOLYLINE
  5
239
330
12
100
AcDbEntity
  8
0
100
AcDbPolyline
 90
     4
 70
     1
 10
239.0
 20
247.51
 10
241.0
 20
247.51
 10
241.0
 20
237.51
 10
239.0
 20
237.51
  0
LWPOLYLINE
  5
23A
330
12
100
AcDbEntity
  8
0
100
AcDbPolyline
 90
     3
 10
206.0
 20
237.51
 10
206.0
 20
235.64
 10
206.0
 20
233.51
  0
LWPOLYLINE
  5
23B
330
12
100
AcDbEntity
  8
0
100
AcDbPolyline
 90
     4
 70
     1
 10
209.0
 20
246.01
 10
239.0
 20
246.01
 10
239.0
 20
244.01
 10
209.0
 20
244.01
  0
LWPOLYLINE
  5
23C
330
12
100
AcDbEntity
  8
0
100
AcDbPolyline
 90
     3
 10
232.0
 20
237.51
 10
232.0
 20
235.64
 10
232.0
 20
233.51
  0
LWPOLYLINE
  5
23D
330
12
100
AcDbEntity
  8
0
100
AcDbPolyline
 90
     4
 70
     1
 10
209.0
 20
241.01
 10
239.0
 20
241.01
 10
239.0
 20
239.01
 10
209.0
 20
239.01
  0
LWPOLYLINE
  5
23E
330
12
100
AcDbEntity
  8
0
100
AcDbPolyline
 90
     4
 70
     1
 10
207.0
 20
242.01
 10
209.0
 20
242.01
 10
209.0
 20
238.01
 10
207.0
 20
238.01
  0
LWPOLYLINE
  5
23F
330
12
100
AcDbEntity
  8
0
100
AcDbPolyline
 90
     4
 70
     1
 10
207.0
 20
247.01
 10
209.0
 20
247.01
 10
209.0
 20
243.01
 10
207.0
 20
243.01
  0
MTEXT
  5
240
330
12
100
AcDbEntity
  8
2-order-items
100
AcDbMText
 10
208.85
 20
250.76
 30
0.0
 40
2.064
 41
0.0
 71
     5
 72
     1
  1
\L43
 50
0.0
  0
MTEXT
  5
241
330
12
100
AcDbEntity
  8
2-order-items
100
AcDbMText
 10
218.0
 20
260.76
 30
0.0
 40
2.064
 41
0.0
 71
     4
 72
     1
  1
43: ECXSM32-30
 50
0.0
  0
LWPOLYLINE
  5
242
330
12
100
AcDbEntity
  8
0
100
AcDbPolyline
 90
     4
 70
     1
 10
204.0
 20
231.51
 10
213.0
 20
231.51
 10
213.0
 20
221.51
 10
204.0
 20
221.51
  0
LWPOLYLINE
  5
243
330
12
100
AcDbEntity
  8
0
100
AcDbPolyline
 90
     2
 10
206.0
 20
233.51
 10
206.0
 20
219.51
  0
LWPOLYLINE
  5
244
330
12
100
AcDbEntity
  8
0
100
AcDbPolyline
 90
     3
 10
206.0
 20
222.51
 10
210.0
 20
222.51
 10
210.0
 20
224.89
  0
LWPOLYLINE
  5
245
330
12
100
AcDbEntity
  8
0
100
AcDbPolyline
 90
     3
 10
206.0
 20
230.51
 10
210.0
 20
230.51
 10
210.0
 20
228.51
  0
LWPOLYLINE
  5
246
330
12
100
AcDbEntity
  8
0
100
AcDbPolyline
 90
     2
 10
208.0
 20
224.01
 10
204.0
 20
229.01
  0
LWPOLYLINE
  5
247
330
12
100
AcDbEntity
  8
0
100
AcDbPolyline
 90
     3
 70
     1
 10
204.0
 20
229.01
 10
205.03
 20
226.76
 10
205.97
 20
227.51
  0
SPLINE
  5
248
330
12
100
AcDbEntity
  8
0
100
AcDbSpline
210
0.0
220
0.0
230
1.0
 70
    12
 71
     3
 72
     8
 73
     4
 40
0.0
 40
0.0
 40
0.0
 40
0.0
 40
1.0
 40
1.0
 40
1.0
 40
1.0
 10
204.88
 20
229.64
 30
0.0
 41
1.0
 10
206.0
 20
228.39
 30
0.0
 41
1.0
 10
206.0
 20
224.64
 30
0.0
 41
1.0
 10
204.88
 20
223.39
 30
0.0
 41
1.0
  0
SPLINE
  5
249
330
12
100
AcDbEntity
  8
0
100
AcDbSpline
210
0.0
220
0.0
230
1.0
 70
    12
 71
     3
 72
     8
 73
     4
 40
0.0
 40
0.0
 40
0.0
 40
0.0
 40
1.0
 40
1.0
 40
1.0
 40
1.0
 10
207.13
 20
229.63
 30
0.0
 41
1.0
 10
206.0
 20
228.39
 30
0.0
 41
1.0
 10
206.01
 20
224.63
 30
0.0
 41
1.0
 10
207.13
 20
223.38
 30
0.0
 41
1.0
  0
CIRCLE
  5
24A
330
12
100
AcDbEntity
  8
0
100
AcDbCircle
 10
206.0
 20
222.51
 30
0.0
 40
0.49999999
  0
CIRCLE
  5
24B
330
12
100
AcDbEntity
  8
0
100
AcDbCircle
 10
206.0
 20
230.51
 30
0.0
 40
0.49999999
  0
CIRCLE
  5
24C
330
12
100
AcDbEntity
  8
0
100
AcDbCircle
 10
210.0
 20
227.01
 30
0.0
 40
1.49999997
  0
LWPOLYLINE
  5
24D
330
12
100
AcDbEntity
  8
0
100
AcDbPolyline
 90
     4
 10
207.88
 20
227.01
 10
210.0
 20
224.89
 10
212.12
 20
227.01
 10
212.12
 20
227.01
  0
MTEXT
  5
24E
330
12
100
AcDbEntity
  8
2-order-items
100
AcDbMText
 10
208.93
 20
234.76
 30
0.0
 40
2.064
 41
0.0
 71
     5
 72
     1
  1
\L44
 50
0.0
  0
MTEXT
  5
24F
330
12
100
AcDbEntity
  8
2-order-items
100
AcDbMText
 10
218.0
 20
256.76
 30
0.0
 40
2.064
 41
0.0
 71
     4
 72
     1
  1
44: AS2201F-01-08SA
 50
0.0
  0
LWPOLYLINE
  5
250
330
12
100
AcDbEntity
  8
0
100
AcDbPolyline
 90
     4
 70
     1
 10
230.0
 20
231.51
 10
239.0
 20
231.51
 10
239.0
 20
221.51
 10
230.0
 20
221.51
  0
LWPOLYLINE
  5
251
330
12
100
AcDbEntity
  8
0
100
AcDbPolyline
 90
     2
 10
232.0
 20
233.51
 10
232.0
 20
219.51
  0
LWPOLYLINE
  5
252
330
12
100
AcDbEntity
  8
0
100
AcDbPolyline
 90
     3
 10
232.0
 20
222.51
 10
236.0
 20
222.51
 10
236.0
 20
224.89
  0
LWPOLYLINE
  5
253
330
12
100
AcDbEntity
  8
0
100
AcDbPolyline
 90
     3
 10
232.0
 20
230.51
 10
236.0
 20
230.51
 10
236.0
 20
228.51
  0
LWPOLYLINE
  5
254
330
12
100
AcDbEntity
  8
0
100
AcDbPolyline
 90
     2
 10
234.0
 20
224.01
 10
230.0
 20
229.01
  0
LWPOLYLINE
  5
255
330
12
100
AcDbEntity
  8
0
100
AcDbPolyline
 90
     3
 70
     1
 10
230.0
 20
229.01
 10
231.03
 20
226.76
 10
231.97
 20
227.51
  0
SPLINE
  5
256
330
12
100
AcDbEntity
  8
0
100
AcDbSpline
210
0.0
220
0.0
230
1.0
 70
    12
 71
     3
 72
     8
 73
     4
 40
0.0
 40
0.0
 40
0.0
 40
0.0
 40
1.0
 40
1.0
 40
1.0
 40
1.0
 10
230.88
 20
229.64
 30
0.0
 41
1.0
 10
232.0
 20
228.39
 30
0.0
 41
1.0
 10
232.0
 20
224.64
 30
0.0
 41
1.0
 10
230.88
 20
223.39
 30
0.0
 41
1.0
  0
SPLINE
  5
257
330
12
100
AcDbEntity
  8
0
100
AcDbSpline
210
0.0
220
0.0
230
1.0
 70
    12
 71
     3
 72
     8
 73
     4
 40
0.0
 40
0.0
 40
0.0
 40
0.0
 40
1.0
 40
1.0
 40
1.0
 40
1.0
 10
233.13
 20
229.63
 30
0.0
 41
1.0
 10
232.0
 20
228.39
 30
0.0
 41
1.0
 10
232.01
 20
224.63
 30
0.0
 41
1.0
 10
233.13
 20
223.38
 30
0.0
 41
1.0
  0
CIRCLE
  5
258
330
12
100
AcDbEntity
  8
0
100
AcDbCircle
 10
232.0
 20
222.51
 30
0.0
 40
0.49999999
  0
CIRCLE
  5
259
330
12
100
AcDbEntity
  8
0
100
AcDbCircle
 10
232.0
 20
230.51
 30
0.0
 40
0.49999999
  0
CIRCLE
  5
25A
330
12
100
AcDbEntity
  8
0
100
AcDbCircle
 10
236.0
 20
227.01
 30
0.0
 40
1.49999997
  0
LWPOLYLINE
  5
25B
330
12
100
AcDbEntity
  8
0
100
AcDbPolyline
 90
     4
 10
233.88
 20
227.01
 10
236.0
 20
224.89
 10
238.12
 20
227.01
 10
238.12
 20
227.01
  0
MTEXT
  5
25C
330
12
100
AcDbEntity
  8
2-order-items
100
AcDbMText
 10
234.93
 20
234.76
 30
0.0
 40
2.064
 41
0.0
 71
     5
 72
     1
  1
\L45
 50
0.0
  0
MTEXT
  5
25D
330
12
100
AcDbEntity
  8
2-order-items
100
AcDbMText
 10
218.0
 20
252.76
 30
0.0
 40
2.064
 41
0.0
 71
     4
 72
     1
  1
45: AS2201F-01-08SA
 50
0.0
  0
CIRCLE
  5
25E
330
12
100
AcDbEntity
  8
0
100
AcDbCircle
 10
189.0
 20
138.0
 30
0.0
 40
0.99999998
  0
LWPOLYLINE
  5
25F
330
12
100
AcDbEntity
  8
0
100
AcDbPolyline
 90
     2
 10
189.0
 20
141.0
 10
189.0
 20
135.0
  0
MTEXT
  5
260
330
12
100
AcDbEntity
  8
2-order-items
100
AcDbMText
 10
184.85
 20
142.76
 30
0.0
 40
2.064
 41
0.0
 71
     5
 72
     1
  1
\L46
 50
0.0
  0
CIRCLE
  5
261
330
12
100
AcDbEntity
  8
0
100
AcDbCircle
 10
195.0
 20
138.0
 30
0.0
 40
0.99999998
  0
LWPOLYLINE
  5
262
330
12
100
AcDbEntity
  8
0
100
AcDbPolyline
 90
     2
 10
195.0
 20
141.0
 10
195.0
 20
135.0
  0
MTEXT
  5
263
330
12
100
AcDbEntity
  8
2-order-items
100
AcDbMText
 10
200.85
 20
140.76
 30
0.0
 40
2.064
 41
0.0
 71
     5
 72
     1
  1
\L47
 50
0.0
  0
MTEXT
  5
264
330
12
100
AcDbEntity
  8
2-order-items
100
AcDbMText
 10
196.0
 20
144.76
 30
0.0
 40
2.064
 41
0.0
 71
     4
 72
     1
  1
47: KQ2H08-01AS
 50
0.0
  0
LWPOLYLINE
  5
265
330
12
100
AcDbEntity
  8
3-links
100
AcDbPolyline
 90
     4
 10
206.0
 20
219.51
 10
206.0
 20
167.0
 10
189.0
 20
167.0
 10
189.0
 20
141.0
  0
LWPOLYLINE
  5
266
330
12
100
AcDbEntity
  8
3-links
100
AcDbPolyline
 90
     4
 10
232.0
 20
219.51
 10
232.0
 20
163.0
 10
195.0
 20
163.0
 10
195.0
 20
141.0
  0
LWPOLYLINE
  5
267
330
12
100
AcDbEntity
  8
0
100
AcDbPolyline
 90
     2
 10
163.0
 20
117.0
 10
191.0
 20
117.0
  0
LWPOLYLINE
  5
268
330
12
100
AcDbEntity
  8
0
100
AcDbPolyline
 90
     2
 10
163.0
 20
113.0
 10
194.0
 20
113.0
  0
LWPOLYLINE
  5
269
330
12
100
AcDbEntity
  8
0
100
AcDbPolyline
 90
     3
 10
163.0
 20
109.0
 10
194.83
 20
109.0
 10
226.0
 20
109.0
  0
LWPOLYLINE
  5
26A
330
12
100
AcDbEntity
  8
0
100
AcDbPolyline
 90
     2
 10
195.0
 20
125.0
 10
195.0
 20
109.0
  0
LWPOLYLINE
  5
26B
330
12
100
AcDbEntity
  8
0
100
AcDbPolyline
 90
     2
 10
192.0
 20
125.0
 10
192.0
 20
113.0
  0
LWPOLYLINE
  5
26C
330
12
100
AcDbEntity
  8
0
100
AcDbPolyline
 90
     2
 10
189.0
 20
125.0
 10
189.0
 20
117.0
  0
CIRCLE
  5
26D
330
12
100
AcDbEntity
  8
0
100
AcDbCircle
 10
192.0
 20
113.0
 30
0.0
 40
0.49999999
  0
CIRCLE
  5
26E
330
12
100
AcDbEntity
  8
0
100
AcDbCircle
 10
195.0
 20
109.0
 30
0.0
 40
0.49999999
  0
CIRCLE
  5
26F
330
12
100
AcDbEntity
  8
0
100
AcDbCircle
 10
189.0
 20
117.0
 30
0.0
 40
0.49999999
  0
SPLINE
  5
270
330
12
100
AcDbEntity
  8
0
100
AcDbSpline
210
0.0
220
0.0
230
1.0
 70
    12
 71
     3
 72
     8
 73
     4
 40
0.0
 40
0.0
 40
0.0
 40
0.0
 40
1.0
 40
1.0
 40
1.0
 40
1.0
 10
191.01
 20
116.99
 30
0.0
 41
1.0
 10
191.01
 20
117.56
 30
0.0
 41
1.0
 10
191.44
 20
117.99
 30
0.0
 41
1.0
 10
192.01
 20
117.99
 30
0.0
 41
1.0
  0
SPLINE
  5
271
330
12
100
AcDbEntity
  8
0
100
AcDbSpline
210
0.0
220
0.0
230
1.0
 70
    12
 71
     3
 72
     8
 73
     4
 40
0.0
 40
0.0
 40
0.0
 40
0.0
 40
1.0
 40
1.0
 40
1.0
 40
1.0
 10
192.01
 20
117.99
 30
0.0
 41
1.0
 10
192.58
 20
117.99
 30
0.0
 41
1.0
 10
193.01
 20
117.56
 30
0.0
 41
1.0
 10
193.01
 20
116.99
 30
0.0
 41
1.0
  0
SPLINE
  5
272
330
12
100
AcDbEntity
  8
0
100
AcDbSpline
210
0.0
220
0.0
230
1.0
 70
    12
 71
     3
 72
     8
 73
     4
 40
0.0
 40
0.0
 40
0.0
 40
0.0
 40
1.0
 40
1.0
 40
1.0
 40
1.0
 10
194.01
 20
112.99
 30
0.0
 41
1.0
 10
194.01
 20
113.56
 30
0.0
 41
1.0
 10
194.44
 20
113.99
 30
0.0
 41
1.0
 10
195.01
 20
113.99
 30
0.0
 41
1.0
  0
SPLINE
  5
273
330
12
100
AcDbEntity
  8
0
100
AcDbSpline
210
0.0
220
0.0
230
1.0
 70
    12
 71
     3
 72
     8
 73
     4
 40
0.0
 40
0.0
 40
0.0
 40
0.0
 40
1.0
 40
1.0
 40
1.0
 40
1.0
 10
195.01
 20
113.99
 30
0.0
 41
1.0
 10
195.58
 20
113.99
 30
0.0
 41
1.0
 10
196.01
 20
113.56
 30
0.0
 41
1.0
 10
196.01
 20
112.99
 30
0.0
 41
1.0
  0
SPLINE
  5
274
330
12
100
AcDbEntity
  8
0
100
AcDbSpline
210
0.0
220
0.0
230
1.0
 70
    12
 71
     3
 72
     8
 73
     4
 40
0.0
 40
0.0
 40
0.0
 40
0.0
 40
1.0
 40
1.0
 40
1.0
 40
1.0
 10
194.01
 20
116.99
 30
0.0
 41
1.0
 10
194.01
 20
117.56
 30
0.0
 41
1.0
 10
194.44
 20
117.99
 30
0.0
 41
1.0
 10
195.01
 20
117.99
 30
0.0
 41
1.0
  0
SPLINE
  5
275
330
12
100
AcDbEntity
  8
0
100
AcDbSpline
210
0.0
220
0.0
230
1.0
 70
    12
 71
     3
 72
     8
 73
     4
 40
0.0
 40
0.0
 40
0.0
 40
0.0
 40
1.0
 40
1.0
 40
1.0
 40
1.0
 10
195.01
 20
117.99
 30
0.0
 41
1.0
 10
195.58
 20
117.99
 30
0.0
 41
1.0
 10
196.01
 20
117.56
 30
0.0
 41
1.0
 10
196.01
 20
116.99
 30
0.0
 41
1.0
  0
LWPOLYLINE
  5
276
330
12
100
AcDbEntity
  8
0
100
AcDbPolyline
 90
     2
 10
193.0
 20
117.0
 10
194.0
 20
117.0
  0
LWPOLYLINE
  5
277
330
12
100
AcDbEntity
  8
0
100
AcDbPolyline
 90
     2
 10
196.0
 20
117.0
 10
226.0
 20
117.0
  0
LWPOLYLINE
  5
278
330
12
100
AcDbEntity
  8
0
100
AcDbPolyline
 90
     2
 10
196.0
 20
113.0
 10
226.0
 20
113.0
  0
LWPOLYLINE
  5
279
330
12
100
AcDbEntity
  8
0
100
AcDbPolyline
 90
     2
 10
289.0
 20
117.0
 10
317.0
 20
117.0
  0
LWPOLYLINE
  5
27A
330
12
100
AcDbEntity
  8
0
100
AcDbPolyline
 90
     2
 10
289.0
 20
113.0
 10
320.0
 20
113.0
  0
LWPOLYLINE
  5
27B
330
12
100
AcDbEntity
  8
0
100
AcDbPolyline
 90
     3
 10
289.0
 20
109.0
 10
320.83
 20
109.0
 10
352.0
 20
109.0
  0
LWPOLYLINE
  5
27C
330
12
100
AcDbEntity
  8
0
100
AcDbPolyline
 90
     2
 10
321.0
 20
125.0
 10
321.0
 20
109.0
  0
LWPOLYLINE
  5
27D
330
12
100
AcDbEntity
  8
0
100
AcDbPolyline
 90
     2
 10
318.0
 20
125.0
 10
318.0
 20
113.0
  0
LWPOLYLINE
  5
27E
330
12
100
AcDbEntity
  8
0
100
AcDbPolyline
 90
     2
 10
315.0
 20
125.0
 10
315.0
 20
117.0
  0
CIRCLE
  5
27F
330
12
100
AcDbEntity
  8
0
100
AcDbCircle
 10
318.0
 20
113.0
 30
0.0
 40
0.49999999
  0
CIRCLE
  5
280
330
12
100
AcDbEntity
  8
0
100
AcDbCircle
 10
321.0
 20
109.0
 30
0.0
 40
0.49999999
  0
CIRCLE
  5
281
330
12
100
AcDbEntity
  8
0
100
AcDbCircle
 10
315.0
 20
117.0
 30
0.0
 40
0.49999999
  0
SPLINE
  5
282
330
12
100
AcDbEntity
  8
0
100
AcDbSpline
210
0.0
220
0.0
230
1.0
 70
    12
 71
     3
 72
     8
 73
     4
 40
0.0
 40
0.0
 40
0.0
 40
0.0
 40
1.0
 40
1.0
 40
1.0
 40
1.0
 10
317.01
 20
116.99
 30
0.0
 41
1.0
 10
317.01
 20
117.56
 30
0.0
 41
1.0
 10
317.44
 20
117.99
 30
0.0
 41
1.0
 10
318.01
 20
117.99
 30
0.0
 41
1.0
  0
SPLINE
  5
283
330
12
100
AcDbEntity
  8
0
100
AcDbSpline
210
0.0
220
0.0
230
1.0
 70
    12
 71
     3
 72
     8
 73
     4
 40
0.0
 40
0.0
 40
0.0
 40
0.0
 40
1.0
 40
1.0
 40
1.0
 40
1.0
 10
318.01
 20
117.99
 30
0.0
 41
1.0
 10
318.58
 20
117.99
 30
0.0
 41
1.0
 10
319.01
 20
117.56
 30
0.0
 41
1.0
 10
319.01
 20
116.99
 30
0.0
 41
1.0
  0
SPLINE
  5
284
330
12
100
AcDbEntity
  8
0
100
AcDbSpline
210
0.0
220
0.0
230
1.0
 70
    12
 71
     3
 72
     8
 73
     4
 40
0.0
 40
0.0
 40
0.0
 40
0.0
 40
1.0
 40
1.0
 40
1.0
 40
1.0
 10
320.01
 20
112.99
 30
0.0
 41
1.0
 10
320.01
 20
113.56
 30
0.0
 41
1.0
 10
320.44
 20
113.99
 30
0.0
 41
1.0
 10
321.01
 20
113.99
 30
0.0
 41
1.0
  0
SPLINE
  5
285
330
12
100
AcDbEntity
  8
0
100
AcDbSpline
210
0.0
220
0.0
230
1.0
 70
    12
 71
     3
 72
     8
 73
     4
 40
0.0
 40
0.0
 40
0.0
 40
0.0
 40
1.0
 40
1.0
 40
1.0
 40
1.0
 10
321.01
 20
113.99
 30
0.0
 41
1.0
 10
321.58
 20
113.99
 30
0.0
 41
1.0
 10
322.01
 20
113.56
 30
0.0
 41
1.0
 10
322.01
 20
112.99
 30
0.0
 41
1.0
  0
SPLINE
  5
286
330
12
100
AcDbEntity
  8
0
100
AcDbSpline
210
0.0
220
0.0
230
1.0
 70
    12
 71
     3
 72
     8
 73
     4
 40
0.0
 40
0.0
 40
0.0
 40
0.0
 40
1.0
 40
1.0
 40
1.0
 40
1.0
 10
320.01
 20
116.99
 30
0.0
 41
1.0
 10
320.01
 20
117.56
 30
0.0
 41
1.0
 10
320.44
 20
117.99
 30
0.0
 41
1.0
 10
321.01
 20
117.99
 30
0.0
 41
1.0
  0
SPLINE
  5
287
330
12
100
AcDbEntity
  8
0
100
AcDbSpline
210
0.0
220
0.0
230
1.0
 70
    12
 71
     3
 72
     8
 73
     4
 40
0.0
 40
0.0
 40
0.0
 40
0.0
 40
1.0
 40
1.0
 40
1.0
 40
1.0
 10
321.01
 20
117.99
 30
0.0
 41
1.0
 10
321.58
 20
117.99
 30
0.0
 41
1.0
 10
322.01
 20
117.56
 30
0.0
 41
1.0
 10
322.01
 20
116.99
 30
0.0
 41
1.0
  0
LWPOLYLINE
  5
288
330
12
100
AcDbEntity
  8
0
100
AcDbPolyline
 90
     2
 10
319.0
 20
117.0
 10
320.0
 20
117.0
  0
LWPOLYLINE
  5
289
330
12
100
AcDbEntity
  8
0
100
AcDbPolyline
 90
     2
 10
322.0
 20
117.0
 10
352.0
 20
117.0
  0
LWPOLYLINE
  5
28A
330
12
100
AcDbEntity
  8
0
100
AcDbPolyline
 90
     2
 10
322.0
 20
113.0
 10
352.0
 20
113.0
  0
MTEXT
  5
28B
330
12
100
AcDbEntity
  8
2-order-items
100
AcDbMText
 10
358.0
 20
94.76
 30
0.0
 40
2.064
 41
0.0
 71
     4
 72
     1
  1
4: AN15-02
 50
0.0
  0
MTEXT
  5
28C
330
12
100
AcDbEntity
  8
2-order-items
100
AcDbMText
 10
356.0
 20
102.76
 30
0.0
 40
2.064
 41
0.0
 71
     4
 72
     1
  1
5: TB00024
 50
0.0
  0
LWPOLYLINE
  5
28D
330
12
100
AcDbEntity
  8
0
100
AcDbPolyline
 90
     4
 70
     1
 10
240.0
 20
134.96
 10
250.0
 20
134.96
 10
250.0
 20
124.96
 10
240.0
 20
124.96
  0
MTEXT
  5
28E
330
12
100
AcDbEntity
  8
1-texts
100
AcDbMText
 10
250.0
 20
137.0
 30
0.0
 40
1.59
 41
0.0
 71
     5
 72
     1
  1
4
 50
0.0
  0
LWPOLYLINE
  5
28F
330
12
100
AcDbEntity
  8
0
100
AcDbPolyline
 90
     4
 70
     1
 10
250.0
 20
134.96
 10
260.0
 20
134.96
 10
260.0
 20
124.96
 10
250.0
 20
124.96
  0
MTEXT
  5
290
330
12
100
AcDbEntity
  8
1-texts
100
AcDbMText
 10
260.0
 20
137.0
 30
0.0
 40
1.59
 41
0.0
 71
     5
 72
     1
  1
2
 50
0.0
  0
MTEXT
  5
291
330
12
100
AcDbEntity
  8
1-texts
100
AcDbMText
 10
260.0
 20
123.0
 30
0.0
 40
1.59
 41
0.0
 71
     5
 72
     1
  1
3
 50
0.0
  0
LWPOLYLINE
  5
292
330
12
100
AcDbEntity
  8
0
100
AcDbPolyline
 90
     2
 10
243.0
 20
134.96
 10
245.0
 20
125.0
  0
LWPOLYLINE
  5
293
330
12
100
AcDbEntity
  8
0
100
AcDbPolyline
 90
     3
 70
     1
 10
243.0
 20
134.96
 10
242.89
 20
132.49
 10
244.06
 20
132.73
  0
LWPOLYLINE
  5
294
330
12
100
AcDbEntity
  8
0
100
AcDbPolyline
 90
     2
 10
248.0
 20
134.96
 10
248.0
 20
124.96
  0
LWPOLYLINE
  5
295
330
12
100
AcDbEntity
  8
0
100
AcDbPolyline
 90
     3
 70
     1
 10
248.0
 20
124.96
 10
248.6
 20
127.36
 10
247.4
 20
127.36
  0
LWPOLYLINE
  5
296
330
12
100
AcDbEntity
  8
0
100
AcDbPolyline
 90
     2
 10
252.0
 20
135.0
 10
252.0
 20
125.0
  0
LWPOLYLINE
  5
297
330
12
100
AcDbEntity
  8
0
100
AcDbPolyline
 90
     3
 70
     1
 10
252.0
 20
125.0
 10
252.6
 20
127.4
 10
251.4
 20
127.4
  0
LWPOLYLINE
  5
298
330
12
100
AcDbEntity
  8
0
100
AcDbPolyline
 90
     2
 10
241.0
 20
127.0
 10
243.0
 20
127.0
  0
LWPOLYLINE
  5
299
330
12
100
AcDbEntity
  8
0
100
AcDbPolyline
 90
     2
 10
242.0
 20
125.0
 10
242.0
 20
127.0
  0
LWPOLYLINE
  5
29A
330
12
100
AcDbEntity
  8
0
100
AcDbPolyline
 90
     2
 10
257.0
 20
126.96
 10
259.0
 20
126.96
  0
LWPOLYLINE
  5
29B
330
12
100
AcDbEntity
  8
0
100
AcDbPolyline
 90
     2
 10
258.0
 20
124.96
 10
258.0
 20
126.96
  0
LWPOLYLINE
  5
29C
330
12
100
AcDbEntity
  8
0
100
AcDbPolyline
 90
     2
 10
255.0
 20
125.0
 10
258.0
 20
135.0
  0
LWPOLYLINE
  5
29D
330
12
100
AcDbEntity
  8
0
100
AcDbPolyline
 90
     3
 70
     1
 10
258.0
 20
135.0
 10
256.74
 20
132.87
 10
257.89
 20
132.53
  0
MTEXT
  5
29E
330
12
100
AcDbEntity
  8
1-texts
100
AcDbMText
 10
250.0
 20
123.0
 30
0.0
 40
1.59
 41
0.0
 71
     5
 72
     1
  1
5
 50
0.0
  0
MTEXT
  5
29F
330
12
100
AcDbEntity
  8
1-texts
100
AcDbMText
 10
256.0
 20
123.0
 30
0.0
 40
1.59
 41
0.0
 71
     5
 72
     1
  1
1
 50
0.0
  0
LWPOLYLINE
  5
2A0
330
12
100
AcDbEntity
  8
0
100
AcDbPolyline
 90
     4
 70
     1
 10
260.0
 20
129.96
 10
264.0
 20
129.96
 10
264.0
 20
124.96
 10
260.0
 20
124.96
  0
LWPOLYLINE
  5
2A1
330
12
100
AcDbEntity
  8
0
100
AcDbPolyline
 90
     3
 10
264.0
 20
129.96
 10
261.5
 20
127.46
 10
264.0
 20
124.96
  0
LWPOLYLINE
  5
2A2
330
12
100
AcDbEntity
  8
0
100
AcDbPolyline
 90
     4
 70
     1
 10
232.0
 20
129.96
 10
236.0
 20
129.96
 10
236.0
 20
124.96
 10
232.0
 20
124.96
  0
LWPOLYLINE
  5
2A3
330
12
100
AcDbEntity
  8
0
100
AcDbPolyline
 90
     4
 10
236.0
 20
129.96
 10
237.58
 20
128.38
 10
238.5
 20
127.46
 10
236.0
 20
124.96
  0
LWPOLYLINE
  5
2A4
330
12
100
AcDbEntity
  8
0
100
AcDbPolyline
 90
     4
 70
     1
 10
236.0
 20
129.96
 10
240.0
 20
129.96
 10
240.0
 20
124.96
 10
236.0
 20
124.96
  0
LWPOLYLINE
  5
2A5
330
12
100
AcDbEntity
  8
0
100
AcDbPolyline
 90
     4
 10
236.0
 20
129.96
 10
237.58
 20
128.38
 10
238.5
 20
127.46
 10
236.0
 20
124.96
  0
LWPOLYLINE
  5
2A6
330
12
100
AcDbEntity
  8
0
100
AcDbPolyline
 90
     2
 10
233.0
 20
124.96
 10
235.0
 20
129.96
  0
MTEXT
  5
2A7
330
12
100
AcDbEntity
  8
2-order-items
100
AcDbMText
 10
239.16
 20
138.76
 30
0.0
 40
2.064
 41
0.0
 71
     5
 72
     1
  1
\L48, 49
 50
0.0
  0
MTEXT
  5
2A8
330
12
100
AcDbEntity
  8
2-order-items
100
AcDbMText
 10
201.0
 20
132.64
 30
0.0
 40
2.064
 41
0.0
 71
     4
 72
     1
  1
48: SY5120-5YO-01F-Q\P49: K43
 50
0.0
  0
CIRCLE
  5
2A9
330
12
100
AcDbEntity
  8
0
100
AcDbCircle
 10
258.0
 20
138.0
 30
0.0
 40
0.99999998
  0
LWPOLYLINE
  5
2AA
330
12
100
AcDbEntity
  8
0
100
AcDbPolyline
 90
     2
 10
258.0
 20
141.0
 10
258.0
 20
135.0
  0
MTEXT
  5
2AB
330
12
100
AcDbEntity
  8
2-order-items
100
AcDbMText
 10
263.85
 20
140.76
 30
0.0
 40
2.064
 41
0.0
 71
     5
 72
     1
  1
\L50
 50
0.0
  0
MTEXT
  5
2AC
330
12
100
AcDbEntity
  8
2-order-items
100
AcDbMText
 10
258.0
 20
144.76
 30
0.0
 40
2.064
 41
0.0
 71
     4
 72
     1
  1
50: KQ2H08-01AS
 50
0.0
  0
CIRCLE
  5
2AD
330
12
100
AcDbEntity
  8
0
100
AcDbCircle
 10
252.0
 20
138.0
 30
0.0
 40
0.99999998
  0
LWPOLYLINE
  5
2AE
330
12
100
AcDbEntity
  8
0
100
AcDbPolyline
 90
     2
 10
252.0
 20
141.0
 10
252.0
 20
135.0
  0
MTEXT
  5
2AF
330
12
100
AcDbEntity
  8
2-order-items
100
AcDbMText
 10
247.85
 20
142.76
 30
0.0
 40
2.064
 41
0.0
 71
     5
 72
     1
  1
\L51
 50
0.0
  0
LWPOLYLINE
  5
2B0
330
12
100
AcDbEntity
  8
0
100
AcDbPolyline
 90
     4
 70
     1
 10
303.0
 20
134.96
 10
313.0
 20
134.96
 10
313.0
 20
124.96
 10
303.0
 20
124.96
  0
MTEXT
  5
2B1
330
12
100
AcDbEntity
  8
1-texts
100
AcDbMText
 10
313.0
 20
137.0
 30
0.0
 40
1.59
 41
0.0
 71
     5
 72
     1
  1
4
 50
0.0
  0
LWPOLYLINE
  5
2B2
330
12
100
AcDbEntity
  8
0
100
AcDbPolyline
 90
     4
 70
     1
 10
313.0
 20
134.96
 10
323.0
 20
134.96
 10
323.0
 20
124.96
 10
313.0
 20
124.96
  0
MTEXT
  5
2B3
330
12
100
AcDbEntity
  8
1-texts
100
AcDbMText
 10
323.0
 20
137.0
 30
0.0
 40
1.59
 41
0.0
 71
     5
 72
     1
  1
2
 50
0.0
  0
MTEXT
  5
2B4
330
12
100
AcDbEntity
  8
1-texts
100
AcDbMText
 10
323.0
 20
123.0
 30
0.0
 40
1.59
 41
0.0
 71
     5
 72
     1
  1
3
 50
0.0
  0
LWPOLYLINE
  5
2B5
330
12
100
AcDbEntity
  8
0
100
AcDbPolyline
 90
     2
 10
306.0
 20
134.96
 10
308.0
 20
125.0
  0
LWPOLYLINE
  5
2B6
330
12
100
AcDbEntity
  8
0
100
AcDbPolyline
 90
     3
 70
     1
 10
306.0
 20
134.96
 10
305.89
 20
132.49
 10
307.06
 20
132.73
  0
LWPOLYLINE
  5
2B7
330
12
100
AcDbEntity
  8
0
100
AcDbPolyline
 90
     2
 10
311.0
 20
134.96
 10
311.0
 20
124.96
  0
LWPOLYLINE
  5
2B8
330
12
100
AcDbEntity
  8
0
100
AcDbPolyline
 90
     3
 70
     1
 10
311.0
 20
124.96
 10
311.6
 20
127.36
 10
310.4
 20
127.36
  0
LWPOLYLINE
  5
2B9
330
12
100
AcDbEntity
  8
0
100
AcDbPolyline
 90
     2
 10
315.0
 20
135.0
 10
315.0
 20
125.0
  0
LWPOLYLINE
  5
2BA
330
12
100
AcDbEntity
  8
0
100
AcDbPolyline
 90
     3
 70
     1
 10
315.0
 20
125.0
 10
315.6
 20
127.4
 10
314.4
 20
127.4
  0
LWPOLYLINE
  5
2BB
330
12
100
AcDbEntity
  8
0
100
AcDbPolyline
 90
     2
 10
304.0
 20
127.0
 10
306.0
 20
127.0
  0
LWPOLYLINE
  5
2BC
330
12
100
AcDbEntity
  8
0
100
AcDbPolyline
 90
     2
 10
305.0
 20
125.0
 10
305.0
 20
127.0
  0
LWPOLYLINE
  5
2BD
330
12
100
AcDbEntity
  8
0
100
AcDbPolyline
 90
     2
 10
320.0
 20
126.96
 10
322.0
 20
126.96
  0
LWPOLYLINE
  5
2BE
330
12
100
AcDbEntity
  8
0
100
AcDbPolyline
 90
     2
 10
321.0
 20
124.96
 10
321.0
 20
126.96
  0
LWPOLYLINE
  5
2BF
330
12
100
AcDbEntity
  8
0
100
AcDbPolyline
 90
     2
 10
318.0
 20
125.0
 10
321.0
 20
135.0
  0
LWPOLYLINE
  5
2C0
330
12
100
AcDbEntity
  8
0
100
AcDbPolyline
 90
     3
 70
     1
 10
321.0
 20
135.0
 10
319.74
 20
132.87
 10
320.89
 20
132.53
  0
MTEXT
  5
2C1
330
12
100
AcDbEntity
  8
1-texts
100
AcDbMText
 10
313.0
 20
123.0
 30
0.0
 40
1.59
 41
0.0
 71
     5
 72
     1
  1
5
 50
0.0
  0
MTEXT
  5
2C2
330
12
100
AcDbEntity
  8
1-texts
100
AcDbMText
 10
319.0
 20
123.0
 30
0.0
 40
1.59
 41
0.0
 71
     5
 72
     1
  1
1
 50
0.0
  0
LWPOLYLINE
  5
2C3
330
12
100
AcDbEntity
  8
0
100
AcDbPolyline
 90
     4
 70
     1
 10
323.0
 20
129.96
 10
327.0
 20
129.96
 10
327.0
 20
124.96
 10
323.0
 20
124.96
  0
LWPOLYLINE
  5
2C4
330
12
100
AcDbEntity
  8
0
100
AcDbPolyline
 90
     3
 10
327.0
 20
129.96
 10
324.5
 20
127.46
 10
327.0
 20
124.96
  0
LWPOLYLINE
  5
2C5
330
12
100
AcDbEntity
  8
0
100
AcDbPolyline
 90
     4
 70
     1
 10
295.0
 20
129.96
 10
299.0
 20
129.96
 10
299.0
 20
124.96
 10
295.0
 20
124.96
  0
LWPOLYLINE
  5
2C6
330
12
100
AcDbEntity
  8
0
100
AcDbPolyline
 90
     4
 10
299.0
 20
129.96
 10
300.58
 20
128.38
 10
301.5
 20
127.46
 10
299.0
 20
124.96
  0
LWPOLYLINE
  5
2C7
330
12
100
AcDbEntity
  8
0
100
AcDbPolyline
 90
     4
 70
     1
 10
299.0
 20
129.96
 10
303.0
 20
129.96
 10
303.0
 20
124.96
 10
299.0
 20
124.96
  0
LWPOLYLINE
  5
2C8
330
12
100
AcDbEntity
  8
0
100
AcDbPolyline
 90
     4
 10
299.0
 20
129.96
 10
300.58
 20
128.38
 10
301.5
 20
127.46
 10
299.0
 20
124.96
  0
LWPOLYLINE
  5
2C9
330
12
100
AcDbEntity
  8
0
100
AcDbPolyline
 90
     2
 10
296.0
 20
124.96
 10
298.0
 20
129.96
  0
MTEXT
  5
2CA
330
12
100
AcDbEntity
  8
2-order-items
100
AcDbMText
 10
302.16
 20
138.76
 30
0.0
 40
2.064
 41
0.0
 71
     5
 72
     1
  1
\L52, 53
 50
0.0
  0
MTEXT
  5
2CB
330
12
100
AcDbEntity
  8
2-order-items
100
AcDbMText
 10
264.0
 20
132.64
 30
0.0
 40
2.064
 41
0.0
 71
     4
 72
     1
  1
52: SY5120-5YO-01F-Q\P53: K43
 50
0.0
  0
CIRCLE
  5
2CC
330
12
100
AcDbEntity
  8
0
100
AcDbCircle
 10
321.0
 20
138.0
 30
0.0
 40
0.99999998
  0
LWPOLYLINE
  5
2CD
330
12
100
AcDbEntity
  8
0
100
AcDbPolyline
 90
     2
 10
321.0
 20
141.0
 10
321.0
 20
135.0
  0
MTEXT
  5
2CE
330
12
100
AcDbEntity
  8
2-order-items
100
AcDbMText
 10
326.85
 20
140.76
 30
0.0
 40
2.064
 41
0.0
 71
     5
 72
     1
  1
\L54
 50
0.0
  0
MTEXT
  5
2CF
330
12
100
AcDbEntity
  8
2-order-items
100
AcDbMText
 10
322.0
 20
136.76
 30
0.0
 40
2.064
 41
0.0
 71
     4
 72
     1
  1
54: KQ2H08-01AS
 50
0.0
  0
CIRCLE
  5
2D0
330
12
100
AcDbEntity
  8
0
100
AcDbCircle
 10
315.0
 20
138.0
 30
0.0
 40
0.99999998
  0
LWPOLYLINE
  5
2D1
330
12
100
AcDbEntity
  8
0
100
AcDbPolyline
 90
     2
 10
315.0
 20
141.0
 10
315.0
 20
135.0
  0
MTEXT
  5
2D2
330
12
100
AcDbEntity
  8
2-order-items
100
AcDbMText
 10
310.85
 20
142.76
 30
0.0
 40
2.064
 41
0.0
 71
     5
 72
     1
  1
\L55
 50
0.0
  0
LWPOLYLINE
  5
2D3
330
12
100
AcDbEntity
  8
0
100
AcDbPolyline
 90
     4
 70
     1
 10
259.0
 20
245.51
 10
289.0
 20
245.51
 10
289.0
 20
235.51
 10
259.0
 20
235.51
  0
LWPOLYLINE
  5
2D4
330
12
100
AcDbEntity
  8
0
100
AcDbPolyline
 90
     4
 70
     1
 10
261.0
 20
243.51
 10
262.0
 20
243.51
 10
262.0
 20
237.51
 10
261.0
 20
237.51
  0
LWPOLYLINE
  5
2D5
330
12
100
AcDbEntity
  8
0
100
AcDbPolyline
 90
     4
 70
     1
 10
262.0
 20
245.01
 10
264.0
 20
245.01
 10
264.0
 20
236.01
 10
262.0
 20
236.01
  0
LWPOLYLINE
  5
2D6
330
12
100
AcDbEntity
  8
0
100
AcDbPolyline
 90
     4
 70
     1
 10
264.0
 20
243.51
 10
265.0
 20
243.51
 10
265.0
 20
237.51
 10
264.0
 20
237.51
  0
LWPOLYLINE
  5
2D7
330
12
100
AcDbEntity
  8
0
100
AcDbPolyline
 90
     4
 70
     1
 10
265.0
 20
245.01
 10
267.0
 20
245.01
 10
267.0
 20
236.01
 10
265.0
 20
236.01
  0
LWPOLYLINE
  5
2D8
330
12
100
AcDbEntity
  8
0
100
AcDbPolyline
 90
     4
 70
     1
 10
267.0
 20
243.51
 10
268.0
 20
243.51
 10
268.0
 20
237.51
 10
267.0
 20
237.51
  0
LWPOLYLINE
  5
2D9
330
12
100
AcDbEntity
  8
0
100
AcDbPolyline
 90
     4
 70
     1
 10
268.0
 20
241.51
 10
293.0
 20
241.51
 10
293.0
 20
239.51
 10
268.0
 20
239.51
  0
LWPOLYLINE
  5
2DA
330
12
100
AcDbEntity
  8
0
100
AcDbPolyline
 90
     3
 10
261.0
 20
235.51
 10
261.0
 20
233.64
 10
261.0
 20
231.51
  0
LWPOLYLINE
  5
2DB
330
12
100
AcDbEntity
  8
0
100
AcDbPolyline
 90
     3
 10
287.0
 20
235.51
 10
287.0
 20
233.64
 10
287.0
 20
231.51
  0
LWPOLYLINE
  5
2DC
330
12
100
AcDbEntity
  8
0
100
AcDbPolyline
 90
     2
 10
260.0
 20
236.01
 10
269.0
 20
245.01
  0
LWPOLYLINE
  5
2DD
330
12
100
AcDbEntity
  8
0
100
AcDbPolyline
 90
     3
 70
     1
 10
269.0
 20
245.01
 10
266.88
 20
243.74
 10
267.73
 20
242.89
  0
MTEXT
  5
2DE
330
12
100
AcDbEntity
  8
2-order-items
100
AcDbMText
 10
267.03
 20
248.76
 30
0.0
 40
2.064
 41
0.0
 71
     5
 72
     1
  1
\L56, 57
 50
0.0
  0
MTEXT
  5
2DF
330
12
100
AcDbEntity
  8
2-order-items
100
AcDbMText
 10
262.0
 20
264.87
 30
0.0
 40
2.064
 41
0.0
 71
     4
 72
     1
  1
56: CP96SDB50-25\P57: KJ16D
 50
0.0
  0
LWPOLYLINE
  5
2E0
330
12
100
AcDbEntity
  8
0
100
AcDbPolyline
 90
    64
 70
     1
 10
262.22222656
 20
247.01
 10
262.20912109
 20
246.86296875
 10
262.16992188
 20
246.71736328
 10
262.105
 20
246.57457031
 10
262.01501953
 20
246.43597656
 10
261.90078125
 20
246.30291016
 10
261.76345703
 20
246.17664063
 10
261.60431641
 20
246.05841797
 10
261.42490234
 20
245.94933594
 10
261.22697266
 20
245.85048828
 10
261.01238281
 20
245.76279297
 10
260.78324219
 20
245.68710938
 10
260.54175781
 20
245.62417969
 10
260.29021484
 20
245.57458984
 10
260.03107422
 20
245.53882813
 10
259.76683594
 20
245.51722656
 10
259.5
 20
245.51
 10
259.23318359
 20
245.51722656
 10
258.96892578
 20
245.53882813
 10
258.70978516
 20
245.57458984
 10
258.45826172
 20
245.62417969
 10
258.21675781
 20
245.68710938
 10
257.98761719
 20
245.76279297
 10
257.77304687
 20
245.85048828
 10
257.57509766
 20
245.94933594
 10
257.39570313
 20
246.05841797
 10
257.2365625
 20
246.17664063
 10
257.09921875
 20
246.30291016
 10
256.985
 20
246.43597656
 10
256.895
 20
246.57457031
 10
256.83009766
 20
246.71736328
 10
256.79089844
 20
246.86296875
 10
256.77777344
 20
247.01
 10
256.79089844
 20
247.15703125
 10
256.83009766
 20
247.30263672
 10
256.895
 20
247.44542969
 10
256.985
 20
247.58402344
 10
257.09921875
 20
247.71708984
 10
257.2365625
 20
247.84335938
 10
257.39570313
 20
247.96158203
 10
257.57509766
 20
248.07066406
 10
257.77304687
 20
248.16951172
 10
257.98761719
 20
248.25720703
 10
258.21675781
 20
248.33289063
 10
258.45826172
 20
248.39582031
 10
258.70978516
 20
248.44541016
 10
258.96892578
 20
248.48117188
 10
259.23318359
 20
248.50277344
 10
259.5
 20
248.51
 10
259.76683594
 20
248.50277344
 10
260.03107422
 20
248.48117188
 10
260.29021484
 20
248.44541016
 10
260.54175781
 20
248.39582031
 10
260.78324219
 20
248.33289063
 10
261.01238281
 20
248.25720703
 10
261.22697266
 20
248.16951172
 10
261.42490234
 20
248.07066406
 10
261.60431641
 20
247.96158203
 10
261.76345703
 20
247.84335938
 10
261.90078125
 20
247.71708984
 10
262.01501953
 20
247.58402344
 10
262.105
 20
247.44542969
 10
262.16992188
 20
247.30263672
 10
262.20912109
 20
247.15703125
  0
LWPOLYLINE
  5
2E1
330
12
100
AcDbEntity
  8
0
100
AcDbPolyline
 90
     3
 10
256.0
 20
247.01
 10
258.33
 20
247.01
 10
259.89
 20
247.76
  0
LWPOLYLINE
  5
2E2
330
12
100
AcDbEntity
  8
0
100
AcDbPolyline
 90
     3
 10
259.11
 20
246.26
 10
260.67
 20
247.01
 10
263.0
 20
247.01
  0
LWPOLYLINE
  5
2E3
330
12
100
AcDbEntity
  8
0
100
AcDbPolyline
 90
    64
 70
     1
 10
292.22222656
 20
247.01
 10
292.20912109
 20
246.86296875
 10
292.16992188
 20
246.71736328
 10
292.105
 20
246.57457031
 10
292.01501953
 20
246.43597656
 10
291.90078125
 20
246.30291016
 10
291.76345703
 20
246.17664063
 10
291.60431641
 20
246.05841797
 10
291.42490234
 20
245.94933594
 10
291.22697266
 20
245.85048828
 10
291.01238281
 20
245.76279297
 10
290.78324219
 20
245.68710938
 10
290.54175781
 20
245.62417969
 10
290.29021484
 20
245.57458984
 10
290.03107422
 20
245.53882813
 10
289.76683594
 20
245.51722656
 10
289.5
 20
245.51
 10
289.23318359
 20
245.51722656
 10
288.96892578
 20
245.53882813
 10
288.70978516
 20
245.57458984
 10
288.45826172
 20
245.62417969
 10
288.21675781
 20
245.68710938
 10
287.98761719
 20
245.76279297
 10
287.77304688
 20
245.85048828
 10
287.57509766
 20
245.94933594
 10
287.39570313
 20
246.05841797
 10
287.2365625
 20
246.17664063
 10
287.09921875
 20
246.30291016
 10
286.985
 20
246.43597656
 10
286.895
 20
246.57457031
 10
286.83009766
 20
246.71736328
 10
286.79089844
 20
246.86296875
 10
286.77777344
 20
247.01
 10
286.79089844
 20
247.15703125
 10
286.83009766
 20
247.30263672
 10
286.895
 20
247.44542969
 10
286.985
 20
247.58402344
 10
287.09921875
 20
247.71708984
 10
287.2365625
 20
247.84335938
 10
287.39570313
 20
247.96158203
 10
287.57509766
 20
248.07066406
 10
287.77304688
 20
248.16951172
 10
287.98761719
 20
248.25720703
 10
288.21675781
 20
248.33289063
 10
288.45826172
 20
248.39582031
 10
288.70978516
 20
248.44541016
 10
288.96892578
 20
248.48117188
 10
289.23318359
 20
248.50277344
 10
289.5
 20
248.51
 10
289.76683594
 20
248.50277344
 10
290.03107422
 20
248.48117188
 10
290.29021484
 20
248.44541016
 10
290.54175781
 20
248.39582031
 10
290.78324219
 20
248.33289063
 10
291.01238281
 20
248.25720703
 10
291.22697266
 20
248.16951172
 10
291.42490234
 20
248.07066406
 10
291.60431641
 20
247.96158203
 10
291.76345703
 20
247.84335938
 10
291.90078125
 20
247.71708984
 10
292.01501953
 20
247.58402344
 10
292.105
 20
247.44542969
 10
292.16992188
 20
247.30263672
 10
292.20912109
 20
247.15703125
  0
LWPOLYLINE
  5
2E4
330
12
100
AcDbEntity
  8
0
100
AcDbPolyline
 90
     3
 10
286.0
 20
247.01
 10
288.33
 20
247.01
 10
289.89
 20
247.76
  0
LWPOLYLINE
  5
2E5
330
12
100
AcDbEntity
  8
0
100
AcDbPolyline
 90
     3
 10
289.11
 20
246.26
 10
290.67
 20
247.01
 10
293.0
 20
247.01
  0
LWPOLYLINE
  5
2E6
330
12
100
AcDbEntity
  8
0
100
AcDbPolyline
 90
     4
 70
     1
 10
259.0
 20
229.51
 10
268.0
 20
229.51
 10
268.0
 20
219.51
 10
259.0
 20
219.51
  0
LWPOLYLINE
  5
2E7
330
12
100
AcDbEntity
  8
0
100
AcDbPolyline
 90
     2
 10
261.0
 20
231.51
 10
261.0
 20
217.51
  0
LWPOLYLINE
  5
2E8
330
12
100
AcDbEntity
  8
0
100
AcDbPolyline
 90
     3
 10
261.0
 20
220.51
 10
265.0
 20
220.51
 10
265.0
 20
222.89
  0
LWPOLYLINE
  5
2E9
330
12
100
AcDbEntity
  8
0
100
AcDbPolyline
 90
     3
 10
261.0
 20
228.51
 10
265.0
 20
228.51
 10
265.0
 20
226.51
  0
LWPOLYLINE
  5
2EA
330
12
100
AcDbEntity
  8
0
100
AcDbPolyline
 90
     2
 10
263.0
 20
222.01
 10
259.0
 20
227.01
  0
LWPOLYLINE
  5
2EB
330
12
100
AcDbEntity
  8
0
100
AcDbPolyline
 90
     3
 70
     1
 10
259.0
 20
227.01
 10
260.03
 20
224.76
 10
260.97
 20
225.51
  0
SPLINE
  5
2EC
330
12
100
AcDbEntity
  8
0
100
AcDbSpline
210
0.0
220
0.0
230
1.0
 70
    12
 71
     3
 72
     8
 73
     4
 40
0.0
 40
0.0
 40
0.0
 40
0.0
 40
1.0
 40
1.0
 40
1.0
 40
1.0
 10
259.88
 20
227.64
 30
0.0
 41
1.0
 10
261.0
 20
226.39
 30
0.0
 41
1.0
 10
261.0
 20
222.64
 30
0.0
 41
1.0
 10
259.88
 20
221.39
 30
0.0
 41
1.0
  0
SPLINE
  5
2ED
330
12
100
AcDbEntity
  8
0
100
AcDbSpline
210
0.0
220
0.0
230
1.0
 70
    12
 71
     3
 72
     8
 73
     4
 40
0.0
 40
0.0
 40
0.0
 40
0.0
 40
1.0
 40
1.0
 40
1.0
 40
1.0
 10
262.13
 20
227.63
 30
0.0
 41
1.0
 10
261.0
 20
226.39
 30
0.0
 41
1.0
 10
261.01
 20
222.63
 30
0.0
 41
1.0
 10
262.13
 20
221.38
 30
0.0
 41
1.0
  0
CIRCLE
  5
2EE
330
12
100
AcDbEntity
  8
0
100
AcDbCircle
 10
261.0
 20
220.51
 30
0.0
 40
0.49999999
  0
CIRCLE
  5
2EF
330
12
100
AcDbEntity
  8
0
100
AcDbCircle
 10
261.0
 20
228.51
 30
0.0
 40
0.49999999
  0
CIRCLE
  5
2F0
330
12
100
AcDbEntity
  8
0
100
AcDbCircle
 10
265.0
 20
225.01
 30
0.0
 40
1.49999997
  0
LWPOLYLINE
  5
2F1
330
12
100
AcDbEntity
  8
0
100
AcDbPolyline
 90
     4
 10
262.88
 20
225.01
 10
265.0
 20
222.89
 10
267.12
 20
225.01
 10
267.12
 20
225.01
  0
MTEXT
  5
2F2
330
12
100
AcDbEntity
  8
2-order-items
100
AcDbMText
 10
263.85
 20
232.76
 30
0.0
 40
2.064
 41
0.0
 71
     5
 72
     1
  1
\L58
 50
0.0
  0
MTEXT
  5
2F3
330
12
100
AcDbEntity
  8
2-order-items
100
AcDbMText
 10
262.0
 20
258.76
 30
0.0
 40
2.064
 41
0.0
 71
     4
 72
     1
  1
58: AS2201F-02-08SA
 50
0.0
  0
LWPOLYLINE
  5
2F4
330
12
100
AcDbEntity
  8
3-links
100
AcDbPolyline
 90
     4
 10
261.0
 20
217.51
 10
261.0
 20
213.0
 10
252.0
 20
213.0
 10
252.0
 20
141.0
  0
LWPOLYLINE
  5
2F5
330
12
100
AcDbEntity
  8
3-links
100
AcDbPolyline
 90
     4
 10
258.0
 20
141.0
 10
258.0
 20
183.0
 10
287.0
 20
183.0
 10
287.0
 20
217.51
  0
LWPOLYLINE
  5
2F6
330
12
100
AcDbEntity
  8
0
100
AcDbPolyline
 90
     4
 70
     1
 10
285.0
 20
229.51
 10
294.0
 20
229.51
 10
294.0
 20
219.51
 10
285.0
 20
219.51
  0
LWPOLYLINE
  5
2F7
330
12
100
AcDbEntity
  8
0
100
AcDbPolyline
 90
     2
 10
287.0
 20
231.51
 10
287.0
 20
217.51
  0
LWPOLYLINE
  5
2F8
330
12
100
AcDbEntity
  8
0
100
AcDbPolyline
 90
     3
 10
287.0
 20
220.51
 10
291.0
 20
220.51
 10
291.0
 20
222.89
  0
LWPOLYLINE
  5
2F9
330
12
100
AcDbEntity
  8
0
100
AcDbPolyline
 90
     3
 10
287.0
 20
228.51
 10
291.0
 20
228.51
 10
291.0
 20
226.51
  0
LWPOLYLINE
  5
2FA
330
12
100
AcDbEntity
  8
0
100
AcDbPolyline
 90
     2
 10
289.0
 20
222.01
 10
285.0
 20
227.01
  0
LWPOLYLINE
  5
2FB
330
12
100
AcDbEntity
  8
0
100
AcDbPolyline
 90
     3
 70
     1
 10
285.0
 20
227.01
 10
286.03
 20
224.76
 10
286.97
 20
225.51
  0
SPLINE
  5
2FC
330
12
100
AcDbEntity
  8
0
100
AcDbSpline
210
0.0
220
0.0
230
1.0
 70
    12
 71
     3
 72
     8
 73
     4
 40
0.0
 40
0.0
 40
0.0
 40
0.0
 40
1.0
 40
1.0
 40
1.0
 40
1.0
 10
285.88
 20
227.64
 30
0.0
 41
1.0
 10
287.0
 20
226.39
 30
0.0
 41
1.0
 10
287.0
 20
222.64
 30
0.0
 41
1.0
 10
285.88
 20
221.39
 30
0.0
 41
1.0
  0
SPLINE
  5
2FD
330
12
100
AcDbEntity
  8
0
100
AcDbSpline
210
0.0
220
0.0
230
1.0
 70
    12
 71
     3
 72
     8
 73
     4
 40
0.0
 40
0.0
 40
0.0
 40
0.0
 40
1.0
 40
1.0
 40
1.0
 40
1.0
 10
288.13
 20
227.63
 30
0.0
 41
1.0
 10
287.0
 20
226.39
 30
0.0
 41
1.0
 10
287.01
 20
222.63
 30
0.0
 41
1.0
 10
288.13
 20
221.38
 30
0.0
 41
1.0
  0
CIRCLE
  5
2FE
330
12
100
AcDbEntity
  8
0
100
AcDbCircle
 10
287.0
 20
220.51
 30
0.0
 40
0.49999999
  0
CIRCLE
  5
2FF
330
12
100
AcDbEntity
  8
0
100
AcDbCircle
 10
287.0
 20
228.51
 30
0.0
 40
0.49999999
  0
CIRCLE
  5
300
330
12
100
AcDbEntity
  8
0
100
AcDbCircle
 10
291.0
 20
225.01
 30
0.0
 40
1.49999997
  0
LWPOLYLINE
  5
301
330
12
100
AcDbEntity
  8
0
100
AcDbPolyline
 90
     4
 10
288.88
 20
225.01
 10
291.0
 20
222.89
 10
293.12
 20
225.01
 10
293.12
 20
225.01
  0
MTEXT
  5
302
330
12
100
AcDbEntity
  8
2-order-items
100
AcDbMText
 10
289.85
 20
232.76
 30
0.0
 40
2.064
 41
0.0
 71
     5
 72
     1
  1
\L59
 50
0.0
  0
MTEXT
  5
303
330
12
100
AcDbEntity
  8
2-order-items
100
AcDbMText
 10
262.0
 20
254.76
 30
0.0
 40
2.064
 41
0.0
 71
     4
 72
     1
  1
59: AS2201F-02-08SA
 50
0.0
  0
LWPOLYLINE
  5
304
330
12
100
AcDbEntity
  8
0
100
AcDbPolyline
 90
     4
 70
     1
 10
322.0
 20
245.51
 10
352.0
 20
245.51
 10
352.0
 20
235.51
 10
322.0
 20
235.51
  0
LWPOLYLINE
  5
305
330
12
100
AcDbEntity
  8
0
100
AcDbPolyline
 90
     4
 70
     1
 10
324.0
 20
243.51
 10
325.0
 20
243.51
 10
325.0
 20
237.51
 10
324.0
 20
237.51
  0
LWPOLYLINE
  5
306
330
12
100
AcDbEntity
  8
0
100
AcDbPolyline
 90
     4
 70
     1
 10
325.0
 20
245.01
 10
327.0
 20
245.01
 10
327.0
 20
236.01
 10
325.0
 20
236.01
  0
LWPOLYLINE
  5
307
330
12
100
AcDbEntity
  8
0
100
AcDbPolyline
 90
     4
 70
     1
 10
327.0
 20
243.51
 10
328.0
 20
243.51
 10
328.0
 20
237.51
 10
327.0
 20
237.51
  0
LWPOLYLINE
  5
308
330
12
100
AcDbEntity
  8
0
100
AcDbPolyline
 90
     4
 70
     1
 10
328.0
 20
245.01
 10
330.0
 20
245.01
 10
330.0
 20
236.01
 10
328.0
 20
236.01
  0
LWPOLYLINE
  5
309
330
12
100
AcDbEntity
  8
0
100
AcDbPolyline
 90
     4
 70
     1
 10
330.0
 20
243.51
 10
331.0
 20
243.51
 10
331.0
 20
237.51
 10
330.0
 20
237.51
  0
LWPOLYLINE
  5
30A
330
12
100
AcDbEntity
  8
0
100
AcDbPolyline
 90
     4
 70
     1
 10
331.0
 20
241.51
 10
356.0
 20
241.51
 10
356.0
 20
239.51
 10
331.0
 20
239.51
  0
LWPOLYLINE
  5
30B
330
12
100
AcDbEntity
  8
0
100
AcDbPolyline
 90
     3
 10
324.0
 20
235.51
 10
324.0
 20
233.64
 10
324.0
 20
231.51
  0
LWPOLYLINE
  5
30C
330
12
100
AcDbEntity
  8
0
100
AcDbPolyline
 90
     3
 10
350.0
 20
235.51
 10
350.0
 20
233.64
 10
350.0
 20
231.51
  0
LWPOLYLINE
  5
30D
330
12
100
AcDbEntity
  8
0
100
AcDbPolyline
 90
     2
 10
323.0
 20
236.01
 10
332.0
 20
245.01
  0
LWPOLYLINE
  5
30E
330
12
100
AcDbEntity
  8
0
100
AcDbPolyline
 90
     3
 70
     1
 10
332.0
 20
245.01
 10
329.88
 20
243.74
 10
330.73
 20
242.89
  0
MTEXT
  5
30F
330
12
100
AcDbEntity
  8
2-order-items
100
AcDbMText
 10
330.03
 20
248.76
 30
0.0
 40
2.064
 41
0.0
 71
     5
 72
     1
  1
\L60, 61
 50
0.0
  0
MTEXT
  5
310
330
12
100
AcDbEntity
  8
2-order-items
100
AcDbMText
 10
322.0
 20
264.87
 30
0.0
 40
2.064
 41
0.0
 71
     4
 72
     1
  1
60: CP96SDB50-25\P61: KJ16D
 50
0.0
  0
LWPOLYLINE
  5
311
330
12
100
AcDbEntity
  8
0
100
AcDbPolyline
 90
    64
 70
     1
 10
325.22222656
 20
247.01
 10
325.20912109
 20
246.86296875
 10
325.16992188
 20
246.71736328
 10
325.105
 20
246.57457031
 10
325.01501953
 20
246.43597656
 10
324.90078125
 20
246.30291016
 10
324.76345703
 20
246.17664063
 10
324.60431641
 20
246.05841797
 10
324.42490234
 20
245.94933594
 10
324.22697266
 20
245.85048828
 10
324.01238281
 20
245.76279297
 10
323.78324219
 20
245.68710938
 10
323.54175781
 20
245.62417969
 10
323.29021484
 20
245.57458984
 10
323.03107422
 20
245.53882813
 10
322.76683594
 20
245.51722656
 10
322.5
 20
245.51
 10
322.23318359
 20
245.51722656
 10
321.96892578
 20
245.53882813
 10
321.70978516
 20
245.57458984
 10
321.45826172
 20
245.62417969
 10
321.21675781
 20
245.68710938
 10
320.98761719
 20
245.76279297
 10
320.77304688
 20
245.85048828
 10
320.57509766
 20
245.94933594
 10
320.39570313
 20
246.05841797
 10
320.2365625
 20
246.17664063
 10
320.09921875
 20
246.30291016
 10
319.985
 20
246.43597656
 10
319.895
 20
246.57457031
 10
319.83009766
 20
246.71736328
 10
319.79089844
 20
246.86296875
 10
319.77777344
 20
247.01
 10
319.79089844
 20
247.15703125
 10
319.83009766
 20
247.30263672
 10
319.895
 20
247.44542969
 10
319.985
 20
247.58402344
 10
320.09921875
 20
247.71708984
 10
320.2365625
 20
247.84335938
 10
320.39570313
 20
247.96158203
 10
320.57509766
 20
248.07066406
 10
320.77304688
 20
248.16951172
 10
320.98761719
 20
248.25720703
 10
321.21675781
 20
248.33289063
 10
321.45826172
 20
248.39582031
 10
321.70978516
 20
248.44541016
 10
321.96892578
 20
248.48117188
 10
322.23318359
 20
248.50277344
 10
322.5
 20
248.51
 10
322.76683594
 20
248.50277344
 10
323.03107422
 20
248.48117188
 10
323.29021484
 20
248.44541016
 10
323.54175781
 20
248.39582031
 10
323.78324219
 20
248.33289063
 10
324.01238281
 20
248.25720703
 10
324.22697266
 20
248.16951172
 10
324.42490234
 20
248.07066406
 10
324.60431641
 20
247.96158203
 10
324.76345703
 20
247.84335938
 10
324.90078125
 20
247.71708984
 10
325.01501953
 20
247.58402344
 10
325.105
 20
247.44542969
 10
325.16992188
 20
247.30263672
 10
325.20912109
 20
247.15703125
  0
LWPOLYLINE
  5
312
330
12
100
AcDbEntity
  8
0
100
AcDbPolyline
 90
     3
 10
319.0
 20
247.01
 10
321.33
 20
247.01
 10
322.89
 20
247.76
  0
LWPOLYLINE
  5
313
330
12
100
AcDbEntity
  8
0
100
AcDbPolyline
 90
     3
 10
322.11
 20
246.26
 10
323.67
 20
247.01
 10
326.0
 20
247.01
  0
LWPOLYLINE
  5
314
330
12
100
AcDbEntity
  8
0
100
AcDbPolyline
 90
    64
 70
     1
 10
355.22222656
 20
247.01
 10
355.20910156
 20
246.86296875
 10
355.16992188
 20
246.71736328
 10
355.105
 20
246.57457031
 10
355.015
 20
246.43597656
 10
354.90078125
 20
246.30291016
 10
354.7634375
 20
246.17664063
 10
354.60429687
 20
246.05841797
 10
354.42492188
 20
245.94933594
 10
354.22695313
 20
245.85048828
 10
354.01238281
 20
245.76279297
 10
353.78324219
 20
245.68710938
 10
353.54175781
 20
245.62417969
 10
353.29023438
 20
245.57458984
 10
353.03109375
 20
245.53882813
 10
352.76683594
 20
245.51722656
 10
352.5
 20
245.51
 10
352.23316406
 20
245.51722656
 10
351.96890625
 20
245.53882813
 10
351.70976562
 20
245.57458984
 10
351.45824219
 20
245.62417969
 10
351.21675781
 20
245.68710938
 10
350.98761719
 20
245.76279297
 10
350.77304688
 20
245.85048828
 10
350.57511719
 20
245.94933594
 10
350.39570313
 20
246.05841797
 10
350.2365625
 20
246.17664063
 10
350.09921875
 20
246.30291016
 10
349.985
 20
246.43597656
 10
349.895
 20
246.57457031
 10
349.83007813
 20
246.71736328
 10
349.79089844
 20
246.86296875
 10
349.77777344
 20
247.01
 10
349.79089844
 20
247.15703125
 10
349.83007813
 20
247.30263672
 10
349.895
 20
247.44542969
 10
349.985
 20
247.58402344
 10
350.09921875
 20
247.71708984
 10
350.2365625
 20
247.84335938
 10
350.39570313
 20
247.96158203
 10
350.57511719
 20
248.07066406
 10
350.77304688
 20
248.16951172
 10
350.98761719
 20
248.25720703
 10
351.21675781
 20
248.33289063
 10
351.45824219
 20
248.39582031
 10
351.70980469
 20
248.44541016
 10
351.96890625
 20
248.48117188
 10
352.23316406
 20
248.50277344
 10
352.5
 20
248.51
 10
352.76683594
 20
248.50277344
 10
353.03109375
 20
248.48117188
 10
353.29023438
 20
248.44541016
 10
353.54175781
 20
248.39582031
 10
353.78324219
 20
248.33289063
 10
354.01238281
 20
248.25720703
 10
354.22695313
 20
248.16951172
 10
354.42492188
 20
248.07066406
 10
354.60429687
 20
247.96158203
 10
354.7634375
 20
247.84335938
 10
354.90078125
 20
247.71708984
 10
355.015
 20
247.58402344
 10
355.105
 20
247.44542969
 10
355.16992188
 20
247.30263672
 10
355.20910156
 20
247.15703125
  0
LWPOLYLINE
  5
315
330
12
100
AcDbEntity
  8
0
100
AcDbPolyline
 90
     3
 10
349.0
 20
247.01
 10
351.33
 20
247.01
 10
352.89
 20
247.76
  0
LWPOLYLINE
  5
316
330
12
100
AcDbEntity
  8
0
100
AcDbPolyline
 90
     3
 10
352.11
 20
246.26
 10
353.67
 20
247.01
 10
356.0
 20
247.01
  0
LWPOLYLINE
  5
317
330
12
100
AcDbEntity
  8
0
100
AcDbPolyline
 90
     4
 70
     1
 10
322.0
 20
229.51
 10
331.0
 20
229.51
 10
331.0
 20
219.51
 10
322.0
 20
219.51
  0
LWPOLYLINE
  5
318
330
12
100
AcDbEntity
  8
0
100
AcDbPolyline
 90
     2
 10
324.0
 20
231.51
 10
324.0
 20
217.51
  0
LWPOLYLINE
  5
319
330
12
100
AcDbEntity
  8
0
100
AcDbPolyline
 90
     3
 10
324.0
 20
220.51
 10
328.0
 20
220.51
 10
328.0
 20
222.89
  0
LWPOLYLINE
  5
31A
330
12
100
AcDbEntity
  8
0
100
AcDbPolyline
 90
     3
 10
324.0
 20
228.51
 10
328.0
 20
228.51
 10
328.0
 20
226.51
  0
LWPOLYLINE
  5
31B
330
12
100
AcDbEntity
  8
0
100
AcDbPolyline
 90
     2
 10
326.0
 20
222.01
 10
322.0
 20
227.01
  0
LWPOLYLINE
  5
31C
330
12
100
AcDbEntity
  8
0
100
AcDbPolyline
 90
     3
 70
     1
 10
322.0
 20
227.01
 10
323.03
 20
224.76
 10
323.97
 20
225.51
  0
SPLINE
  5
31D
330
12
100
AcDbEntity
  8
0
100
AcDbSpline
210
0.0
220
0.0
230
1.0
 70
    12
 71
     3
 72
     8
 73
     4
 40
0.0
 40
0.0
 40
0.0
 40
0.0
 40
1.0
 40
1.0
 40
1.0
 40
1.0
 10
322.88
 20
227.64
 30
0.0
 41
1.0
 10
324.0
 20
226.39
 30
0.0
 41
1.0
 10
324.0
 20
222.64
 30
0.0
 41
1.0
 10
322.88
 20
221.39
 30
0.0
 41
1.0
  0
SPLINE
  5
31E
330
12
100
AcDbEntity
  8
0
100
AcDbSpline
210
0.0
220
0.0
230
1.0
 70
    12
 71
     3
 72
     8
 73
     4
 40
0.0
 40
0.0
 40
0.0
 40
0.0
 40
1.0
 40
1.0
 40
1.0
 40
1.0
 10
325.13
 20
227.63
 30
0.0
 41
1.0
 10
324.0
 20
226.39
 30
0.0
 41
1.0
 10
324.01
 20
222.63
 30
0.0
 41
1.0
 10
325.13
 20
221.38
 30
0.0
 41
1.0
  0
CIRCLE
  5
31F
330
12
100
AcDbEntity
  8
0
100
AcDbCircle
 10
324.0
 20
220.51
 30
0.0
 40
0.49999999
  0
CIRCLE
  5
320
330
12
100
AcDbEntity
  8
0
100
AcDbCircle
 10
324.0
 20
228.51
 30
0.0
 40
0.49999999
  0
CIRCLE
  5
321
330
12
100
AcDbEntity
  8
0
100
AcDbCircle
 10
328.0
 20
225.01
 30
0.0
 40
1.49999997
  0
LWPOLYLINE
  5
322
330
12
100
AcDbEntity
  8
0
100
AcDbPolyline
 90
     4
 10
325.88
 20
225.01
 10
328.0
 20
222.89
 10
330.12
 20
225.01
 10
330.12
 20
225.01
  0
MTEXT
  5
323
330
12
100
AcDbEntity
  8
2-order-items
100
AcDbMText
 10
326.85
 20
232.76
 30
0.0
 40
2.064
 41
0.0
 71
     5
 72
     1
  1
\L62
 50
0.0
  0
MTEXT
  5
324
330
12
100
AcDbEntity
  8
2-order-items
100
AcDbMText
 10
322.0
 20
258.76
 30
0.0
 40
2.064
 41
0.0
 71
     4
 72
     1
  1
62: AS2201F-02-08SA
 50
0.0
  0
LWPOLYLINE
  5
325
330
12
100
AcDbEntity
  8
0
100
AcDbPolyline
 90
     4
 70
     1
 10
348.0
 20
229.51
 10
357.0
 20
229.51
 10
357.0
 20
219.51
 10
348.0
 20
219.51
  0
LWPOLYLINE
  5
326
330
12
100
AcDbEntity
  8
0
100
AcDbPolyline
 90
     2
 10
350.0
 20
231.51
 10
350.0
 20
217.51
  0
LWPOLYLINE
  5
327
330
12
100
AcDbEntity
  8
0
100
AcDbPolyline
 90
     3
 10
350.0
 20
220.51
 10
354.0
 20
220.51
 10
354.0
 20
222.89
  0
LWPOLYLINE
  5
328
330
12
100
AcDbEntity
  8
0
100
AcDbPolyline
 90
     3
 10
350.0
 20
228.51
 10
354.0
 20
228.51
 10
354.0
 20
226.51
  0
LWPOLYLINE
  5
329
330
12
100
AcDbEntity
  8
0
100
AcDbPolyline
 90
     2
 10
352.0
 20
222.01
 10
348.0
 20
227.01
  0
LWPOLYLINE
  5
32A
330
12
100
AcDbEntity
  8
0
100
AcDbPolyline
 90
     3
 70
     1
 10
348.0
 20
227.01
 10
349.03
 20
224.76
 10
349.97
 20
225.51
  0
SPLINE
  5
32B
330
12
100
AcDbEntity
  8
0
100
AcDbSpline
210
0.0
220
0.0
230
1.0
 70
    12
 71
     3
 72
     8
 73
     4
 40
0.0
 40
0.0
 40
0.0
 40
0.0
 40
1.0
 40
1.0
 40
1.0
 40
1.0
 10
348.88
 20
227.64
 30
0.0
 41
1.0
 10
350.0
 20
226.39
 30
0.0
 41
1.0
 10
350.0
 20
222.64
 30
0.0
 41
1.0
 10
348.88
 20
221.39
 30
0.0
 41
1.0
  0
SPLINE
  5
32C
330
12
100
AcDbEntity
  8
0
100
AcDbSpline
210
0.0
220
0.0
230
1.0
 70
    12
 71
     3
 72
     8
 73
     4
 40
0.0
 40
0.0
 40
0.0
 40
0.0
 40
1.0
 40
1.0
 40
1.0
 40
1.0
 10
351.13
 20
227.63
 30
0.0
 41
1.0
 10
350.0
 20
226.39
 30
0.0
 41
1.0
 10
350.01
 20
222.63
 30
0.0
 41
1.0
 10
351.13
 20
221.38
 30
0.0
 41
1.0
  0
CIRCLE
  5
32D
330
12
100
AcDbEntity
  8
0
100
AcDbCircle
 10
350.0
 20
220.51
 30
0.0
 40
0.49999999
  0
CIRCLE
  5
32E
330
12
100
AcDbEntity
  8
0
100
AcDbCircle
 10
350.0
 20
228.51
 30
0.0
 40
0.49999999
  0
CIRCLE
  5
32F
330
12
100
AcDbEntity
  8
0
100
AcDbCircle
 10
354.0
 20
225.01
 30
0.0
 40
1.49999997
  0
LWPOLYLINE
  5
330
330
12
100
AcDbEntity
  8
0
100
AcDbPolyline
 90
     4
 10
351.88
 20
225.01
 10
354.0
 20
222.89
 10
356.12
 20
225.01
 10
356.12
 20
225.01
  0
MTEXT
  5
331
330
12
100
AcDbEntity
  8
2-order-items
100
AcDbMText
 10
352.85
 20
232.76
 30
0.0
 40
2.064
 41
0.0
 71
     5
 72
     1
  1
\L63
 50
0.0
  0
MTEXT
  5
332
330
12
100
AcDbEntity
  8
2-order-items
100
AcDbMText
 10
322.0
 20
254.76
 30
0.0
 40
2.064
 41
0.0
 71
     4
 72
     1
  1
63: AS2201F-02-08SA
 50
0.0
  0
LWPOLYLINE
  5
333
330
12
100
AcDbEntity
  8
3-links
100
AcDbPolyline
 90
     4
 10
321.0
 20
141.0
 10
321.0
 20
183.0
 10
350.0
 20
183.0
 10
350.0
 20
217.51
  0
LWPOLYLINE
  5
334
330
12
100
AcDbEntity
  8
3-links
100
AcDbPolyline
 90
     4
 10
324.0
 20
217.51
 10
324.0
 20
213.0
 10
315.0
 20
213.0
 10
315.0
 20
141.0
  0
ENDSEC
  0
SECTION
  2
OBJECTS
  0
DICTIONARY
  5
18
330
0
100
AcDbDictionary
  3
ACAD_GROUP
350
19
  3
ACAD_LAYOUT
350
1A
  3
ACAD_MLINESTYLE
350
1B
  3
ACAD_PLOTSETTINGS
350
1D
  3
ACDBHEADERROUNDTRIPXREC
350
1E
  3
ACDBVARIABLEDICTIONARY
350
1F
  0
DICTIONARY
  5
19
330
18
100
AcDbDictionary
  0
DICTIONARY
  5
1A
330
18
100
AcDbDictionary
  0
DICTIONARY
  5
1B
330
18
100
AcDbDictionary
  0
DICTIONARY
  5
1C
330
18
100
AcDbDictionary
  0
DICTIONARY
  5
1D
330
18
100
AcDbDictionary
  0
DICTIONARY
  5
1E
330
18
100
AcDbDictionary
  0
DICTIONARY
  5
1F
330
18
100
AcDbDictionary
  0
ENDSEC
  0
EOF
